<svg width="742" height="187" viewBox="0 0 742 187" fill="none" xmlns="http://www.w3.org/2000/svg">
<path id="line" d="M741.377 161.569C741.178 161.37 740.88 161.271 740.582 161.271L729.546 161.37C728.751 161.37 728.552 161.37 728.452 161.172C728.253 160.874 727.756 159.981 726.762 159.882C725.768 159.882 725.171 160.676 724.873 161.073C724.575 161.569 724.277 161.469 723.978 161.271C723.183 160.775 722.885 160.577 722.785 159.882C722.587 156.907 722.288 154.129 722.388 151.352C722.487 146.492 722.487 141.135 722.288 134.49C722.288 133.002 722.089 131.415 720.896 130.522C719.703 129.629 718.013 129.828 716.522 130.125C716.224 130.225 716.025 130.225 715.726 130.324C715.229 130.423 714.732 130.522 714.335 130.621C711.451 131.018 706.48 135.283 706.182 138.358C705.685 143.218 705.486 148.575 705.784 154.923C705.784 155.121 705.784 155.22 705.784 155.419C705.784 155.617 705.784 155.816 705.784 155.915C705.685 155.915 705.586 155.915 705.486 155.915C705.088 155.915 704.89 155.816 704.89 155.816C704.89 155.816 704.79 155.617 704.79 154.923C704.89 152.939 704.89 150.955 704.89 148.971C704.89 146.194 704.79 143.417 705.188 140.639C705.387 139.449 705.287 137.961 703.001 137.664C702.106 137.565 701.609 137.366 701.907 135.878C702.205 133.795 701.112 131.514 698.825 129.828C698.328 129.431 697.831 129.431 697.532 129.431C697.135 129.53 696.836 129.729 696.538 129.927C696.24 129.629 695.842 129.431 695.246 129.431C694.351 129.431 693.953 130.125 693.456 130.919C692.86 131.812 692.263 132.407 691.667 132.407C691.07 132.407 690.573 131.911 690.076 131.514C689.976 131.415 689.877 131.316 689.678 131.216C689.678 131.216 689.678 131.216 689.678 131.117V130.621C689.777 129.133 688.883 127.745 687.59 127.546C687.093 127.447 686.596 127.447 686.198 127.348C684.707 127.249 683.514 127.05 682.221 126.257C680.929 125.463 679.239 125.662 677.648 125.86C677.151 125.959 676.654 125.959 676.157 125.959C675.361 125.959 674.467 126.654 674.168 127.348C673.671 128.34 673.274 128.241 671.882 128.042C671.385 127.943 670.788 127.844 670.291 127.943C670.291 127.943 670.291 127.943 670.192 127.943C670.192 127.844 670.192 127.745 670.192 127.646C670.192 127.348 670.291 127.05 670.291 126.753C670.291 125.86 669.993 125.166 669.496 124.769C668.8 124.174 667.905 124.273 667.308 124.372C667.109 124.372 666.911 124.472 666.811 124.472C666.413 124.372 665.419 124.075 664.723 124.67C664.127 125.265 664.226 126.059 664.326 126.555C664.326 126.654 664.326 126.654 664.326 126.753C663.63 128.638 663.729 130.621 663.729 132.407C663.729 133.002 663.729 133.597 663.729 134.291C663.729 135.283 663.331 136.176 662.735 136.672C662.238 137.069 661.542 137.267 660.846 137.168C660.349 137.069 659.951 137.168 659.653 137.267C659.553 137.267 659.553 137.267 659.454 137.366C658.36 134.986 656.173 135.184 654.582 135.382C653.787 135.482 653.091 135.779 652.594 136.077C652.097 136.275 651.699 136.474 651.301 136.573C647.722 136.969 646.629 137.862 646.231 140.54C646.231 140.54 646.132 140.54 646.132 140.441C645.237 140.144 643.845 139.35 644.143 137.862C644.74 135.085 642.95 133.299 642.155 132.407C640.962 131.216 640.365 130.522 640.365 129.332C640.365 128.439 639.371 127.745 639.271 127.646C638.874 127.447 638.476 127.447 638.178 127.646C637.283 128.142 636.885 127.943 635.692 127.15C635.096 126.753 634.4 126.257 633.604 126.059C632.312 125.761 631.715 125.463 631.517 124.769C631.417 124.571 631.417 124.372 631.318 124.075L631.218 123.876C631.119 123.48 630.721 123.182 630.423 123.182C630.025 123.083 629.628 123.281 629.329 123.579C629.23 123.678 629.23 123.678 629.131 123.777C629.131 123.777 629.031 123.876 629.131 123.876C629.031 123.876 628.832 123.976 628.733 123.976C628.136 124.174 627.341 124.372 627.142 125.166C627.043 125.364 627.043 125.662 627.142 125.959C626.943 126.059 626.645 126.059 626.446 126.158C625.154 126.455 622.768 126.951 623.265 130.522C623.463 131.911 623.463 132.605 623.364 132.803C623.165 133.002 621.873 133.101 620.779 133.101H620.381C618.89 133.2 616.802 133.299 615.609 134.886C615.41 134.688 615.212 134.589 615.013 134.49C614.018 134.093 613.124 134.589 612.129 135.085C611.732 134.291 611.135 133.597 610.539 132.903C609.743 132.01 609.047 131.216 608.948 130.125C608.948 128.638 608.252 127.844 607.755 127.447C606.86 126.852 605.568 126.753 603.977 127.249C601.79 127.943 601.491 129.431 601.392 130.621C601.094 130.522 600.895 130.522 600.696 130.423C600.497 130.423 600.199 130.324 600.199 130.324C600.099 130.225 600.099 129.828 600.099 129.629C600 128.935 599.901 127.745 598.807 127.447C598.509 127.348 597.713 127.05 597.017 127.646C596.918 127.646 596.918 127.745 596.918 127.745C597.515 124.67 596.719 121.893 595.824 119.115L595.626 118.619C595.228 117.131 593.935 117.032 593.339 117.032C593.239 117.032 593.041 117.032 593.041 117.032C592.643 116.834 592.146 116.834 591.848 117.131C591.45 117.429 591.35 117.826 591.45 118.322C591.549 118.818 591.549 118.917 590.654 119.512C590.058 119.909 589.362 120.405 588.964 121.297C587.97 123.38 588.07 125.364 588.07 127.249C588.07 127.745 588.07 128.241 588.07 128.637C588.07 129.233 587.97 129.431 587.97 129.431C587.97 129.431 587.771 129.431 587.374 129.431C586.777 129.332 586.28 129.332 585.882 129.431C585.882 129.034 585.882 128.638 585.882 128.241C585.882 125.662 585.982 123.083 585.385 120.504C584.789 117.627 582.701 117.925 581.707 118.024C581.408 118.024 581.011 118.123 580.812 118.024C580.116 117.727 579.32 117.826 578.625 118.322C578.127 118.619 577.431 119.413 577.431 120.901C577.431 122.091 577.431 123.38 577.332 124.67C577.332 125.364 577.233 126.158 577.233 126.852C577.233 127.546 577.233 128.34 577.233 129.034C577.233 130.225 577.233 131.415 577.133 132.605C576.934 134.093 576.636 134.192 576.338 134.192C576.238 134.192 576.139 134.192 576.139 134.192C576.139 134.093 576.139 133.895 576.238 133.795C576.338 133.498 576.338 133.2 576.338 132.903C576.238 131.514 576.338 130.125 576.338 128.836C576.437 124.472 576.537 119.909 574.051 115.743C573.156 114.156 571.466 111.18 568.384 111.478C566.793 111.577 566.296 111.279 566.197 111.18C565.998 110.883 565.899 110.188 566.097 109.196C566.495 107.708 565.501 107.213 565.004 107.014C564.407 106.816 563.811 107.113 563.612 107.708C563.512 107.907 563.413 108.006 563.413 108.204C563.115 108.7 562.816 109.395 562.916 110.089C563.115 111.279 562.916 111.577 561.126 112.073C558.74 112.668 557.348 114.949 556.652 116.14C555.956 117.528 555.36 119.115 554.962 120.702C554.465 119.016 553.769 117.33 552.974 115.743L552.775 115.247C552.576 114.85 552.178 114.553 551.681 114.553C551.184 114.553 550.787 114.85 550.687 115.346L548.5 122.091C548.202 121.992 547.903 121.992 547.506 122.091C546.71 122.19 546.114 122.587 545.815 123.083C545.219 123.976 545.617 125.067 545.815 125.662C545.815 125.761 545.915 125.86 545.915 125.959C546.014 126.555 545.915 126.654 545.418 127.15C545.219 127.348 545.02 127.546 544.821 127.745L544.722 127.844C544.523 128.042 544.424 128.241 544.324 128.241C544.324 128.042 544.424 127.745 544.424 127.546C544.324 122.488 544.324 118.223 544.424 114.255C544.424 112.271 543.628 110.089 541.64 109.791C539.254 109.395 536.172 109.196 533.686 110.089C532.095 110.684 532.294 112.47 532.493 114.156C532.592 114.85 532.592 115.544 532.592 116.04C532.592 116.239 532.592 116.437 532.592 116.536C532.592 116.536 532.592 116.536 532.592 116.636C532.592 116.636 532.592 116.636 532.493 116.636C531.499 116.437 530.703 116.536 530.107 117.032C529.212 117.727 529.312 118.818 529.312 119.909C529.312 121.694 529.312 123.38 529.312 125.166C529.312 127.844 529.312 130.522 529.411 133.299C529.411 134.589 528.516 135.779 528.118 136.077C528.118 135.878 528.218 135.382 528.218 135.085C528.317 134.688 528.417 134.192 528.417 133.795C528.317 119.81 528.317 107.312 528.417 95.7065C528.417 94.6154 528.218 93.6235 528.118 92.6316C527.92 91.243 527.621 90.0527 528.019 88.8624C528.218 88.0689 528.417 87.077 527.82 86.3826C527.224 85.6883 526.428 85.6883 525.832 85.6883C525.633 85.6883 525.533 85.6883 525.335 85.6883C523.048 85.49 520.662 85.6883 518.475 85.8867C516.983 85.9859 515.393 86.1843 513.802 86.1843C512.012 86.1843 511.018 86.1843 510.421 86.9778C509.726 87.7713 509.924 88.664 510.223 90.6478C510.223 90.9454 510.123 91.4413 510.024 91.7389C509.427 94.2187 509.427 96.8968 509.825 99.7733C510.024 100.864 510.024 101.955 510.024 103.146C510.024 104.038 510.024 104.931 510.123 105.824C510.024 105.824 509.924 105.824 509.825 105.824C509.825 105.824 509.825 105.725 509.726 105.625C508.334 102.749 506.047 100.666 503.263 100.071C500.579 99.3765 497.795 100.071 495.21 101.955C494.216 102.749 493.619 103.84 493.023 104.832C492.625 105.625 492.227 106.32 491.73 106.617C488.052 109.097 488.052 112.767 487.952 115.743C487.952 116.239 487.952 116.735 487.853 117.231C487.555 120.901 487.753 124.67 487.853 128.34C487.952 130.026 487.952 131.712 487.952 133.399C487.952 133.597 487.952 133.795 487.952 133.994C487.952 134.093 487.952 134.391 487.952 134.49C485.566 135.085 485.666 136.969 485.765 137.862C485.765 138.061 485.765 138.259 485.765 138.457C485.765 139.152 485.765 139.747 485.765 140.441C485.765 141.135 485.765 141.83 485.765 142.425C485.765 142.822 485.765 143.119 485.765 143.516C485.765 144.012 485.864 145.004 485.666 145.202C485.666 145.202 485.467 145.301 484.771 145.103C484.771 144.706 484.771 144.309 484.771 143.913C484.87 142.028 484.97 139.648 483.081 137.664C483.081 137.465 483.081 137.267 483.081 137.069C483.081 136.87 483.081 136.672 483.081 136.473V133.795C483.081 130.324 483.081 126.753 483.081 123.182C483.081 122.289 482.981 121.496 482.385 120.802C481.689 120.206 480.794 120.107 480.197 120.206C478.408 120.306 476.519 120.306 474.729 120.306C474.033 120.306 473.437 120.306 472.741 120.306H472.542C471.846 120.306 470.056 120.306 470.056 122.587C470.056 124.571 470.056 126.455 470.056 128.439C470.056 132.01 470.056 135.581 469.758 139.152C469.758 139.648 469.659 140.243 469.659 140.739C469.659 140.441 469.659 140.044 469.659 139.747V137.267C469.659 137.069 469.659 136.969 469.659 136.771C469.659 136.077 469.758 134.787 468.466 133.895C468.068 133.597 467.969 133.299 468.068 132.308V132.01C468.068 129.828 468.068 127.646 468.068 125.463C468.068 118.818 468.167 111.874 467.969 105.03C467.969 104.634 468.068 104.038 468.167 103.542C468.466 101.856 468.863 99.1781 465.98 97.7895C465.98 97.6903 465.98 97.5911 465.881 97.4919C465.583 96.5 465.384 95.3097 465.384 93.7227C465.384 77.654 465.384 61.5852 465.384 45.4173V41.3505C465.384 39.8626 464.887 38.6724 464.091 37.978C463.594 37.5813 462.998 37.2837 462.302 37.2837C462.5 36.1926 462.202 35.2007 461.506 34.5064C460.81 33.8121 460.015 33.6137 459.418 33.5145C459.22 33.5145 458.921 33.4153 458.822 33.4153C458.225 33.1177 457.629 33.1177 457.132 33.1177C456.336 33.1177 456.336 33.1177 456.237 32.6218C455.839 30.8364 455.939 28.8526 455.939 26.968C455.939 26.1744 455.939 25.2817 455.939 24.4882C455.939 23.0995 455.839 21.7109 455.839 20.3223C455.74 15.7595 455.64 10.9984 455.74 6.33648C455.74 5.44378 455.74 4.55107 455.74 3.45999V1.57536C455.74 1.07941 455.442 0.682671 454.944 0.484292C454.447 0.385102 453.95 0.583482 453.652 0.980241C452.359 3.16242 452.558 5.14619 452.757 6.63404C452.857 7.22918 452.857 7.82433 452.857 8.32028C452.757 9.80813 452.757 11.296 452.857 12.7838C452.956 14.6684 452.956 16.4538 452.757 18.2393C452.558 19.6279 452.558 20.9174 452.558 22.2069C452.558 23.7939 452.558 25.1825 452.26 26.6704C451.962 28.0591 452.161 30.0429 452.459 31.7291L452.558 32.4234C452.558 32.6218 452.558 32.721 452.558 32.8201C452.459 32.8201 452.359 32.9193 452.061 32.9193H451.664C449.675 33.1177 446.593 33.4153 446.096 37.1845C445.996 37.5813 445.798 37.978 445.798 38.0772C443.312 38.2756 443.412 40.1602 443.412 41.0529V41.1521C443.61 49.5832 443.412 58.1136 443.213 66.4455C443.014 72.4961 442.914 78.6459 442.914 84.7956C442.914 90.9454 442.914 96.996 442.914 103.047V110.387C442.517 110.387 442.318 110.287 442.119 110.089C441.92 109.891 441.721 109.295 441.92 107.907C442.02 107.213 442.02 106.518 441.92 105.923C441.92 105.625 441.92 105.427 441.92 105.13C441.92 103.146 441.821 101.856 440.926 100.964C440.031 100.071 438.639 100.071 436.551 100.17C435.955 100.17 435.16 100.17 434.364 100.567C433.469 100.964 432.376 100.864 431.282 100.666C431.083 100.666 430.884 100.666 430.686 100.567C430.686 100.567 430.686 100.468 430.586 100.468C430.189 99.9717 429.691 99.3765 428.797 99.5749C428.598 99.5749 428.001 99.7733 427.802 100.468C427.703 100.666 427.703 100.765 427.703 100.765C427.604 100.765 427.405 100.765 427.305 100.666C427.106 100.666 426.808 100.567 426.609 100.567C426.013 100.567 425.416 100.468 424.82 100.368C423.726 100.17 422.632 99.9716 421.539 100.269C421.241 100.368 420.942 100.368 420.843 100.368C420.644 100.368 420.644 100.368 420.644 100.368C420.545 100.17 420.545 99.4757 420.545 98.9798C420.545 98.0871 420.545 97.2935 420.644 96.4008C420.644 94.8138 420.743 93.2268 420.644 91.6397V91.4413C420.644 90.3502 420.545 87.7713 417.661 87.7713C417.661 87.7713 417.661 87.7713 417.562 87.7713C413.685 87.8705 409.708 87.5729 405.93 87.3745C400.859 87.077 395.59 86.7794 390.42 87.1762C388.133 87.2754 387.139 88.3664 387.238 90.5486C387.338 92.4332 387.238 94.3178 387.238 96.3016C387.238 96.4008 387.238 96.5992 387.238 96.6984C385.051 97.3927 385.051 99.4757 385.051 100.666V106.419C385.051 111.577 385.051 116.735 385.051 121.893C385.051 123.777 384.952 125.761 384.952 127.646C384.852 130.026 384.852 132.506 384.852 134.886C384.156 134.688 383.56 134.688 382.963 134.886C382.765 134.986 382.665 135.085 382.466 135.184C382.367 134.391 381.77 133.895 381.472 133.498C381.273 133.299 381.074 133.101 380.975 133.002C380.876 132.506 380.577 132.109 380.08 132.01C379.583 131.911 379.086 132.208 378.887 132.605C378.788 132.803 378.589 133.101 378.489 133.299C378.092 133.994 377.595 134.886 377.694 135.779C377.893 137.267 377.296 138.556 376.6 140.044C376.501 138.358 376.501 136.672 376.7 135.085C376.799 133.399 375.805 132.308 375.01 131.415C374.015 130.423 373.717 129.927 374.015 129.034C374.214 128.439 373.817 127.844 373.22 127.646C373.121 127.646 373.121 127.646 373.021 127.546C370.933 126.257 368.746 126.059 366.957 127.05C365.167 128.042 363.974 130.125 363.874 132.704L363.775 134.49C363.676 137.664 363.477 140.639 362.88 143.516C362.88 143.218 362.781 143.02 362.781 142.722C362.681 142.326 362.781 141.83 362.781 141.235C362.88 139.747 363.179 137.465 360.594 136.275C360.594 136.176 360.594 135.978 360.693 135.878C360.792 135.085 360.892 133.994 360.196 133.2C359.5 132.407 358.406 132.208 357.412 132.208C356.219 132.208 355.125 132.208 354.032 132.308L352.938 132.407C352.739 132.407 352.64 132.407 352.64 132.407C352.64 132.308 352.64 132.308 352.64 132.109C352.839 130.423 351.845 129.431 351.248 128.737C350.95 128.439 350.751 128.241 350.552 127.943C349.458 126.257 348.067 126.455 347.371 126.654C347.271 126.654 346.973 126.753 346.973 126.753C346.376 126.356 345.78 126.059 345.183 125.959C345.183 125.662 345.084 125.265 344.885 124.967C344.885 124.967 344.786 124.868 344.786 124.769C345.283 124.571 345.581 124.174 345.68 123.678C345.68 123.48 345.68 123.281 345.78 123.083C345.78 123.083 345.78 123.083 345.78 122.984C346.178 122.587 346.078 122.091 346.178 121.793C346.277 120.802 346.178 119.81 346.078 118.917C346.078 118.619 346.078 118.223 345.979 117.925V117.627C345.979 117.131 345.979 116.437 345.68 115.842C345.581 115.445 345.183 114.553 343.99 114.453C343.791 114.453 343.394 114.354 342.996 114.453C342.996 114.255 342.996 114.057 342.996 113.957C342.996 113.759 343.095 113.263 342.797 112.866C342.797 112.866 342.797 112.668 342.797 112.569V112.37C342.797 111.775 342.797 111.279 342.797 110.684C342.797 110.387 342.698 109.494 341.803 108.998C341.704 108.998 341.704 108.899 341.604 108.899V108.601C341.604 108.502 341.604 108.304 341.604 108.105C341.505 107.609 341.306 106.816 340.709 106.221C340.61 106.121 340.51 106.022 340.51 106.022L340.411 105.923L340.113 103.84C340.113 103.741 340.013 103.542 340.013 103.443C340.013 103.443 340.013 103.245 340.013 103.146C340.013 102.947 340.013 102.749 339.914 102.551C339.815 102.055 339.815 101.658 339.815 101.162C339.815 100.964 339.815 100.864 339.815 100.666C339.815 100.567 339.914 100.468 339.914 100.368V100.071C339.914 99.9717 339.914 99.7733 339.815 99.6741V99.5749C339.815 99.5749 339.815 99.5749 339.914 99.4757C340.013 99.4757 340.013 99.3765 340.113 99.2773C340.312 99.1781 340.411 99.0789 340.61 98.9798C340.908 98.6822 341.008 98.0871 340.809 97.6903V97.4919C340.809 97.3927 340.809 97.1943 340.809 97.0952C340.809 96.996 340.809 96.8968 340.809 96.7976C340.809 96.6984 340.809 96.5992 340.809 96.5C340.809 96.3016 340.809 95.9049 340.709 95.6073C340.511 94.913 340.511 94.3178 340.709 93.8219C340.809 93.5243 340.809 93.3259 340.809 93.1276C341.405 92.5324 341.405 91.9373 341.405 91.5405C341.405 91.3421 341.405 91.0446 341.306 90.747C341.704 90.3503 342.201 89.6559 341.803 88.5648C341.604 87.8705 341.505 87.4737 341.604 87.077C341.803 86.4818 341.803 85.7875 341.604 85.0932C341.505 84.7956 341.405 84.3988 341.405 84.0021C341.405 83.407 341.306 82.8118 341.306 82.3159C341.306 81.8199 341.206 81.2248 341.206 80.7288C341.206 80.3321 341.107 80.0345 341.107 79.6377C341.505 79.5386 342.499 79.3402 342.897 78.3483C342.897 78.2491 342.996 78.1499 343.095 77.9515C343.195 77.6539 343.394 77.3564 343.493 77.0588C343.593 76.7612 343.692 76.4637 343.791 76.1661C344.189 75.2734 344.189 74.3807 344.189 73.5872C344.487 73.488 344.885 73.3888 345.183 73.1904C346.476 72.2977 347.371 71.2066 347.868 69.9172C348.166 69.1236 348.166 68.4293 347.768 67.8342C347.868 67.735 347.868 67.6358 347.967 67.5366C347.967 67.4374 348.067 67.3382 348.067 67.3382C348.365 66.9415 348.464 66.5447 348.365 66.2471C348.663 65.8504 348.762 65.3544 348.663 64.9577C348.564 64.6601 348.265 64.3625 347.967 64.1641C347.868 64.0649 347.569 63.7674 347.072 63.6682C346.873 63.569 346.675 63.4698 346.376 63.3706C346.178 63.2714 346.078 63.1722 345.879 63.073C345.482 62.8747 345.084 62.6763 344.686 62.4779C344.289 62.2795 343.891 62.0812 343.493 61.8828C343.195 61.7836 342.698 61.486 342.101 61.6844C341.803 61.7836 341.604 62.0811 341.405 62.2795C341.107 62.3787 340.709 62.5771 340.411 63.1722C340.312 63.2714 340.312 63.3706 340.212 63.569C340.013 63.4698 339.914 63.3706 339.715 63.2714L339.616 63.1722C339.218 62.8747 338.92 62.6763 338.82 62.2795C338.721 61.982 338.622 61.7836 338.622 61.486C338.622 61.2876 338.522 61.0893 338.522 60.8909L338.423 60.6925C338.224 59.7998 337.926 58.9071 337.13 58.0144L337.031 57.9152L336.832 57.6176C336.733 57.5184 336.633 57.4192 336.534 57.32C336.434 57.2208 336.335 57.2208 336.235 57.1216C335.937 56.9233 335.738 56.8241 335.341 56.6257C335.241 56.4273 335.042 56.229 334.943 56.0306C334.843 55.9314 334.744 55.8322 334.744 55.733C334.645 55.3362 334.446 54.8403 334.346 54.4435L334.247 54.146C334.545 53.7492 334.645 53.1541 334.346 52.3605C334.247 52.063 334.148 51.7654 334.048 51.2695C334.247 51.0711 334.346 50.7735 334.346 50.4759C334.346 50.1784 334.247 49.8808 334.048 49.6824H334.346C334.446 49.6824 334.545 49.5832 334.645 49.5832C334.744 49.6824 334.943 49.6824 335.142 49.6824L336.235 49.5832C336.335 49.5832 336.434 49.5832 336.534 49.484C336.633 49.484 336.733 49.484 336.832 49.484H337.031C337.528 49.484 338.025 48.9881 338.025 48.4921C338.025 47.9962 337.826 47.2027 336.732 47.1035C336.534 47.1035 336.434 47.1035 336.235 47.1035C336.534 46.9051 336.633 46.6075 336.732 46.31C336.732 45.7148 336.534 45.4172 336.335 45.2189C335.838 44.8221 335.341 44.9213 335.142 44.9213L333.75 45.2189C333.75 45.2189 333.849 45.1197 333.949 45.0205L334.346 44.6238C334.545 44.4254 334.645 44.227 334.744 44.0286C334.843 43.3343 334.545 42.64 333.849 42.5408C333.551 42.4416 333.054 42.6399 332.756 42.8383L332.656 42.9375C332.457 43.0367 332.358 43.1359 332.259 43.2351C332.159 43.3343 332.159 43.4335 332.06 43.4335L331.96 43.5327C331.761 43.6319 331.563 43.8302 331.364 43.9294L330.966 44.227C330.867 44.227 330.668 44.1278 330.568 44.1278C330.568 43.9294 330.568 43.8302 330.568 43.6319L330.469 43.3343C330.469 43.2351 330.469 43.2351 330.37 43.1359C330.37 42.9375 330.37 42.8383 330.37 42.7391C330.37 42.6399 330.37 42.64 330.27 42.5408C330.27 42.4416 330.27 42.3424 330.27 42.2432L330.171 41.9456C330.071 41.5489 329.773 41.2513 329.475 41.1521C329.176 41.0529 328.779 41.0529 328.481 41.1521C328.083 41.2513 327.785 41.6481 327.685 42.144V42.4416C327.685 42.5408 327.685 42.6399 327.685 42.7391C327.685 42.9375 327.685 43.1359 327.685 43.2351C327.685 43.3343 327.685 43.3343 327.586 43.4335C327.586 43.6318 327.486 43.8302 327.486 44.1278H327.387C327.288 44.1278 327.288 44.1278 327.188 44.1278H326.989C326.989 44.1278 326.989 44.1278 326.89 44.1278C326.79 44.0286 326.691 44.0286 326.591 44.0286L326.492 43.9294L326.293 43.731C326.194 43.731 326.194 43.6319 326.094 43.6319C325.995 43.5327 325.896 43.4335 325.796 43.4335L325.697 43.3343L325.597 43.2351H325.498C325.398 43.1359 325.2 43.0367 325.1 43.0367C325.001 43.0367 325.001 42.9375 324.901 42.9375C324.703 42.7391 324.603 42.64 324.305 42.64C323.609 42.5408 323.012 42.8383 322.814 43.5327C322.714 43.9294 322.813 44.4254 323.112 44.7229L323.609 45.2189L323.708 45.3181C323.907 45.4173 324.106 45.6156 324.305 45.814C324.007 45.814 323.609 45.814 323.311 45.814C323.112 45.814 322.913 45.814 322.714 45.814C322.714 45.7148 322.714 45.7148 322.714 45.6157L322.615 44.9213C322.615 44.8221 322.615 44.8221 322.615 44.7229C322.615 44.6237 322.615 44.5246 322.615 44.4254L322.515 44.0286C322.515 44.0286 322.515 44.0286 322.515 43.9294C322.515 43.8302 322.515 43.731 322.515 43.6319L322.416 43.3343C322.416 43.2351 322.416 43.1359 322.416 43.1359L322.316 42.8383C322.316 42.7391 322.316 42.7391 322.217 42.64C322.217 42.5408 322.217 42.5408 322.217 42.4416L322.118 41.9456V41.8464C322.118 41.7472 322.118 41.7472 322.118 41.6481L321.919 41.1521C321.919 41.0529 321.919 41.0529 321.819 40.9537C321.819 40.8545 321.819 40.7554 321.72 40.6562C321.72 40.557 321.72 40.557 321.62 40.4578V40.3586V40.2594C321.62 40.1602 321.62 40.1602 321.62 40.061L321.521 39.7634C321.521 39.6642 321.521 39.6643 321.422 39.5651C321.422 39.4659 321.422 39.3667 321.422 39.3667V38.9699C321.422 38.8707 321.422 38.7715 321.422 38.7715C321.422 38.6723 321.422 38.5732 321.422 38.474C321.422 38.2756 321.422 38.0772 321.422 37.8788C321.422 37.6805 321.422 37.3829 321.422 37.1845C321.422 37.0853 321.422 37.0853 321.422 36.9861C321.521 36.7877 321.62 36.4902 321.521 36.0934V35.9942C321.521 35.895 321.521 35.7959 321.521 35.6967L321.422 35.2007C321.422 35.1015 321.422 35.1015 321.322 35.0023C321.322 34.9031 321.322 34.8039 321.322 34.8039V34.6056C321.322 34.5064 321.223 34.4072 321.223 34.308C321.123 34.2088 321.123 34.1096 321.024 34.0104C321.024 33.9112 321.024 33.7129 320.925 33.6137L320.726 33.1177C320.626 33.0185 320.626 32.9193 320.527 32.8201C320.626 32.721 320.626 32.6218 320.626 32.6218V32.5226H320.726C320.825 32.5226 320.925 32.5226 320.925 32.4234C321.024 32.4234 321.024 32.4234 321.123 32.3242C321.322 32.225 321.919 32.0266 322.217 31.4315V31.3323C322.515 30.8363 322.515 30.2412 322.217 29.6461C322.316 29.4477 322.316 29.2493 322.316 29.1501C322.316 28.9518 322.316 28.4558 321.819 28.059C321.72 27.9599 321.521 27.8607 321.223 27.7615C321.024 27.6623 320.825 27.5631 320.626 27.5631C320.726 27.3647 320.825 27.1663 320.825 26.968V26.8688C320.924 26.5712 320.925 26.2736 320.925 25.9761C320.925 25.8769 320.925 25.7777 320.925 25.5793V25.4801V24.5874C320.925 23.9923 320.527 23.5955 319.93 23.4963C319.831 23.4963 319.731 23.4963 319.632 23.4963H319.533C319.234 23.2979 318.936 23.1988 318.538 23.2979C318.34 23.2979 318.041 23.3971 317.842 23.5955L317.544 23.6947C317.445 23.6947 317.345 23.7939 317.146 23.8931C316.749 23.7939 316.252 23.8931 315.953 24.1907C315.556 24.4882 315.456 24.9841 315.556 25.3809C314.959 25.976 314.86 26.6704 315.059 27.4639C314.959 27.4639 314.86 27.5631 314.76 27.5631C314.462 27.5631 314.064 27.6623 313.667 28.059C313.468 28.1582 313.269 28.4558 313.17 28.6542C313.07 29.051 313.17 29.3485 313.368 29.7453C312.871 30.3404 312.971 31.0347 313.368 31.5307C313.468 31.7291 313.766 32.225 314.363 32.4234C314.462 32.6218 314.462 32.9193 314.661 33.1177C314.562 33.3161 314.562 33.6137 314.661 33.9112C314.661 34.1096 314.76 34.308 314.86 34.5064C314.959 34.9031 315.059 35.1015 314.959 35.2999C314.86 35.7958 314.959 36.1926 315.059 36.2918L315.158 36.4902C315.257 36.7877 315.357 37.0853 315.655 37.4821C315.357 38.0772 315.456 38.7715 315.854 39.2675C315.953 39.3667 315.953 39.565 315.953 39.7634C315.953 40.3586 315.953 40.9537 315.953 41.5489C315.953 41.9456 315.953 42.3424 315.953 42.7391C315.953 44.0286 316.053 45.1197 316.351 46.1116C316.55 46.8059 316.848 47.6986 316.948 48.4921C316.948 48.6905 316.948 48.7897 316.848 48.8889C316.152 49.8808 315.556 50.9719 315.059 52.3605C314.661 53.5508 314.661 54.6419 315.158 55.8322C315.357 56.3281 315.655 56.9233 316.351 57.32C316.351 57.4192 316.252 57.5184 316.252 57.6176C316.152 58.1135 316.053 59.0063 317.047 59.403C317.147 59.6014 317.345 59.7006 317.445 59.7998C317.246 60.3949 317.246 60.99 317.445 61.5852C317.147 61.9819 316.948 62.4779 317.047 62.8747C317.047 63.4698 317.345 63.9658 317.842 64.4617C318.041 64.8585 318.34 65.156 318.638 65.5528C318.638 65.8503 318.737 66.1479 318.837 66.4455C318.737 66.6439 318.638 66.8422 318.638 67.0406C318.538 67.3382 318.439 67.5366 318.34 67.735C317.842 68.4293 317.544 69.1236 317.345 69.818C317.146 70.4131 317.147 71.0082 317.047 71.6034V71.9009C316.948 72.4961 316.948 73.2896 317.345 74.1823C317.544 74.6783 317.942 74.9758 318.439 75.075C318.538 75.075 318.638 75.1742 318.737 75.1742C318.538 75.571 318.538 75.9677 318.439 76.1661V76.2653C318.439 76.3645 318.34 76.5629 318.34 76.662C318.141 77.2572 317.842 77.8523 317.544 78.2491C317.246 78.745 317.246 79.3402 317.445 79.9353C317.743 80.4313 317.842 80.828 317.842 81.2248C317.842 81.4232 317.842 81.9191 318.141 82.3159V82.415V82.7126C318.141 83.0102 318.24 83.5062 318.439 83.8037V83.9029V84.2005C318.439 84.2997 318.439 84.498 318.439 84.5972C318.34 85.0932 318.439 85.6883 318.837 86.0851V86.1843C318.837 86.4818 318.737 86.8786 318.936 87.3745C318.936 87.4737 318.837 87.5729 318.837 87.6721C318.737 87.9697 318.538 88.4656 318.638 88.9616C318.638 89.0608 318.638 89.0608 318.538 89.16C318.439 89.3584 318.141 89.9535 318.34 90.5486C318.34 90.6478 318.34 90.8462 318.34 91.0446V91.243C318.34 91.4413 318.34 91.7389 318.34 91.9373C318.34 92.4332 318.34 92.9292 318.24 93.4251C318.24 93.5243 318.24 93.7227 318.141 93.8219C318.141 93.9211 318.141 94.1195 318.041 94.1195C317.743 94.913 317.743 95.7065 317.942 96.4008V96.8968C317.942 97.5911 318.041 98.1862 318.041 98.8806C318.041 99.0789 318.041 99.2773 317.942 99.3765C317.544 99.9716 317.445 100.567 317.743 101.261V101.36C317.842 101.658 318.041 102.055 317.942 102.253L317.842 102.451C317.743 102.947 317.644 103.344 317.445 103.642C317.445 103.741 317.345 103.741 317.345 103.84C317.246 104.038 317.147 104.237 317.047 104.435C316.948 104.733 316.55 105.03 316.152 105.328L316.053 105.427C315.854 105.427 315.655 105.427 315.357 105.427C314.363 105.427 313.965 105.824 313.766 106.717C313.667 107.312 313.567 107.808 313.567 108.304C313.368 108.403 313.269 108.502 313.07 108.601C312.374 108.998 312.076 109.791 312.374 110.585C312.573 110.982 312.673 111.279 312.971 111.676C312.971 111.775 312.971 111.974 312.871 112.271C312.772 112.569 312.673 112.767 312.673 113.065C312.673 113.065 312.673 113.164 312.573 113.164C312.474 113.362 312.275 113.66 312.275 114.156C312.275 114.354 312.175 114.553 312.076 114.751C311.579 114.156 310.883 113.957 310.187 114.156C309.392 114.354 308.696 115.247 308.696 116.04V118.52C308.696 118.719 308.696 119.214 308.994 119.611C308.994 119.611 308.994 119.71 308.994 119.909C309.093 121 309.491 121.893 310.386 122.686C310.088 123.083 309.988 123.678 310.187 124.174V124.273C310.286 124.472 310.286 124.67 310.485 124.967C310.485 125.166 310.485 125.364 310.485 125.563C310.485 125.761 310.485 125.959 310.485 126.158V126.257C310.386 126.654 310.286 127.05 310.386 127.546C310.485 128.142 310.485 128.836 310.386 129.729V130.225C310.286 130.919 310.286 131.613 310.386 132.308C310.386 132.407 310.386 132.605 310.386 132.605C310.088 132.903 309.59 133.597 310.187 134.688L310.286 134.886C310.286 134.986 310.386 134.986 310.386 135.085C310.386 135.184 310.386 135.184 310.386 135.283C310.286 135.283 310.088 135.283 309.789 135.283C309.491 135.184 309.093 135.184 308.696 135.283C308.696 133.597 308.696 131.812 308.696 130.125C308.696 130.026 308.696 129.927 308.696 129.729C308.795 128.042 308.199 127.15 306.807 126.951C305.812 126.852 304.719 126.654 303.725 126.555C300.941 126.158 298.157 125.662 295.174 126.158C293.186 126.455 291.993 127.05 291.993 129.629C291.993 132.407 292.092 135.283 292.092 138.061C291.993 137.565 291.794 137.168 291.396 136.87C290.601 136.176 289.507 136.474 289.11 136.573C288.911 136.573 288.414 136.573 288.016 136.473C287.917 135.878 287.718 135.382 287.42 134.986C286.724 134.291 285.729 134.291 285.133 134.391C285.133 134.291 285.232 134.093 285.232 133.994C285.431 133.101 285.63 132.01 285.033 131.117C284.636 130.621 284.039 130.225 283.244 130.125C282.448 130.026 281.753 130.125 281.255 130.522C280.957 130.82 280.758 131.117 280.559 131.514C280.162 131.216 279.466 131.018 278.571 131.117C277.676 131.216 276.682 131.415 276.284 132.208C275.986 132.803 276.086 133.399 276.284 133.895C275.588 134.093 274.992 133.994 274.495 133.696C273.898 133.299 273.6 132.506 273.6 131.613C273.6 129.828 273.6 128.142 273.6 126.356C273.6 125.067 273.6 123.777 273.6 122.488C273.6 121 273.6 119.71 272.407 119.611C271.313 119.512 271.015 119.016 270.418 117.727C270.12 117.131 269.822 116.536 269.424 116.04C268.231 114.553 266.74 114.652 265.646 114.652C265.05 114.652 264.553 114.652 264.155 114.453C264.155 114.453 264.155 114.453 264.056 114.453C264.056 114.453 263.956 114.453 263.956 114.354H263.857C263.857 114.354 263.857 114.354 263.757 114.354C263.658 114.354 263.658 114.354 263.558 114.255C263.161 114.156 262.365 113.957 261.769 114.453C261.471 114.652 261.172 115.148 261.172 115.941C261.172 116.933 260.973 117.429 259.383 117.429C258.786 117.429 258.389 117.925 258.389 118.52C258.389 118.719 258.488 119.016 258.587 119.115C257.991 120.008 257.891 121.099 257.991 122.19C258.289 127.249 257.991 132.308 257.792 137.366C257.593 141.929 257.394 146.69 257.494 151.451C257.494 152.344 256.997 152.84 255.605 153.336C255.207 153.435 254.412 153.137 253.815 152.542C253.915 152.542 253.915 152.443 254.014 152.344C254.312 152.046 254.511 151.65 254.412 151.154C254.312 150.558 253.815 150.063 253.02 149.864C251.827 149.467 250.236 149.467 248.943 149.765C247.353 150.162 247.651 151.749 247.75 152.245C247.75 152.344 247.75 152.443 247.75 152.443C247.353 152.443 246.856 152.542 246.557 152.84C245.861 153.534 246.06 154.427 246.16 155.022C246.16 155.121 246.259 155.32 246.259 155.419C246.16 155.816 246.16 156.212 246.16 156.51C245.961 156.51 245.861 156.51 245.762 156.51C245.762 156.411 245.663 156.212 245.663 155.915C245.563 154.328 244.47 152.84 242.879 152.145C241.686 151.55 240.393 151.65 239.498 152.344C239.3 152.542 239.101 152.641 238.902 152.741C238.902 152.542 238.803 152.344 238.803 152.046C238.703 151.154 238.703 150.162 238.703 149.269C238.703 148.674 238.703 147.98 238.703 147.384C238.703 147.285 238.703 147.285 238.703 147.186C238.703 146.69 238.803 145.996 238.206 145.401C237.908 145.202 237.51 144.905 236.715 145.004C236.516 145.004 236.416 145.004 236.416 145.004C236.416 144.905 236.317 144.607 236.317 144.409C236.317 144.111 236.218 143.814 236.118 143.516C236.118 143.417 236.118 143.318 236.118 143.218C236.118 142.623 236.218 141.235 234.229 140.639H234.13C234.428 138.358 234.627 135.482 231.843 133.299C229.656 131.514 227.966 131.117 226.773 132.01C226.375 132.308 226.275 132.803 226.176 133.101C225.082 133.101 224.088 133.498 223.193 133.795C222.199 134.192 221.304 134.49 220.41 134.291C220.111 133.994 219.614 133.399 218.819 133.795C218.322 134.093 218.123 134.49 218.023 134.787C217.924 135.382 218.222 135.779 218.421 136.077C218.421 136.176 218.521 136.275 218.521 136.374C218.521 136.474 218.62 136.474 218.62 136.573C218.222 139.747 218.222 142.921 218.62 146.095C218.719 146.888 218.819 147.781 218.819 148.575C217.526 148.178 217.526 147.583 217.725 145.996C217.725 145.599 217.825 145.202 217.825 144.805C217.825 142.921 217.626 140.54 215.24 139.052L215.041 138.953C212.555 137.366 211.362 136.473 211.859 133.994C212.058 133.2 211.76 132.506 211.462 131.812C211.263 131.316 211.064 130.919 211.163 130.621V130.522C211.263 130.026 211.462 129.233 210.865 128.637C210.666 128.34 210.169 128.042 209.374 127.943C209.175 127.943 209.076 127.943 208.877 127.844C208.181 127.745 206.988 127.546 206.192 128.538C205.496 129.332 205.596 130.82 206.689 131.911C206.988 132.109 207.087 132.407 207.087 132.704C207.087 132.903 206.988 133.002 206.689 133.101C205.894 133.498 205.198 133.597 204.9 133.299C204.502 133.002 204.303 132.208 204.303 131.117C204.303 130.125 204.403 129.332 204.602 128.637C204.701 128.142 204.602 127.447 204.204 126.951C203.806 126.455 203.21 126.158 202.613 126.158C202.116 126.158 201.619 126.356 201.321 126.753C201.022 127.15 200.824 127.646 200.923 128.142C201.122 128.935 200.923 129.828 200.824 130.72C200.724 131.415 200.625 132.208 200.625 133.101C200.426 133.101 200.326 133.101 200.128 133.2C199.929 133.2 199.73 133.299 199.531 133.299C198.636 130.225 196.151 130.82 195.057 131.018C194.858 131.018 194.659 131.117 194.461 131.117C192.472 131.316 191.08 132.704 190.583 134.886C189.887 138.16 189.987 141.433 189.987 144.508C189.987 145.599 189.987 146.789 189.987 147.88C189.887 150.757 189.688 151.848 187.402 151.947C186.706 151.947 186.209 152.443 185.712 152.741C185.513 152.84 185.314 153.038 185.214 153.137L185.016 153.237C184.618 153.336 183.922 153.633 183.723 153.534C183.723 153.534 183.524 153.336 183.524 152.641C183.425 151.253 183.325 149.864 183.325 148.376C183.226 146.095 183.226 143.615 182.729 141.235C181.536 135.283 182.132 128.935 182.828 122.686L182.928 122.19C183.027 121 183.226 119.512 182.132 118.123C178.951 113.957 174.676 111.279 169.506 110.188C169.406 110.188 169.307 110.089 169.108 110.089C168.512 109.891 167.02 109.494 166.126 110.982C165.728 111.676 165.032 112.271 164.336 112.767C163.938 113.065 163.64 113.362 163.242 113.66L163.044 113.858C160.26 116.338 157.178 119.214 158.47 124.273C159.564 128.538 159.266 132.803 158.967 137.366C158.868 139.35 158.669 141.334 158.669 143.417C158.669 147.384 158.172 147.781 153.897 147.781C152.604 147.781 151.411 147.781 150.119 147.781H147.733C147.633 147.781 147.534 147.781 147.335 147.781C146.639 147.781 145.645 147.682 144.849 148.475C143.756 149.666 142.364 149.864 140.177 149.17C139.878 149.071 139.481 149.17 139.182 149.368C138.884 149.567 138.685 149.864 138.685 150.261C138.685 150.558 135.901 177.836 120.292 182.002C64.2187 197.277 20.2745 105.427 3.96945 65.2552C2.67697 62.1803 2.67697 62.0811 1.78218 62.2795C1.28507 62.3787 0.88739 62.8747 0.88739 63.3706C0.88739 63.569 0.986808 63.8666 1.08623 64.0649C1.18565 64.3625 1.58334 65.2552 1.98102 66.1479C17.2919 103.84 56.5633 186.267 108.163 186.267C112.339 186.267 116.713 185.672 121.088 184.581C136.2 180.514 140.276 157.998 140.972 152.145C142.762 152.542 144.75 152.443 146.639 150.558C146.738 150.459 147.136 150.459 147.434 150.459C147.633 150.459 147.733 150.459 147.931 150.459H150.516C151.809 150.459 153.101 150.459 154.294 150.459C159.464 150.459 161.254 149.467 161.353 143.913C161.353 141.929 161.552 139.945 161.652 138.061C161.95 133.597 162.348 128.935 161.055 124.273C160.061 120.504 162.348 118.421 164.933 116.04L165.131 115.842C165.43 115.544 165.728 115.346 166.026 115.049C166.822 114.453 167.716 113.759 168.412 112.569C168.512 112.569 168.711 112.668 168.81 112.668C169.009 112.668 169.108 112.767 169.307 112.767C174.079 113.759 177.758 116.14 180.74 119.909C181.238 120.603 181.238 121.297 181.039 122.389L180.939 122.885C180.343 129.233 179.647 135.779 180.939 142.028C181.436 144.309 181.436 146.591 181.536 148.872C181.536 150.261 181.635 151.749 181.735 153.237C181.834 154.427 182.232 155.22 182.928 155.716C183.922 156.411 185.115 156.014 186.109 155.716L186.308 155.617C186.805 155.419 187.302 155.121 187.601 154.824C187.7 154.724 187.998 154.526 187.998 154.526C192.572 154.228 192.671 150.856 192.77 148.277C192.77 147.087 192.77 145.996 192.77 144.805C192.77 141.631 192.77 138.656 193.367 135.581C193.566 134.391 194.262 133.696 195.256 133.597C195.554 133.597 195.853 133.498 196.151 133.399C197.443 133.101 197.642 133.101 198.04 134.192C198.537 135.978 200.326 135.779 201.022 135.68C201.42 135.581 201.818 135.581 202.017 135.68C202.414 135.878 202.812 135.779 203.21 135.581C203.409 135.382 203.607 135.085 203.607 134.886C203.806 135.184 204.104 135.382 204.403 135.581C205.099 136.077 206.391 136.374 208.38 135.482C209.274 135.085 209.871 134.291 209.97 133.399C209.97 133.2 209.97 133.101 209.97 132.903V133.002C210.07 133.299 210.269 133.597 210.269 133.795C209.274 137.961 212.158 139.747 214.444 141.135L214.643 141.235C215.836 141.929 216.234 143.02 216.234 145.103C216.234 145.401 216.234 145.698 216.134 146.095C215.936 147.484 215.737 149.864 218.421 150.955C218.421 151.253 218.421 151.749 218.421 152.145C218.421 152.641 218.421 153.137 218.421 153.534C218.521 154.129 218.521 154.724 218.62 155.22L218.719 156.014C218.819 156.609 219.316 157.105 219.912 157.006L220.509 156.907C221.106 156.807 221.503 156.411 221.503 155.816C221.503 154.824 221.503 153.931 221.603 152.939C221.702 150.757 221.702 148.475 221.503 146.194C221.106 143.119 221.106 140.144 221.603 137.168V137.069C222.696 137.069 223.79 136.672 224.685 136.374C225.579 136.077 226.474 135.779 227.27 135.779C227.966 135.878 228.363 135.581 228.562 135.382C228.96 134.986 229.059 134.49 229.059 134.192C229.357 134.291 230.053 134.49 231.048 135.382C232.837 136.87 232.738 138.457 232.44 141.036C232.241 142.524 232.141 144.012 232.539 145.5C232.539 145.599 232.539 145.599 232.539 145.698C232.539 146.095 232.638 147.087 233.831 147.484C234.229 147.583 235.025 147.682 235.621 147.285C235.919 147.484 236.317 147.583 236.814 147.583C236.814 147.682 236.814 147.781 236.814 147.88C236.814 148.475 236.814 149.071 236.814 149.666C236.814 150.658 236.814 151.65 236.914 152.741C237.013 153.832 237.212 155.022 238.206 155.419C239.2 155.816 240.194 155.22 241.089 154.625C241.288 154.427 241.785 154.526 242.183 154.724C242.879 155.022 243.575 155.816 243.674 156.708C243.774 158.097 244.171 159.386 246.458 159.386C247.154 159.386 247.75 159.188 248.148 158.791C248.645 158.196 248.645 157.502 248.645 157.105C248.645 157.006 248.645 156.907 248.645 156.907C248.844 156.411 248.745 155.915 248.645 155.419C248.645 155.419 248.645 155.419 248.745 155.419C249.043 155.518 249.341 155.419 249.639 155.32C249.938 155.121 250.137 154.923 250.137 154.526V154.228C250.137 154.129 250.137 154.03 250.236 153.832C250.435 153.336 250.335 152.84 250.236 152.443C250.634 152.344 250.932 152.344 251.33 152.344C251.33 152.641 251.429 153.038 251.528 153.336C252.523 155.32 254.809 156.51 256.499 155.915C258.786 155.121 259.979 153.733 259.88 151.848C259.681 147.186 259.88 142.524 260.178 137.961C260.377 132.903 260.675 127.745 260.377 122.587C260.278 121.198 260.476 120.901 260.576 120.901C260.576 120.901 260.874 120.702 261.868 120.901C262.365 121 262.862 121 263.36 121C263.558 121 263.757 121 263.956 121C264.354 121 264.652 120.802 264.851 120.504C265.05 120.206 265.149 119.81 265.05 119.512C264.752 118.619 264.652 117.925 264.751 117.231C265.149 117.231 265.547 117.231 265.945 117.231C266.939 117.231 267.436 117.231 268.032 117.826C268.331 118.123 268.53 118.619 268.728 119.016C269.225 120.107 269.921 121.496 271.612 121.992C271.612 122.289 271.612 122.587 271.612 122.785C271.612 124.075 271.612 125.364 271.612 126.654C271.612 128.439 271.612 130.125 271.612 131.911C271.612 133.597 272.308 134.986 273.501 135.779C274.594 136.573 276.085 136.771 277.577 136.176C278.173 135.978 278.67 135.283 278.869 134.886C278.969 134.589 278.969 134.192 278.869 133.895C278.869 133.795 278.77 133.696 278.77 133.696C278.869 133.696 278.969 133.696 279.168 133.696C279.267 133.696 279.366 133.696 279.466 133.696C279.665 133.696 279.764 133.696 279.764 133.696C279.864 133.795 279.863 134.192 279.863 134.49V134.688C279.963 135.283 280.361 135.68 280.659 135.878C280.758 135.878 280.758 135.978 280.858 136.077C281.057 136.275 281.454 136.275 281.753 136.275C282.051 136.275 282.349 136.077 282.548 135.779C282.647 135.68 282.846 135.382 282.946 135.085C283.045 134.688 283.045 134.192 283.045 133.696C283.045 133.399 283.045 132.903 283.144 132.605C283.144 132.605 283.244 132.605 283.343 132.605C283.542 132.605 283.642 132.704 283.642 132.704C283.741 132.903 283.642 133.498 283.542 133.895C283.443 134.49 283.244 135.184 283.343 135.878C283.343 136.176 283.542 136.473 283.84 136.672C284.437 137.069 285.033 136.969 285.63 136.969C285.829 136.969 286.127 136.969 286.326 136.969C286.326 137.069 286.326 137.267 286.326 137.565C286.326 137.961 286.425 138.259 286.724 138.556C287.221 138.953 289.11 139.449 290.104 139.251C290.303 139.251 290.402 139.152 290.502 139.152C290.502 139.35 290.502 139.648 290.502 139.846C290.402 143.02 290.402 145.599 290.502 147.88C290.502 147.98 290.502 148.079 290.502 148.178C290.402 148.674 290.303 149.467 290.8 150.162C291.198 150.658 291.794 150.856 292.49 150.856C293.385 150.856 293.981 150.658 294.379 150.162C294.976 149.467 294.876 148.575 294.777 148.079C294.777 147.98 294.777 147.781 294.777 147.682C294.876 142.028 294.876 135.978 294.777 130.026C294.777 129.034 294.777 129.034 295.97 128.836C298.654 128.439 301.14 128.836 303.923 129.233C305.017 129.431 306.011 129.53 307.105 129.629C307.105 129.729 307.105 129.828 307.105 129.927C307.105 130.125 307.105 130.324 307.105 130.522C307.105 133.498 307.105 136.474 307.105 139.35C307.105 142.127 307.105 144.805 307.105 147.583C307.105 147.682 307.105 147.682 307.105 147.781C307.006 148.178 306.906 149.368 308.199 150.062C308.497 150.261 308.895 150.261 309.193 150.062C309.491 149.963 309.789 149.666 309.789 149.269C309.889 148.674 309.988 148.079 310.088 147.484C310.088 147.285 310.088 147.087 309.988 146.888C310.088 146.591 310.088 146.293 310.088 146.095C310.088 145.996 310.088 145.897 310.088 145.897L310.187 145.797C310.286 145.599 310.286 145.5 310.286 145.301C310.286 144.111 310.286 142.822 310.286 141.631C310.286 140.54 310.286 139.449 310.286 138.358C310.286 138.259 310.286 138.16 310.286 138.061C311.479 138.259 312.275 138.061 312.871 137.565C313.07 137.366 313.269 137.069 313.269 136.771C313.269 136.474 313.269 136.176 313.368 135.978C313.468 135.382 313.269 134.886 313.07 134.589C313.567 133.895 313.468 133.101 313.468 132.803C313.369 132.308 313.468 131.712 313.468 131.117V130.621C313.567 129.629 313.567 128.737 313.368 127.943C313.368 127.844 313.369 127.546 313.468 127.348V127.15C313.567 126.753 313.567 126.356 313.468 125.959C313.468 125.761 313.468 125.563 313.468 125.463C313.567 124.967 313.269 124.472 313.17 124.372C313.567 123.876 313.567 123.38 313.567 123.182C313.468 122.587 313.17 122.091 312.772 121.793C312.275 121.397 311.977 120.901 311.977 120.405C311.977 120.008 311.877 119.611 311.678 119.115V117.33C311.977 117.528 312.275 117.528 312.374 117.627C313.368 117.925 314.263 117.429 314.76 116.536L314.86 116.338C315.059 115.941 315.257 115.544 315.357 114.949C315.456 114.751 315.655 114.453 315.655 114.057C315.655 113.858 315.755 113.759 315.755 113.561C315.854 113.164 315.953 112.767 315.953 112.172C315.953 111.874 315.854 111.478 315.556 111.081L315.456 110.982C316.152 110.684 316.55 110.287 316.55 109.295C316.55 108.899 316.55 108.601 316.55 108.304C316.749 108.304 316.848 108.304 317.047 108.304C317.345 108.304 317.644 108.204 317.842 108.006L318.041 107.808C318.638 107.411 319.433 106.816 319.731 105.824C319.731 105.725 319.831 105.725 319.831 105.625C319.93 105.526 319.93 105.427 320.03 105.229C320.328 104.634 320.427 104.038 320.527 103.542L320.626 103.344C320.825 102.551 320.527 101.856 320.328 101.261V101.162C320.726 100.468 320.726 99.7733 320.726 99.3765C320.726 98.6822 320.726 97.9879 320.626 97.3927V96.8968C320.626 96.6984 320.527 96.4008 320.527 96.2025C320.427 96.1033 320.427 95.9049 320.626 95.5081C320.726 95.2105 320.726 94.913 320.825 94.7146C320.825 94.6154 320.825 94.5162 320.825 94.5162C320.924 93.9211 321.024 93.326 321.024 92.7308C321.024 92.5324 321.024 92.334 321.024 92.1357V91.9373C321.024 91.6397 321.123 91.243 321.024 90.747C321.223 90.2511 321.322 89.7551 321.322 89.3583C321.322 89.2591 321.422 89.16 321.422 89.0608C321.521 88.8624 321.521 88.664 321.62 88.4656C321.72 88.1681 321.819 87.6721 321.521 87.077V86.9778C321.521 86.8786 321.521 86.7794 321.521 86.581C321.521 86.2835 321.521 85.7875 321.123 85.2916C321.123 85.0932 321.123 84.994 321.123 84.7956V84.498C321.123 84.1013 321.223 83.7045 320.925 83.2086C320.925 83.1094 320.825 82.911 320.825 82.7126V82.5142C320.825 82.3159 320.726 81.9191 320.527 81.5223C320.527 80.7288 320.328 80.0345 320.03 79.4394C320.328 78.9434 320.626 78.2491 320.925 77.5547C321.024 77.3564 321.123 77.0588 321.123 76.7612V76.5629C321.123 76.4637 321.123 76.4637 321.123 76.4637C321.521 76.0669 321.72 75.5709 321.62 74.9758C321.521 74.3807 321.024 73.7855 320.427 73.488C320.229 73.3888 319.93 73.2896 319.731 73.2896C319.632 72.992 319.632 72.6945 319.632 72.2977V72.0001C319.632 71.5042 319.731 71.0082 319.831 70.7107C319.93 70.2147 320.129 69.7188 320.427 69.322C320.726 68.9252 320.825 68.5285 321.024 68.2309C321.123 67.9333 321.223 67.735 321.322 67.5366C321.72 67.0406 321.62 66.3463 321.223 65.9496C321.223 65.9496 321.223 65.9495 321.223 65.7512C321.223 65.4536 321.123 64.9577 320.726 64.4617C320.427 64.1641 320.328 63.8666 320.129 63.6682C320.03 63.4698 319.831 63.2714 319.731 63.1722C320.328 62.5771 320.427 61.6844 319.93 60.9901C320.03 60.7917 320.03 60.6925 320.129 60.4941C320.229 60.1966 320.527 59.403 319.632 58.7087C319.533 58.6095 319.433 58.6095 319.433 58.5103C319.433 58.5103 319.433 58.5103 319.334 58.5103C319.334 58.4111 319.234 58.3119 319.036 58.1135C319.433 57.5184 319.234 57.0225 319.135 56.7249C319.035 56.4273 318.737 55.9314 317.942 55.8322C317.743 55.8322 317.743 55.8322 317.544 55.4354C317.246 54.8403 317.246 54.146 317.544 53.5508C317.942 52.4598 318.439 51.4678 319.036 50.6743C319.533 49.98 319.632 49.2857 319.533 48.7897C319.433 47.6986 319.135 46.6075 318.837 45.814C318.638 45.1197 318.538 44.227 318.538 43.2351C318.538 42.8383 318.538 42.3424 318.538 41.9456C318.538 41.3505 318.538 40.8545 318.538 40.2594C318.538 39.6642 318.439 38.9699 318.041 38.474C318.24 37.7796 318.141 37.0853 317.743 36.4902C317.644 36.391 317.644 36.1926 317.544 36.0934V35.9942C317.644 35.2999 317.445 34.7048 317.345 34.308V34.2088C317.544 33.8121 317.644 33.2169 317.047 32.4234C317.047 32.4234 317.047 32.3242 316.948 32.1258C316.848 31.5307 316.55 31.2331 316.252 31.0347C316.351 31.0347 316.451 31.0347 316.55 31.0347C316.848 30.9356 317.147 30.7372 317.246 30.5388C317.544 30.4396 317.842 30.142 317.942 29.8444C317.942 29.8444 317.942 29.8445 317.942 29.7453C317.942 29.9437 317.942 30.142 318.141 30.3404C318.141 30.4396 318.538 31.0347 319.334 31.0347C318.737 31.2331 318.538 31.7291 318.538 31.9274C318.538 32.0266 318.538 32.0266 318.538 32.1258V32.225C318.34 32.4234 318.24 32.6218 318.24 32.8201C318.24 33.0185 318.24 33.2169 318.24 33.4153C318.24 33.5145 318.24 33.6137 318.24 33.812C318.34 34.4072 318.638 34.7048 318.936 34.9031V35.0023C319.036 35.2999 319.135 35.5975 319.234 35.7958C319.234 35.9942 319.234 36.1926 319.334 36.391C319.234 36.5894 319.234 36.7877 319.334 36.9861C319.135 37.4821 319.135 37.8788 319.234 38.1764C319.234 38.2756 319.234 38.3748 319.234 38.474C319.234 38.7715 319.234 39.0691 319.234 39.3667C319.135 39.6642 319.234 39.9618 319.334 40.2594C319.334 40.4578 319.234 40.8545 319.433 41.2513V41.3505C319.433 41.4497 319.433 41.5488 319.533 41.7472C319.533 41.9456 319.533 42.0448 319.632 42.2432C319.632 42.5407 319.731 42.7391 319.831 42.9375C319.831 43.1359 319.93 43.4335 320.03 43.6319C320.03 43.8302 320.03 44.0286 320.129 44.227C320.129 44.4254 320.129 44.6237 320.229 44.7229C320.229 44.9213 320.229 45.0205 320.328 45.2189C320.328 45.4172 320.328 45.7148 320.427 45.9132V46.2108C320.328 46.5083 320.427 46.7067 320.427 46.9051C320.427 47.3019 320.427 47.5994 320.527 47.7978C320.527 47.897 320.527 48.0954 320.527 48.1946C320.626 48.3929 320.726 48.9881 321.223 49.2857C321.322 49.2857 321.322 49.3849 321.422 49.484C321.521 49.5832 321.62 49.6824 321.819 49.7816C321.819 50.0792 321.919 50.3768 322.018 50.5751C322.018 50.6743 322.118 50.8727 322.316 51.0711C322.316 51.0711 322.316 51.1703 322.316 51.2695C322.316 51.4678 322.316 51.567 322.316 51.8646C322.316 52.8565 323.012 53.4516 323.311 53.65C323.609 53.8484 323.907 53.9476 324.205 53.9476C324.504 53.9476 324.802 53.8484 325.1 53.5508C325.498 53.1541 326.094 52.6581 326.094 51.7654C326.094 51.6662 326.094 51.567 326.094 51.4678C326.094 51.2695 326.194 51.0711 326.194 50.8727C326.194 50.6743 326.293 50.3768 326.094 50.0792L325.995 49.8808C325.896 49.6824 325.796 49.484 325.697 49.1865C325.796 48.9881 325.896 48.6905 325.896 48.393V48.2938C326.094 48.1946 326.393 47.9962 326.492 47.897C326.592 47.7978 326.89 47.5994 327.089 47.3019C327.188 47.3019 327.288 47.3019 327.387 47.2027H327.586C327.785 47.2027 327.983 47.2027 328.182 47.1035C328.481 47.1035 328.779 47.1035 329.077 47.0043C329.176 47.1035 329.276 47.1035 329.475 47.1035C329.872 47.2027 330.27 47.3019 330.668 47.3019C330.767 47.3019 330.867 47.4011 330.966 47.3019C331.165 47.5994 331.364 47.7978 331.563 47.9962C331.563 47.9962 331.662 48.0954 331.761 48.1946C331.761 48.2938 331.761 48.4921 331.861 48.6905C331.861 48.7897 331.96 48.9881 332.06 49.1865V49.2857L331.96 49.484C331.861 49.8808 331.563 50.5751 331.761 51.2695C331.662 51.567 331.563 51.8646 331.662 52.2614C331.761 52.7573 331.861 53.3525 332.06 54.0468C331.861 54.3444 331.662 54.7411 331.761 55.4354C331.463 55.5346 331.165 55.733 330.966 56.0306C330.767 56.5265 330.767 56.9233 330.767 57.1216C330.767 57.6176 330.966 57.9152 331.065 58.1135C331.264 58.3119 331.662 58.5103 331.96 58.5103C332.259 58.5103 332.557 58.4111 332.756 58.2127C332.756 58.3119 332.855 58.3119 332.855 58.4111C332.955 58.5103 333.054 58.6095 333.054 58.7087C333.153 59.2046 333.65 59.6014 334.048 59.7006C334.247 59.7998 334.545 59.899 334.744 60.0973C334.843 60.0973 334.843 60.1965 334.943 60.1965C335.042 60.4941 335.241 60.6925 335.44 60.7917C335.738 61.1884 335.937 61.6844 336.037 62.2795L336.136 62.4779C336.136 62.6763 336.235 62.7755 336.235 62.9739C336.335 63.2714 336.434 63.6682 336.534 64.0649C336.832 64.8585 337.428 65.4536 338.224 66.0487C338.323 66.1479 338.423 66.1479 338.522 66.1479C338.621 66.1479 338.621 66.2471 338.721 66.2471C339.019 66.6439 339.417 66.9415 339.914 66.9415C340.411 67.0406 340.908 66.8423 341.306 66.4455C341.505 66.2471 341.902 65.8504 342.201 65.4536C342.399 65.4536 342.698 65.3544 342.897 65.0568C343.095 65.156 343.394 65.2552 343.593 65.4536C343.99 65.652 344.388 65.8503 344.786 66.0487C344.885 66.1479 345.084 66.1479 345.183 66.2471C345.382 66.3463 345.68 66.5447 345.979 66.6439C345.879 66.8423 345.879 67.1398 345.879 67.3382C345.879 67.4374 345.78 67.4374 345.78 67.5366C345.78 67.6358 345.68 67.735 345.68 67.735C345.382 68.0325 345.183 68.4293 345.183 68.8261C345.183 69.2228 345.382 69.7188 345.68 69.9172C345.68 69.9172 345.68 69.9171 345.68 70.1155C345.283 71.0082 344.587 71.9009 343.692 72.4961C343.692 72.4961 343.593 72.4961 343.394 72.4961C342.698 72.4961 341.902 72.7936 341.803 74.0831V74.4799C341.803 75.1742 341.704 75.7694 341.505 76.3645C341.306 76.7613 341.206 77.158 341.107 77.5547C341.107 77.6539 341.008 77.8523 340.908 78.0507C340.809 78.1499 340.809 78.3483 340.709 78.4475C340.709 78.4475 340.61 78.4475 340.51 78.4475H340.312C339.715 78.4475 339.218 78.745 338.92 79.0426C338.622 79.4394 338.522 79.9353 338.622 80.4313L338.721 80.7288C338.82 81.1256 338.82 81.4232 338.92 81.8199C338.92 82.3159 339.019 82.911 339.019 83.4069C339.019 84.0021 339.119 84.498 339.119 85.0932C339.119 85.6883 339.218 86.1843 339.417 86.6802C339.516 86.9778 339.516 87.1762 339.417 87.4737C339.119 88.4656 339.417 89.4575 339.616 90.2511C339.516 90.3503 339.417 90.4494 339.317 90.5486C339.019 90.8462 338.82 91.243 338.82 91.6397C338.82 92.0365 338.92 92.334 339.119 92.6316C339.119 92.6316 339.119 92.6316 339.119 92.7308C338.721 93.1276 338.522 93.6235 338.522 94.2187C338.124 95.2106 338.224 96.3016 338.622 97.3927C338.622 97.3927 338.622 97.5911 338.622 97.6903C338.622 97.8887 338.621 98.087 338.721 98.2854V98.3846C338.721 98.4838 338.721 98.583 338.721 98.6822C337.826 99.3765 337.627 100.17 337.926 101.063C337.926 101.261 337.826 101.36 337.926 101.559V102.154C337.926 102.65 338.025 103.245 338.124 103.741C338.124 103.84 338.124 103.939 338.124 104.038C338.124 104.336 338.124 104.733 338.323 105.13L338.522 107.113C338.621 107.808 339.019 108.204 339.317 108.403L339.417 108.502C339.616 108.7 339.616 108.899 339.715 109.295C339.715 109.395 339.715 109.494 339.715 109.692V109.891C339.715 110.188 339.815 110.486 339.914 110.883C340.113 111.378 340.61 111.577 340.908 111.676C340.908 112.172 340.908 112.668 340.908 113.164V113.362C340.908 113.66 340.908 114.057 341.107 114.453C341.008 114.949 341.107 115.445 341.206 115.941C341.206 116.239 341.405 117.33 342.499 117.826C342.897 118.024 343.294 118.024 343.593 117.727C343.692 117.727 343.791 117.627 343.891 117.528C343.99 117.826 343.99 118.123 343.99 118.52V118.917C343.99 119.314 343.99 119.611 344.09 120.008C344.189 120.901 344.189 121.793 344.189 122.587C343.99 122.884 343.791 123.281 343.791 123.678C343.493 123.876 343.195 124.174 342.996 124.472C342.698 124.967 342.698 125.463 342.897 125.959V126.158C342.897 126.257 342.897 126.356 342.996 126.455C342.797 126.753 342.698 127.05 342.698 127.447V127.943C342.698 128.34 342.797 128.638 343.195 128.935C343.493 129.133 343.891 129.233 344.189 129.133C344.786 128.935 345.382 129.034 345.879 129.431C346.675 130.026 347.47 129.927 347.967 129.828C348.564 129.729 348.564 129.729 348.862 130.125C349.16 130.522 349.458 130.919 349.757 131.216C350.353 131.911 350.651 132.208 350.651 132.803C350.651 133.101 350.453 134.192 351.149 134.886C351.745 135.581 352.64 135.581 353.236 135.581L354.33 135.482C355.424 135.382 356.418 135.382 357.512 135.382C358.506 135.382 358.605 135.581 358.605 135.581C358.605 135.581 358.705 135.779 358.605 136.672C358.506 137.267 358.307 138.656 359.599 139.251C360.892 139.747 360.892 140.441 360.693 142.127C360.594 142.722 360.594 143.417 360.693 144.111C360.792 144.607 360.892 145.202 360.991 145.698C361.29 146.988 361.488 148.079 361.091 149.567C360.991 149.963 361.091 150.459 361.488 150.757C361.886 151.054 362.284 151.054 362.681 150.856C364.471 149.864 364.471 148.674 364.372 147.98C364.372 147.88 364.372 147.781 364.372 147.781C365.763 143.814 365.863 139.648 366.062 135.68L366.161 133.895C366.261 132.01 366.957 130.621 368.05 130.026C369.044 129.53 370.337 129.629 371.729 130.324C371.629 131.911 372.624 133.002 373.419 133.895C374.115 134.688 374.612 135.184 374.513 135.878C374.314 139.251 374.413 142.623 374.91 146.392C375.01 146.988 375.507 147.384 376.103 147.384C376.7 147.384 377.098 146.888 377.197 146.293C377.197 144.905 377.893 143.714 378.489 142.425C379.185 141.135 379.881 139.747 379.981 138.16C380.08 138.656 380.378 139.052 380.577 139.35C380.677 139.548 380.776 139.747 380.876 139.846C380.975 140.342 381.373 140.639 381.87 140.639C382.367 140.639 382.765 140.441 382.963 139.945C383.063 139.648 383.162 139.449 383.262 139.152C383.46 138.755 383.659 138.061 383.858 137.961C383.858 137.961 384.057 137.862 384.753 138.16C385.25 138.358 385.747 138.358 386.145 138.061C386.741 137.664 387.04 136.87 387.04 135.978C387.04 133.498 387.139 131.018 387.139 128.637C387.139 126.753 387.238 124.769 387.238 122.885C387.238 117.727 387.238 112.569 387.238 107.411V101.559C387.238 100.071 387.338 99.7733 388.133 99.5749C388.73 99.4757 389.724 98.9798 389.426 97.3927C389.426 97.2935 389.426 97.2935 389.426 97.2935C389.426 95.2105 389.525 93.3259 389.426 91.3421C389.426 90.4494 389.426 90.3503 390.519 90.2511C395.59 89.9535 400.76 90.251 405.83 90.4494C409.708 90.6478 413.685 90.8462 417.661 90.8462C418.258 90.8462 418.357 90.8462 418.457 92.334V92.5324C418.556 94.0203 418.457 95.6073 418.457 97.0952C418.457 97.9879 418.357 98.7814 418.357 99.7733C418.357 100.864 418.357 102.055 419.252 102.749C419.849 103.245 420.843 103.443 422.036 103.146C422.732 103.047 423.627 103.146 424.521 103.344C425.217 103.443 425.913 103.542 426.709 103.542C426.808 103.542 426.908 103.542 427.007 103.642C427.504 103.741 428.598 103.939 429.393 103.047C429.592 103.245 429.89 103.443 430.288 103.542C430.586 103.542 430.884 103.542 431.183 103.642C432.475 103.741 433.867 103.939 435.259 103.344C435.657 103.146 436.054 103.146 436.651 103.146C437.546 103.146 439.136 103.047 439.435 103.344C439.733 103.642 439.733 105.229 439.733 105.923C439.733 106.221 439.733 106.518 439.733 106.816C439.733 107.411 439.733 107.907 439.733 108.502C439.534 109.692 439.534 111.478 440.628 112.569C441.423 113.362 442.616 113.66 444.207 113.461C444.803 113.362 445.201 112.966 445.201 112.37V103.939C445.201 97.8887 445.201 91.7389 445.201 85.6883C445.201 79.6378 445.4 73.3888 445.499 67.4374C445.698 59.1055 445.897 50.4759 445.698 42.0448V41.8464C445.698 41.648 445.698 41.2513 445.698 41.2513C445.698 41.2513 445.798 41.2513 446.096 41.1521C447.587 41.0529 448.283 39.5651 448.383 38.3748C448.681 36.4902 449.775 36.2918 451.962 35.9942H452.359C453.055 35.895 453.95 35.7959 454.447 35.1015C454.447 35.0023 454.547 35.0023 454.547 34.9031C455.243 36.0934 456.535 36.1926 457.132 36.1926C457.331 36.1926 457.728 36.1926 457.828 36.2918C458.225 36.4902 458.623 36.5894 459.021 36.6886C459.418 36.7878 459.717 36.7877 459.915 36.9861C460.114 37.1845 460.214 37.3829 460.214 37.6805C460.015 37.5813 459.717 37.4821 459.319 37.4821C458.722 37.4821 458.225 37.2837 457.529 37.0853C456.336 36.6886 454.845 36.1926 452.956 36.7877C452.459 36.8869 452.161 37.3829 452.161 37.8788C452.161 38.3748 452.558 38.7715 453.055 38.8707C454.149 39.0691 455.143 39.3667 456.038 39.6643C458.026 40.2594 459.816 40.7553 461.904 40.4578C462.202 40.4578 462.5 40.4578 462.699 40.6562C463.097 40.9537 463.296 41.5489 463.296 42.3424V46.4092C463.296 62.4779 463.296 78.5467 463.296 94.7146C463.296 95.9049 463.395 97.5911 463.892 99.0789C463.892 99.1781 463.892 99.1781 463.892 99.2773C463.892 99.5749 463.892 100.368 464.688 100.666C466.477 101.261 466.477 102.154 466.08 104.237C465.98 104.832 465.881 105.526 465.881 106.121C466.08 112.866 465.98 119.81 465.98 126.455C465.98 128.638 465.98 130.82 465.98 133.002V133.299C465.98 134.391 465.98 135.779 467.372 136.771C467.471 136.87 467.571 136.87 467.571 137.664C467.571 137.862 467.571 138.061 467.571 138.259V140.639C467.571 142.326 467.571 144.012 467.571 145.599C467.571 146.392 467.77 147.186 467.969 147.88C468.366 149.17 468.466 149.765 467.869 150.558C467.372 151.154 467.472 151.848 467.571 152.344C467.571 152.542 467.67 152.641 467.67 152.84C467.67 153.137 467.869 153.534 468.167 153.733C468.466 153.931 468.863 153.931 469.162 153.832C471.448 153.038 471.647 150.856 471.747 149.666C471.747 149.467 471.747 149.368 471.747 149.17C471.945 147.484 471.945 145.698 471.945 143.913C471.945 142.623 471.945 141.334 472.045 140.144C472.343 136.474 472.343 132.803 472.343 129.233C472.343 127.348 472.343 125.364 472.343 123.48V123.38C472.443 123.38 472.542 123.38 472.641 123.38H472.84C473.536 123.38 474.133 123.38 474.829 123.38C476.618 123.38 478.507 123.38 480.396 123.281C480.496 123.281 480.595 123.281 480.595 123.281C480.794 123.281 480.794 123.281 480.893 123.281C480.893 123.38 480.993 123.579 480.893 123.976C480.794 127.546 480.893 131.117 480.893 134.589V137.267C480.893 137.366 480.893 137.565 480.893 137.664C480.893 138.358 480.794 139.251 481.39 139.846C482.683 141.235 482.683 142.722 482.584 144.607C482.584 145.301 482.484 146.095 482.584 146.789C482.584 147.186 482.882 147.583 483.279 147.781C484.373 148.178 485.864 148.575 486.958 147.781C488.052 146.988 488.052 145.5 487.952 144.21C487.952 143.913 487.952 143.516 487.952 143.218C487.952 142.524 487.952 141.83 487.952 141.135C487.952 140.54 487.952 139.846 487.952 139.251C487.952 139.052 487.952 138.755 487.952 138.556C487.853 137.565 487.853 137.565 488.549 137.366C490.338 137.069 490.14 135.184 490.04 134.589C490.04 134.49 490.04 134.291 490.04 134.192C490.04 132.506 489.941 130.72 489.941 129.034C489.841 125.463 489.742 121.694 489.941 118.123C489.941 117.627 489.941 117.132 490.04 116.536C490.14 113.858 490.14 111.081 492.824 109.196C493.719 108.601 494.315 107.609 494.812 106.617C495.21 105.824 495.707 104.931 496.304 104.534C498.292 103.047 500.38 102.551 502.468 103.047C504.556 103.542 506.345 105.13 507.439 107.411C508.035 108.7 508.831 108.899 509.527 108.8H509.626C510.521 108.998 511.018 108.7 511.316 108.403C511.813 108.006 512.012 107.312 511.913 106.518C511.813 105.625 511.813 104.832 511.813 103.84C511.813 102.65 511.813 101.36 511.615 100.17C511.217 97.5911 511.217 95.2105 511.714 93.0284C511.813 92.5324 512.012 91.7389 511.913 90.9454C511.813 90.251 511.714 89.5567 511.714 89.16C512.012 89.16 512.708 89.0608 513.404 89.0608C514.995 89.0608 516.685 88.8624 518.276 88.7632C520.463 88.5648 522.65 88.3664 524.738 88.5648C524.937 88.5648 525.136 88.5648 525.335 88.5648C525.434 88.5648 525.534 88.5648 525.633 88.5648C525.633 88.664 525.534 88.7632 525.534 88.9616C525.136 90.5486 525.335 92.1357 525.633 93.6235C525.832 94.5162 525.931 95.4089 525.931 96.3016C525.832 107.907 525.832 120.405 525.931 134.49C525.931 134.688 525.832 134.986 525.832 135.283C525.633 136.176 525.434 137.267 526.031 138.061C526.428 138.556 527.025 138.854 527.721 138.953C528.317 138.953 528.914 138.755 529.51 138.16C530.505 137.267 531.399 135.581 531.399 133.795C531.3 131.117 531.3 128.439 531.3 125.761C531.3 123.976 531.3 122.19 531.3 120.405C531.3 120.107 531.3 119.611 531.3 119.314C531.399 119.314 531.499 119.314 531.797 119.314C532.891 119.512 533.587 119.214 533.885 118.818C534.283 118.52 534.581 117.826 534.481 116.735C534.581 116.04 534.482 115.148 534.382 114.453C534.283 113.858 534.283 113.065 534.283 112.668C536.37 111.974 538.955 112.271 541.043 112.569C541.54 112.668 541.938 113.66 541.938 114.751C541.839 118.719 541.839 122.984 541.938 128.142C541.938 128.241 541.938 128.34 541.938 128.439C541.839 128.935 541.739 129.729 542.236 130.324C542.535 130.721 543.032 131.018 543.728 131.117C545.02 131.216 545.716 130.522 546.213 129.927L546.313 129.828C546.511 129.629 546.611 129.53 546.81 129.332C547.406 128.737 548.202 128.042 548.102 126.555C548.301 126.555 548.5 126.654 548.699 126.654C549.196 126.654 549.594 126.356 549.792 125.86L551.98 119.314C552.676 121.099 553.272 122.785 553.272 124.67C553.272 126.753 553.272 128.737 553.272 130.919V134.093C553.272 134.589 553.57 134.986 553.968 135.184C554.366 135.382 554.863 135.184 555.161 134.886C556.652 133.101 556.553 131.415 556.454 130.225V129.729C556.255 124.769 556.951 121 558.641 117.727C559.038 116.933 560.132 115.148 561.723 114.751C562.916 114.453 563.91 114.057 564.606 113.164C565.6 114.255 567.39 114.354 568.583 114.255C570.174 114.156 571.267 115.743 572.162 117.429C574.25 121.099 574.151 125.166 574.151 129.431C574.151 130.82 574.051 132.208 574.151 133.597C574.151 133.696 574.151 133.895 574.051 133.994C573.952 134.589 573.753 135.482 574.349 136.275C574.747 136.771 575.344 137.069 576.238 137.069C578.127 137.168 579.221 135.978 579.42 133.597C579.519 132.308 579.519 131.018 579.519 129.729C579.519 129.034 579.519 128.34 579.519 127.646C579.519 126.951 579.519 126.257 579.619 125.463C579.718 124.174 579.718 122.885 579.718 121.496C579.718 121.198 579.818 120.901 579.917 120.802C580.016 120.702 580.116 120.702 580.016 120.702C580.712 121 581.508 120.901 582.104 120.802C583.198 120.702 583.198 120.702 583.297 121.496C583.794 123.876 583.794 126.257 583.695 128.836C583.695 130.72 583.596 132.704 583.894 134.787C583.894 135.184 584.192 135.581 584.59 135.68C584.987 135.878 585.385 135.779 585.683 135.482C586.678 134.589 586.578 133.498 586.479 133.002V132.903C586.379 132.407 586.479 132.208 586.479 132.208C586.479 132.208 586.678 132.109 587.075 132.208C587.473 132.308 588.567 132.506 589.362 131.812C590.157 131.216 590.257 130.225 590.257 129.332C590.257 128.836 590.257 128.34 590.257 127.844C590.257 126.059 590.157 124.472 590.953 122.785C591.052 122.488 591.45 122.19 591.848 121.992C592.345 121.595 593.14 121.099 593.438 120.206L593.538 120.405C594.333 123.182 595.128 125.86 594.432 128.538C594.234 129.233 594.433 129.729 594.532 130.125C594.631 130.423 594.631 130.423 594.631 130.522C594.433 131.216 594.631 131.712 594.83 131.911C595.427 132.605 596.222 132.506 597.017 132.407C597.515 132.308 597.813 132.208 598.012 132.01C598.211 132.407 598.509 132.803 598.906 133.002C599.304 133.2 599.702 133.299 600.099 133.399C600.795 133.498 600.895 133.597 600.994 134.192C601.094 134.688 601.491 135.085 601.989 135.085C602.486 135.184 602.983 134.886 603.182 134.391C603.579 133.498 603.579 132.704 603.579 131.911C603.579 130.621 603.579 130.324 604.573 130.026C605.866 129.629 606.363 129.828 606.462 129.927C606.661 130.125 606.761 130.621 606.761 130.82C606.86 132.704 607.954 133.994 608.849 135.085C609.445 135.779 610.042 136.374 610.24 137.168C610.34 137.565 610.638 137.862 611.135 138.061C611.831 138.259 612.627 138.061 613.124 137.763C613.621 137.465 613.919 137.267 614.118 137.267C614.217 137.465 614.416 137.862 614.615 138.854C614.714 139.35 615.212 139.747 615.808 139.747C616.405 139.648 616.802 139.251 616.802 138.656C616.902 136.275 618.095 136.077 620.481 135.978H620.879C623.066 135.878 624.358 135.779 625.054 134.886C625.85 133.994 625.651 132.605 625.353 130.82C625.154 129.233 625.452 129.233 626.744 128.935C627.241 128.836 627.838 128.737 628.335 128.439C628.335 128.439 628.435 128.439 628.534 128.439C628.733 128.439 629.528 128.439 629.826 127.646C629.926 127.546 629.926 127.348 629.926 127.249C630.721 128.241 632.014 128.638 633.008 128.836C633.406 128.935 633.903 129.233 634.4 129.629C635.295 130.225 636.587 131.117 638.277 130.72C638.476 132.407 639.57 133.597 640.663 134.688C641.757 135.878 642.453 136.87 642.155 138.16C641.658 140.342 642.95 142.227 645.535 143.218C645.634 143.218 645.634 143.218 645.734 143.516C645.833 143.814 646.132 144.409 646.728 144.706C647.026 144.905 647.424 144.905 647.722 144.706C648.021 144.607 648.219 144.309 648.319 144.012V143.913C648.418 143.714 648.418 143.516 648.418 143.218C648.518 139.747 648.617 139.747 651.6 139.449C652.395 139.35 652.992 139.052 653.588 138.854C654.085 138.656 654.483 138.457 654.98 138.358C656.77 138.16 657.167 138.16 657.565 139.152C658.261 140.838 659.852 140.342 660.349 140.243C660.448 140.243 660.647 140.144 660.647 140.144C662.039 140.342 663.331 140.044 664.326 139.251C665.419 138.358 666.115 136.87 666.115 135.184C666.115 134.49 666.115 133.895 666.115 133.2C666.115 131.415 666.016 129.828 666.612 128.241C666.712 128.042 666.712 127.745 666.712 127.546C667.109 127.546 667.408 127.546 667.706 127.447C667.805 127.447 668.004 127.447 668.104 127.348C668.104 127.447 668.104 127.546 668.104 127.646C668.104 127.745 668.104 127.943 668.004 128.042C667.905 128.637 667.805 129.53 668.402 130.225C668.8 130.72 669.496 130.919 670.291 130.919C670.689 130.919 671.086 131.018 671.484 131.018C672.876 131.216 674.864 131.613 676.157 129.133C676.157 129.034 676.256 129.034 676.256 129.034C676.753 129.034 677.35 128.935 677.946 128.836C679.139 128.737 680.432 128.538 681.028 128.935C682.719 130.026 684.409 130.225 686 130.324C686.397 130.324 686.894 130.423 687.292 130.423C687.391 130.423 687.491 130.72 687.491 131.117V131.613C687.491 132.308 687.391 133.101 687.391 133.795C687.391 133.895 687.391 133.895 687.391 133.994C687.292 134.391 687.193 135.085 687.69 135.581C687.988 135.978 688.485 136.176 689.181 136.275C689.479 136.275 690.175 136.374 690.573 135.779C690.672 135.581 690.871 135.382 690.871 135.085C691.169 135.184 691.468 135.184 691.766 135.184C692.959 135.085 694.152 134.291 695.146 132.704L695.246 132.605C695.643 133.002 696.041 133.2 696.439 133.2C697.035 133.2 697.334 132.903 697.632 132.605C698.427 133.299 699.62 134.688 699.421 136.275C699.024 138.755 700.117 140.243 702.404 140.639C702.603 140.639 702.702 140.739 702.702 140.739C702.702 140.838 702.702 140.937 702.702 141.135C702.305 144.012 702.404 146.988 702.404 149.765C702.404 151.65 702.503 153.633 702.305 155.518C702.305 156.311 702.305 157.303 703.001 158.097C703.498 158.593 704.293 158.89 705.287 158.89C706.182 158.89 706.779 158.593 707.276 158.097C707.872 157.403 707.773 156.51 707.773 155.915C707.773 155.816 707.773 155.617 707.773 155.518C707.475 149.269 707.673 144.012 708.17 139.251C708.369 137.465 712.346 133.795 714.434 133.498C715.03 133.399 715.528 133.299 716.124 133.2C716.323 133.101 716.621 133.101 716.82 133.002C718.212 132.704 719.007 132.704 719.405 133.002C719.703 133.299 719.902 134.093 719.902 135.283C720.002 141.83 720.101 147.186 720.002 152.046C719.902 155.022 720.2 157.998 720.399 160.874C720.499 162.66 721.692 163.354 722.587 163.949C723.879 164.743 725.47 164.445 726.365 163.255C727.16 164.346 728.452 164.346 729.347 164.346L739.19 164.247V167.421C739.19 168.016 739.687 168.512 740.284 168.512C740.88 168.512 741.377 168.016 741.377 167.421V163.156C741.675 162.064 741.576 161.767 741.377 161.569ZM209.274 130.522C209.175 130.82 209.175 131.117 209.274 131.415C209.076 131.117 208.877 130.82 208.578 130.621C208.479 130.522 208.38 130.423 208.38 130.324C208.578 130.324 208.777 130.324 208.976 130.423C209.076 130.423 209.175 130.423 209.274 130.423V130.522ZM292.291 148.376V148.277C292.291 148.277 292.291 148.277 292.291 148.178C292.391 148.277 292.391 148.376 292.291 148.376C292.391 148.376 292.391 148.376 292.291 148.376ZM319.632 30.0428C319.433 30.0428 319.234 30.0428 319.135 29.9436L319.234 29.7453C319.334 29.7453 319.433 29.8444 319.533 29.8444C319.632 29.8444 319.632 29.9437 319.632 30.0428C319.632 30.0428 319.632 29.9437 319.632 30.0428ZM317.345 26.7696C317.544 26.5712 317.644 26.3728 317.743 26.1744C317.942 26.0753 318.141 25.9761 318.34 25.7777H318.538C318.538 25.8769 318.538 25.9761 318.538 26.0753C318.538 26.2736 318.538 26.472 318.538 26.5712C318.439 26.6704 318.439 26.7696 318.439 26.8688C317.842 27.2655 317.842 27.9599 317.743 28.2574V28.3566C317.743 28.2574 317.743 28.059 317.743 28.059C317.644 27.3647 317.544 27.0672 317.345 26.7696ZM317.842 29.0509C317.842 28.8526 317.842 28.6542 317.743 28.4558C317.743 28.3566 317.743 28.3566 317.743 28.2574C317.743 28.4558 317.743 28.6542 317.842 28.7534C317.842 28.9518 317.842 28.9518 317.842 29.0509ZM321.422 41.0529C321.422 41.1521 321.422 41.1521 321.422 41.0529C321.422 41.1521 321.422 41.1521 321.422 41.0529C321.422 41.1521 321.422 41.1521 321.422 41.0529ZM321.422 41.1521C321.422 41.2513 321.422 41.3505 321.322 41.4497C321.422 41.4497 321.422 41.3505 321.422 41.1521ZM331.96 55.8322L331.065 56.4273C331.065 56.229 331.165 56.0306 331.264 55.9314C331.463 55.733 331.662 55.6338 331.96 55.6338V55.733V55.8322ZM380.279 136.077C380.279 135.878 380.279 135.68 380.18 135.482C380.18 135.382 380.18 135.283 380.279 135.184C380.378 135.283 380.478 135.382 380.478 135.482C380.378 135.581 380.279 135.878 380.279 136.077Z" fill="black"/>
</svg>
