<svg width="838" height="329" viewBox="0 0 838 329" fill="none" xmlns="http://www.w3.org/2000/svg">
<g id="nyc">
<path id="draw" d="M790.377 236.569C790.178 236.37 789.88 236.271 789.582 236.271L778.546 236.37C777.751 236.37 777.552 236.37 777.452 236.172C777.254 235.874 776.756 234.981 775.762 234.882C774.768 234.882 774.171 235.676 773.873 236.073C773.575 236.569 773.277 236.469 772.978 236.271C772.183 235.775 771.885 235.577 771.785 234.882C771.587 231.907 771.288 229.129 771.388 226.352C771.487 221.492 771.487 216.135 771.288 209.49C771.288 208.002 771.089 206.415 769.896 205.522C768.703 204.629 767.013 204.828 765.522 205.125C765.224 205.225 765.025 205.225 764.726 205.324C764.229 205.423 763.732 205.522 763.335 205.621C760.451 206.018 755.48 210.283 755.182 213.358C754.685 218.218 754.486 223.575 754.784 229.923C754.784 230.121 754.784 230.22 754.784 230.419C754.784 230.617 754.784 230.816 754.784 230.915C754.685 230.915 754.585 230.915 754.486 230.915C754.088 230.915 753.89 230.816 753.89 230.816C753.89 230.816 753.79 230.617 753.79 229.923C753.89 227.939 753.89 225.955 753.89 223.971C753.89 221.194 753.79 218.417 754.188 215.639C754.387 214.449 754.287 212.961 752.001 212.664C751.106 212.565 750.609 212.366 750.907 210.878C751.205 208.795 750.112 206.514 747.825 204.828C747.328 204.431 746.831 204.431 746.532 204.431C746.135 204.53 745.836 204.729 745.538 204.927C745.24 204.629 744.842 204.431 744.246 204.431C743.351 204.431 742.953 205.125 742.456 205.919C741.86 206.812 741.263 207.407 740.666 207.407C740.07 207.407 739.573 206.911 739.076 206.514C738.976 206.415 738.877 206.316 738.678 206.216C738.678 206.216 738.678 206.216 738.678 206.117V205.621C738.777 204.133 737.883 202.745 736.59 202.546C736.093 202.447 735.596 202.447 735.198 202.348C733.707 202.249 732.514 202.05 731.221 201.257C729.929 200.463 728.239 200.662 726.648 200.86C726.151 200.959 725.654 200.959 725.157 200.959C724.361 200.959 723.467 201.654 723.168 202.348C722.671 203.34 722.274 203.241 720.882 203.042C720.385 202.943 719.788 202.844 719.291 202.943C719.291 202.943 719.291 202.943 719.192 202.943C719.192 202.844 719.192 202.745 719.192 202.646C719.192 202.348 719.291 202.05 719.291 201.753C719.291 200.86 718.993 200.166 718.496 199.769C717.8 199.174 716.905 199.273 716.308 199.372C716.109 199.372 715.911 199.472 715.811 199.472C715.413 199.372 714.419 199.075 713.723 199.67C713.127 200.265 713.226 201.059 713.326 201.555C713.326 201.654 713.326 201.654 713.326 201.753C712.63 203.638 712.729 205.621 712.729 207.407C712.729 208.002 712.729 208.597 712.729 209.291C712.729 210.283 712.331 211.176 711.735 211.672C711.238 212.069 710.542 212.267 709.846 212.168C709.349 212.069 708.951 212.168 708.653 212.267C708.553 212.267 708.553 212.267 708.454 212.366C707.36 209.986 705.173 210.184 703.582 210.382C702.787 210.482 702.091 210.779 701.594 211.077C701.097 211.275 700.699 211.473 700.301 211.573C696.722 211.969 695.629 212.862 695.231 215.54C695.231 215.54 695.132 215.54 695.132 215.441C694.237 215.144 692.845 214.35 693.143 212.862C693.74 210.085 691.95 208.299 691.155 207.407C689.962 206.216 689.365 205.522 689.365 204.332C689.365 203.439 688.371 202.745 688.272 202.646C687.874 202.447 687.476 202.447 687.178 202.646C686.283 203.142 685.885 202.943 684.692 202.15C684.096 201.753 683.4 201.257 682.604 201.059C681.312 200.761 680.715 200.463 680.517 199.769C680.417 199.571 680.417 199.372 680.318 199.075L680.218 198.876C680.119 198.48 679.721 198.182 679.423 198.182C679.025 198.083 678.628 198.281 678.329 198.579C678.23 198.678 678.23 198.678 678.131 198.777C678.131 198.777 678.031 198.876 678.131 198.876C678.031 198.876 677.832 198.976 677.733 198.976C677.136 199.174 676.341 199.372 676.142 200.166C676.043 200.364 676.043 200.662 676.142 200.959C675.943 201.059 675.645 201.059 675.446 201.158C674.154 201.455 671.768 201.951 672.265 205.522C672.463 206.911 672.464 207.605 672.364 207.803C672.165 208.002 670.873 208.101 669.779 208.101H669.381C667.89 208.2 665.802 208.299 664.609 209.886C664.41 209.688 664.212 209.589 664.013 209.49C663.018 209.093 662.124 209.589 661.129 210.085C660.732 209.291 660.135 208.597 659.539 207.903C658.743 207.01 658.047 206.216 657.948 205.125C657.948 203.638 657.252 202.844 656.755 202.447C655.86 201.852 654.568 201.753 652.977 202.249C650.79 202.943 650.491 204.431 650.392 205.621C650.094 205.522 649.895 205.522 649.696 205.423C649.497 205.423 649.199 205.324 649.199 205.324C649.099 205.225 649.099 204.828 649.099 204.629C649 203.935 648.901 202.745 647.807 202.447C647.509 202.348 646.713 202.05 646.017 202.646C645.918 202.646 645.918 202.745 645.918 202.745C646.515 199.67 645.719 196.893 644.824 194.115L644.626 193.619C644.228 192.131 642.935 192.032 642.339 192.032C642.239 192.032 642.041 192.032 642.041 192.032C641.643 191.834 641.146 191.834 640.848 192.131C640.45 192.429 640.35 192.826 640.45 193.322C640.549 193.818 640.549 193.917 639.654 194.512C639.058 194.909 638.362 195.405 637.964 196.297C636.97 198.38 637.07 200.364 637.07 202.249C637.07 202.745 637.07 203.241 637.07 203.638C637.07 204.233 636.97 204.431 636.97 204.431C636.97 204.431 636.771 204.431 636.374 204.431C635.777 204.332 635.28 204.332 634.882 204.431C634.882 204.034 634.882 203.638 634.882 203.241C634.882 200.662 634.982 198.083 634.385 195.504C633.789 192.627 631.701 192.925 630.707 193.024C630.408 193.024 630.011 193.123 629.812 193.024C629.116 192.727 628.32 192.826 627.625 193.322C627.127 193.619 626.431 194.413 626.431 195.901C626.431 197.091 626.431 198.38 626.332 199.67C626.332 200.364 626.233 201.158 626.233 201.852C626.233 202.546 626.233 203.34 626.233 204.034C626.233 205.225 626.233 206.415 626.133 207.605C625.934 209.093 625.636 209.192 625.338 209.192C625.238 209.192 625.139 209.192 625.139 209.192C625.139 209.093 625.139 208.895 625.238 208.795C625.338 208.498 625.338 208.2 625.338 207.903C625.238 206.514 625.338 205.125 625.338 203.836C625.437 199.472 625.537 194.909 623.051 190.743C622.156 189.156 620.466 186.18 617.384 186.478C615.793 186.577 615.296 186.279 615.197 186.18C614.998 185.883 614.899 185.188 615.097 184.196C615.495 182.708 614.501 182.213 614.004 182.014C613.407 181.816 612.811 182.113 612.612 182.708C612.512 182.907 612.413 183.006 612.413 183.204C612.115 183.7 611.816 184.395 611.916 185.089C612.115 186.279 611.916 186.577 610.126 187.073C607.74 187.668 606.348 189.949 605.652 191.14C604.956 192.528 604.36 194.115 603.962 195.702C603.465 194.016 602.769 192.33 601.974 190.743L601.775 190.247C601.576 189.85 601.178 189.553 600.681 189.553C600.184 189.553 599.787 189.85 599.687 190.346L597.5 197.091C597.202 196.992 596.903 196.992 596.506 197.091C595.71 197.19 595.114 197.587 594.815 198.083C594.219 198.976 594.617 200.067 594.815 200.662C594.815 200.761 594.915 200.86 594.915 200.959C595.014 201.555 594.915 201.654 594.418 202.15C594.219 202.348 594.02 202.546 593.821 202.745L593.722 202.844C593.523 203.042 593.424 203.241 593.324 203.241C593.324 203.042 593.424 202.745 593.424 202.546C593.324 197.488 593.324 193.223 593.424 189.255C593.424 187.271 592.628 185.089 590.64 184.791C588.254 184.395 585.172 184.196 582.686 185.089C581.095 185.684 581.294 187.47 581.493 189.156C581.592 189.85 581.592 190.544 581.592 191.04C581.592 191.239 581.592 191.437 581.592 191.536C581.592 191.536 581.592 191.536 581.592 191.636C581.592 191.636 581.592 191.636 581.493 191.636C580.499 191.437 579.703 191.536 579.107 192.032C578.212 192.727 578.312 193.818 578.312 194.909C578.312 196.694 578.312 198.38 578.312 200.166C578.312 202.844 578.312 205.522 578.411 208.299C578.411 209.589 577.516 210.779 577.118 211.077C577.118 210.878 577.218 210.382 577.218 210.085C577.317 209.688 577.417 209.192 577.417 208.795C577.317 194.81 577.317 182.312 577.417 170.707C577.417 169.615 577.218 168.624 577.118 167.632C576.92 166.243 576.621 165.053 577.019 163.862C577.218 163.069 577.417 162.077 576.82 161.383C576.224 160.688 575.428 160.688 574.832 160.688C574.633 160.688 574.534 160.688 574.335 160.688C572.048 160.49 569.662 160.688 567.475 160.887C565.983 160.986 564.393 161.184 562.802 161.184C561.012 161.184 560.018 161.184 559.421 161.978C558.726 162.771 558.924 163.664 559.223 165.648C559.223 165.945 559.123 166.441 559.024 166.739C558.427 169.219 558.427 171.897 558.825 174.773C559.024 175.864 559.024 176.955 559.024 178.146C559.024 179.038 559.024 179.931 559.123 180.824C559.024 180.824 558.924 180.824 558.825 180.824C558.825 180.824 558.825 180.725 558.726 180.625C557.334 177.749 555.047 175.666 552.263 175.071C549.579 174.377 546.795 175.071 544.21 176.955C543.216 177.749 542.619 178.84 542.023 179.832C541.625 180.625 541.227 181.32 540.73 181.617C537.052 184.097 537.052 187.767 536.952 190.743C536.952 191.239 536.952 191.735 536.853 192.231C536.555 195.901 536.753 199.67 536.853 203.34C536.952 205.026 536.952 206.712 536.952 208.399C536.952 208.597 536.952 208.795 536.952 208.994C536.952 209.093 536.952 209.391 536.952 209.49C534.566 210.085 534.666 211.969 534.765 212.862C534.765 213.061 534.765 213.259 534.765 213.457C534.765 214.152 534.765 214.747 534.765 215.441C534.765 216.135 534.765 216.83 534.765 217.425C534.765 217.822 534.765 218.119 534.765 218.516C534.765 219.012 534.864 220.004 534.666 220.202C534.666 220.202 534.467 220.301 533.771 220.103C533.771 219.706 533.771 219.309 533.771 218.913C533.87 217.028 533.97 214.648 532.081 212.664C532.081 212.465 532.081 212.267 532.081 212.069C532.081 211.87 532.081 211.672 532.081 211.473V208.795C532.081 205.324 532.081 201.753 532.081 198.182C532.081 197.289 531.981 196.496 531.385 195.802C530.689 195.206 529.794 195.107 529.197 195.206C527.408 195.306 525.519 195.306 523.729 195.306C523.033 195.306 522.437 195.306 521.741 195.306H521.542C520.846 195.306 519.056 195.306 519.056 197.587C519.056 199.571 519.056 201.455 519.056 203.439C519.056 207.01 519.056 210.581 518.758 214.152C518.758 214.648 518.659 215.243 518.659 215.739C518.659 215.441 518.659 215.044 518.659 214.747V212.267C518.659 212.069 518.659 211.969 518.659 211.771C518.659 211.077 518.758 209.787 517.466 208.895C517.068 208.597 516.969 208.299 517.068 207.308V207.01C517.068 204.828 517.068 202.646 517.068 200.463C517.068 193.818 517.167 186.874 516.969 180.03C516.969 179.634 517.068 179.038 517.167 178.542C517.466 176.856 517.863 174.178 514.98 172.789C514.98 172.69 514.98 172.591 514.881 172.492C514.582 171.5 514.384 170.31 514.384 168.723C514.384 152.654 514.384 136.585 514.384 120.417V116.35C514.384 114.863 513.887 113.672 513.091 112.978C512.594 112.581 511.998 112.284 511.302 112.284C511.5 111.193 511.202 110.201 510.506 109.506C509.81 108.812 509.015 108.614 508.418 108.514C508.22 108.514 507.921 108.415 507.822 108.415C507.225 108.118 506.629 108.118 506.132 108.118C505.336 108.118 505.336 108.118 505.237 107.622C504.839 105.836 504.939 103.853 504.939 101.968C504.939 101.174 504.939 100.282 504.939 99.4882C504.939 98.0996 504.839 96.7109 504.839 95.3223C504.74 90.7595 504.64 85.9984 504.74 81.3365C504.74 80.4438 504.74 79.5511 504.74 78.46V76.5754C504.74 76.0794 504.442 75.6827 503.944 75.4843C503.447 75.3851 502.95 75.5835 502.652 75.9802C501.359 78.1624 501.558 80.1462 501.757 81.634C501.857 82.2292 501.857 82.8243 501.857 83.3203C501.757 84.8081 501.757 86.296 501.857 87.7838C501.956 89.6684 501.956 91.4538 501.757 93.2393C501.558 94.6279 501.558 95.9174 501.558 97.2069C501.558 98.7939 501.558 100.183 501.26 101.67C500.962 103.059 501.161 105.043 501.459 106.729L501.558 107.423C501.558 107.622 501.558 107.721 501.558 107.82C501.459 107.82 501.359 107.919 501.061 107.919H500.664C498.675 108.118 495.593 108.415 495.096 112.185C494.996 112.581 494.798 112.978 494.798 113.077C492.312 113.276 492.412 115.16 492.412 116.053V116.152C492.61 124.583 492.412 133.114 492.213 141.446C492.014 147.496 491.914 153.646 491.914 159.796C491.914 165.945 491.914 171.996 491.914 178.047V185.387C491.517 185.387 491.318 185.287 491.119 185.089C490.92 184.891 490.721 184.295 490.92 182.907C491.02 182.213 491.02 181.518 490.92 180.923C490.92 180.625 490.92 180.427 490.92 180.13C490.92 178.146 490.821 176.856 489.926 175.964C489.031 175.071 487.639 175.071 485.551 175.17C484.955 175.17 484.16 175.17 483.364 175.567C482.469 175.964 481.376 175.864 480.282 175.666C480.083 175.666 479.884 175.666 479.686 175.567C479.686 175.567 479.686 175.468 479.586 175.468C479.189 174.972 478.691 174.377 477.797 174.575C477.598 174.575 477.001 174.773 476.802 175.468C476.703 175.666 476.703 175.765 476.703 175.765C476.604 175.765 476.405 175.765 476.305 175.666C476.106 175.666 475.808 175.567 475.609 175.567C475.013 175.567 474.416 175.468 473.82 175.368C472.726 175.17 471.632 174.972 470.539 175.269C470.241 175.368 469.942 175.368 469.843 175.368C469.644 175.368 469.644 175.368 469.644 175.368C469.545 175.17 469.545 174.476 469.545 173.98C469.545 173.087 469.545 172.294 469.644 171.401C469.644 169.814 469.743 168.227 469.644 166.64V166.441C469.644 165.35 469.545 162.771 466.661 162.771C466.661 162.771 466.661 162.771 466.562 162.771C462.685 162.871 458.708 162.573 454.93 162.375C449.859 162.077 444.59 161.779 439.42 162.176C437.133 162.275 436.139 163.366 436.238 165.549C436.338 167.433 436.238 169.318 436.238 171.302C436.238 171.401 436.238 171.599 436.238 171.698C434.051 172.393 434.051 174.476 434.051 175.666V181.419C434.051 186.577 434.051 191.735 434.051 196.893C434.051 198.777 433.952 200.761 433.952 202.646C433.852 205.026 433.852 207.506 433.852 209.886C433.156 209.688 432.56 209.688 431.963 209.886C431.765 209.986 431.665 210.085 431.466 210.184C431.367 209.391 430.77 208.895 430.472 208.498C430.273 208.299 430.074 208.101 429.975 208.002C429.876 207.506 429.577 207.109 429.08 207.01C428.583 206.911 428.086 207.208 427.887 207.605C427.788 207.803 427.589 208.101 427.489 208.299C427.092 208.994 426.595 209.886 426.694 210.779C426.893 212.267 426.296 213.556 425.6 215.044C425.501 213.358 425.501 211.672 425.7 210.085C425.799 208.399 424.805 207.308 424.01 206.415C423.015 205.423 422.717 204.927 423.015 204.034C423.214 203.439 422.817 202.844 422.22 202.646C422.121 202.646 422.121 202.646 422.021 202.546C419.933 201.257 417.746 201.059 415.957 202.05C414.167 203.042 412.974 205.125 412.874 207.704L412.775 209.49C412.676 212.664 412.477 215.639 411.88 218.516C411.88 218.218 411.781 218.02 411.781 217.722C411.681 217.326 411.781 216.83 411.781 216.235C411.88 214.747 412.179 212.465 409.594 211.275C409.594 211.176 409.594 210.978 409.693 210.878C409.792 210.085 409.892 208.994 409.196 208.2C408.5 207.407 407.406 207.208 406.412 207.208C405.219 207.208 404.125 207.208 403.032 207.308L401.938 207.407C401.739 207.407 401.64 207.407 401.64 207.407C401.64 207.308 401.64 207.308 401.64 207.109C401.839 205.423 400.845 204.431 400.248 203.737C399.95 203.439 399.751 203.241 399.552 202.943C398.458 201.257 397.067 201.455 396.371 201.654C396.271 201.654 395.973 201.753 395.973 201.753C395.376 201.356 394.78 201.059 394.183 200.959C394.183 200.662 394.084 200.265 393.885 199.967C393.885 199.967 393.786 199.868 393.786 199.769C394.283 199.571 394.581 199.174 394.68 198.678C394.68 198.48 394.68 198.281 394.78 198.083C394.78 198.083 394.78 198.083 394.78 197.984C395.178 197.587 395.078 197.091 395.178 196.793C395.277 195.802 395.178 194.81 395.078 193.917C395.078 193.619 395.078 193.223 394.979 192.925V192.627C394.979 192.131 394.979 191.437 394.68 190.842C394.581 190.445 394.183 189.553 392.99 189.453C392.791 189.453 392.394 189.354 391.996 189.453C391.996 189.255 391.996 189.057 391.996 188.957C391.996 188.759 392.095 188.263 391.797 187.866C391.797 187.866 391.797 187.668 391.797 187.569V187.37C391.797 186.775 391.797 186.279 391.797 185.684C391.797 185.387 391.698 184.494 390.803 183.998C390.704 183.998 390.704 183.899 390.604 183.899V183.601C390.604 183.502 390.604 183.304 390.604 183.105C390.505 182.609 390.306 181.816 389.709 181.221C389.61 181.121 389.51 181.022 389.51 181.022L389.411 180.923L389.113 178.84C389.113 178.741 389.013 178.542 389.013 178.443C389.013 178.443 389.013 178.245 389.013 178.146C389.013 177.947 389.013 177.749 388.914 177.551C388.815 177.055 388.815 176.658 388.815 176.162C388.815 175.964 388.815 175.864 388.815 175.666C388.815 175.567 388.914 175.468 388.914 175.368V175.071C388.914 174.972 388.914 174.773 388.815 174.674V174.575C388.815 174.575 388.815 174.575 388.914 174.476C389.013 174.476 389.013 174.377 389.113 174.277C389.312 174.178 389.411 174.079 389.61 173.98C389.908 173.682 390.008 173.087 389.809 172.69V172.492C389.809 172.393 389.809 172.194 389.809 172.095C389.809 171.996 389.809 171.897 389.809 171.798C389.809 171.698 389.809 171.599 389.809 171.5C389.809 171.302 389.809 170.905 389.709 170.607C389.51 169.913 389.51 169.318 389.709 168.822C389.809 168.524 389.809 168.326 389.809 168.128C390.405 167.532 390.405 166.937 390.405 166.541C390.405 166.342 390.405 166.045 390.306 165.747C390.704 165.35 391.201 164.656 390.803 163.565C390.604 162.87 390.505 162.474 390.604 162.077C390.803 161.482 390.803 160.788 390.604 160.093C390.505 159.796 390.405 159.399 390.405 159.002C390.405 158.407 390.306 157.812 390.306 157.316C390.306 156.82 390.206 156.225 390.206 155.729C390.206 155.332 390.107 155.035 390.107 154.638C390.505 154.539 391.499 154.34 391.897 153.348C391.897 153.249 391.996 153.15 392.095 152.952C392.195 152.654 392.394 152.356 392.493 152.059C392.593 151.761 392.692 151.464 392.791 151.166C393.189 150.273 393.189 149.381 393.189 148.587C393.487 148.488 393.885 148.389 394.183 148.19C395.476 147.298 396.371 146.207 396.868 144.917C397.166 144.124 397.166 143.429 396.768 142.834C396.868 142.735 396.868 142.636 396.967 142.537C396.967 142.437 397.067 142.338 397.067 142.338C397.365 141.941 397.464 141.545 397.365 141.247C397.663 140.85 397.762 140.354 397.663 139.958C397.564 139.66 397.265 139.363 396.967 139.164C396.868 139.065 396.569 138.767 396.072 138.668C395.873 138.569 395.675 138.47 395.376 138.371C395.178 138.271 395.078 138.172 394.879 138.073C394.482 137.875 394.084 137.676 393.686 137.478C393.289 137.28 392.891 137.081 392.493 136.883C392.195 136.784 391.698 136.486 391.101 136.684C390.803 136.784 390.604 137.081 390.405 137.28C390.107 137.379 389.709 137.577 389.411 138.172C389.312 138.271 389.312 138.371 389.212 138.569C389.013 138.47 388.914 138.371 388.715 138.271L388.616 138.172C388.218 137.875 387.92 137.676 387.82 137.28C387.721 136.982 387.622 136.784 387.622 136.486C387.622 136.288 387.522 136.089 387.522 135.891L387.423 135.692C387.224 134.8 386.926 133.907 386.13 133.014L386.031 132.915L385.832 132.618C385.733 132.518 385.633 132.419 385.534 132.32C385.434 132.221 385.335 132.221 385.235 132.122C384.937 131.923 384.738 131.824 384.341 131.626C384.241 131.427 384.042 131.229 383.943 131.031C383.843 130.931 383.744 130.832 383.744 130.733C383.645 130.336 383.446 129.84 383.346 129.444L383.247 129.146C383.545 128.749 383.645 128.154 383.346 127.361C383.247 127.063 383.148 126.765 383.048 126.269C383.247 126.071 383.346 125.774 383.346 125.476C383.346 125.178 383.247 124.881 383.048 124.682H383.346C383.446 124.682 383.545 124.583 383.645 124.583C383.744 124.682 383.943 124.682 384.142 124.682L385.235 124.583C385.335 124.583 385.434 124.583 385.534 124.484C385.633 124.484 385.733 124.484 385.832 124.484H386.031C386.528 124.484 387.025 123.988 387.025 123.492C387.025 122.996 386.826 122.203 385.732 122.103C385.534 122.103 385.434 122.103 385.235 122.103C385.534 121.905 385.633 121.608 385.732 121.31C385.732 120.715 385.534 120.417 385.335 120.219C384.838 119.822 384.341 119.921 384.142 119.921L382.75 120.219C382.75 120.219 382.849 120.12 382.949 120.021L383.346 119.624C383.545 119.425 383.645 119.227 383.744 119.029C383.843 118.334 383.545 117.64 382.849 117.541C382.551 117.442 382.054 117.64 381.756 117.838L381.656 117.938C381.457 118.037 381.358 118.136 381.259 118.235C381.159 118.334 381.159 118.433 381.06 118.433L380.96 118.533C380.761 118.632 380.563 118.83 380.364 118.929L379.966 119.227C379.867 119.227 379.668 119.128 379.568 119.128C379.568 118.929 379.568 118.83 379.568 118.632L379.469 118.334C379.469 118.235 379.469 118.235 379.37 118.136C379.37 117.938 379.37 117.838 379.37 117.739C379.37 117.64 379.37 117.64 379.27 117.541C379.27 117.442 379.27 117.342 379.27 117.243L379.171 116.946C379.071 116.549 378.773 116.251 378.475 116.152C378.176 116.053 377.779 116.053 377.481 116.152C377.083 116.251 376.785 116.648 376.685 117.144V117.442C376.685 117.541 376.685 117.64 376.685 117.739C376.685 117.938 376.685 118.136 376.685 118.235C376.685 118.334 376.685 118.334 376.586 118.433C376.586 118.632 376.486 118.83 376.486 119.128H376.387C376.287 119.128 376.287 119.128 376.188 119.128H375.989C375.989 119.128 375.989 119.128 375.89 119.128C375.79 119.029 375.691 119.029 375.592 119.029L375.492 118.929L375.293 118.731C375.194 118.731 375.194 118.632 375.094 118.632C374.995 118.533 374.896 118.433 374.796 118.433L374.697 118.334L374.597 118.235H374.498C374.398 118.136 374.2 118.037 374.1 118.037C374.001 118.037 374.001 117.938 373.901 117.938C373.703 117.739 373.603 117.64 373.305 117.64C372.609 117.541 372.012 117.838 371.814 118.533C371.714 118.929 371.813 119.425 372.112 119.723L372.609 120.219L372.708 120.318C372.907 120.417 373.106 120.616 373.305 120.814C373.007 120.814 372.609 120.814 372.311 120.814C372.112 120.814 371.913 120.814 371.714 120.814C371.714 120.715 371.714 120.715 371.714 120.616L371.615 119.921C371.615 119.822 371.615 119.822 371.615 119.723C371.615 119.624 371.615 119.525 371.615 119.425L371.515 119.029C371.515 119.029 371.515 119.029 371.515 118.929C371.515 118.83 371.515 118.731 371.515 118.632L371.416 118.334C371.416 118.235 371.416 118.136 371.416 118.136L371.316 117.838C371.316 117.739 371.316 117.739 371.217 117.64C371.217 117.541 371.217 117.541 371.217 117.442L371.118 116.946V116.846C371.118 116.747 371.118 116.747 371.118 116.648L370.919 116.152C370.919 116.053 370.919 116.053 370.819 115.954C370.819 115.855 370.819 115.755 370.72 115.656C370.72 115.557 370.72 115.557 370.62 115.458V115.359V115.259C370.62 115.16 370.62 115.16 370.62 115.061L370.521 114.763C370.521 114.664 370.521 114.664 370.422 114.565C370.422 114.466 370.422 114.367 370.422 114.367V113.97C370.422 113.871 370.422 113.772 370.422 113.772C370.422 113.672 370.422 113.573 370.422 113.474C370.422 113.276 370.422 113.077 370.422 112.879C370.422 112.68 370.422 112.383 370.422 112.185C370.422 112.085 370.422 112.085 370.422 111.986C370.521 111.788 370.62 111.49 370.521 111.093V110.994C370.521 110.895 370.521 110.796 370.521 110.697L370.422 110.201C370.422 110.102 370.422 110.102 370.322 110.002C370.322 109.903 370.322 109.804 370.322 109.804V109.606C370.322 109.506 370.223 109.407 370.223 109.308C370.123 109.209 370.123 109.11 370.024 109.01C370.024 108.911 370.024 108.713 369.925 108.614L369.726 108.118C369.626 108.019 369.626 107.919 369.527 107.82C369.626 107.721 369.626 107.622 369.626 107.622V107.523H369.726C369.825 107.523 369.925 107.523 369.925 107.423C370.024 107.423 370.024 107.423 370.123 107.324C370.322 107.225 370.919 107.027 371.217 106.431V106.332C371.515 105.836 371.515 105.241 371.217 104.646C371.316 104.448 371.316 104.249 371.316 104.15C371.316 103.952 371.316 103.456 370.819 103.059C370.72 102.96 370.521 102.861 370.223 102.761C370.024 102.662 369.825 102.563 369.626 102.563C369.726 102.365 369.825 102.166 369.825 101.968V101.869C369.924 101.571 369.925 101.274 369.925 100.976C369.925 100.877 369.925 100.778 369.925 100.579V100.48V99.5874C369.925 98.9923 369.527 98.5955 368.93 98.4963C368.831 98.4963 368.731 98.4963 368.632 98.4963H368.533C368.234 98.2979 367.936 98.1988 367.538 98.2979C367.34 98.2979 367.041 98.3971 366.842 98.5955L366.544 98.6947C366.445 98.6947 366.345 98.7939 366.146 98.8931C365.749 98.7939 365.252 98.8931 364.953 99.1907C364.556 99.4882 364.456 99.9842 364.556 100.381C363.959 100.976 363.86 101.67 364.059 102.464C363.959 102.464 363.86 102.563 363.76 102.563C363.462 102.563 363.064 102.662 362.667 103.059C362.468 103.158 362.269 103.456 362.17 103.654C362.07 104.051 362.17 104.349 362.368 104.745C361.871 105.34 361.971 106.035 362.368 106.531C362.468 106.729 362.766 107.225 363.363 107.423C363.462 107.622 363.462 107.919 363.661 108.118C363.562 108.316 363.562 108.614 363.661 108.911C363.661 109.11 363.76 109.308 363.86 109.506C363.959 109.903 364.059 110.102 363.959 110.3C363.86 110.796 363.959 111.193 364.059 111.292L364.158 111.49C364.257 111.788 364.357 112.085 364.655 112.482C364.357 113.077 364.456 113.772 364.854 114.267C364.953 114.367 364.953 114.565 364.953 114.763C364.953 115.359 364.953 115.954 364.953 116.549C364.953 116.946 364.953 117.342 364.953 117.739C364.953 119.029 365.053 120.12 365.351 121.112C365.55 121.806 365.848 122.699 365.948 123.492C365.948 123.691 365.948 123.79 365.848 123.889C365.152 124.881 364.556 125.972 364.059 127.361C363.661 128.551 363.661 129.642 364.158 130.832C364.357 131.328 364.655 131.923 365.351 132.32C365.351 132.419 365.252 132.518 365.252 132.618C365.152 133.114 365.053 134.006 366.047 134.403C366.147 134.601 366.345 134.701 366.445 134.8C366.246 135.395 366.246 135.99 366.445 136.585C366.147 136.982 365.948 137.478 366.047 137.875C366.047 138.47 366.345 138.966 366.842 139.462C367.041 139.858 367.34 140.156 367.638 140.553C367.638 140.85 367.737 141.148 367.837 141.446C367.737 141.644 367.638 141.842 367.638 142.041C367.538 142.338 367.439 142.537 367.34 142.735C366.842 143.429 366.544 144.124 366.345 144.818C366.146 145.413 366.147 146.008 366.047 146.603V146.901C365.948 147.496 365.948 148.29 366.345 149.182C366.544 149.678 366.942 149.976 367.439 150.075C367.538 150.075 367.638 150.174 367.737 150.174C367.538 150.571 367.538 150.968 367.439 151.166V151.265C367.439 151.364 367.34 151.563 367.34 151.662C367.141 152.257 366.842 152.852 366.544 153.249C366.246 153.745 366.246 154.34 366.445 154.935C366.743 155.431 366.842 155.828 366.842 156.225C366.842 156.423 366.842 156.919 367.141 157.316V157.415V157.713C367.141 158.01 367.24 158.506 367.439 158.804V158.903V159.2C367.439 159.3 367.439 159.498 367.439 159.597C367.34 160.093 367.439 160.688 367.837 161.085V161.184C367.837 161.482 367.737 161.879 367.936 162.375C367.936 162.474 367.837 162.573 367.837 162.672C367.737 162.97 367.538 163.466 367.638 163.962C367.638 164.061 367.638 164.061 367.538 164.16C367.439 164.358 367.141 164.953 367.34 165.549C367.34 165.648 367.34 165.846 367.34 166.045V166.243C367.34 166.441 367.34 166.739 367.34 166.937C367.34 167.433 367.34 167.929 367.24 168.425C367.24 168.524 367.24 168.723 367.141 168.822C367.141 168.921 367.141 169.119 367.041 169.119C366.743 169.913 366.743 170.706 366.942 171.401V171.897C366.942 172.591 367.041 173.186 367.041 173.881C367.041 174.079 367.041 174.277 366.942 174.377C366.544 174.972 366.445 175.567 366.743 176.261V176.36C366.842 176.658 367.041 177.055 366.942 177.253L366.842 177.451C366.743 177.947 366.644 178.344 366.445 178.642C366.445 178.741 366.345 178.741 366.345 178.84C366.246 179.038 366.147 179.237 366.047 179.435C365.948 179.733 365.55 180.03 365.152 180.328L365.053 180.427C364.854 180.427 364.655 180.427 364.357 180.427C363.363 180.427 362.965 180.824 362.766 181.717C362.667 182.312 362.567 182.808 362.567 183.304C362.368 183.403 362.269 183.502 362.07 183.601C361.374 183.998 361.076 184.791 361.374 185.585C361.573 185.982 361.673 186.279 361.971 186.676C361.971 186.775 361.971 186.974 361.871 187.271C361.772 187.569 361.673 187.767 361.673 188.065C361.673 188.065 361.673 188.164 361.573 188.164C361.474 188.362 361.275 188.66 361.275 189.156C361.275 189.354 361.175 189.553 361.076 189.751C360.579 189.156 359.883 188.957 359.187 189.156C358.392 189.354 357.696 190.247 357.696 191.04V193.52C357.696 193.719 357.696 194.214 357.994 194.611C357.994 194.611 357.994 194.71 357.994 194.909C358.093 196 358.491 196.893 359.386 197.686C359.088 198.083 358.988 198.678 359.187 199.174V199.273C359.286 199.472 359.286 199.67 359.485 199.967C359.485 200.166 359.485 200.364 359.485 200.563C359.485 200.761 359.485 200.959 359.485 201.158V201.257C359.386 201.654 359.286 202.05 359.386 202.546C359.485 203.142 359.485 203.836 359.386 204.729V205.225C359.286 205.919 359.286 206.613 359.386 207.308C359.386 207.407 359.386 207.605 359.386 207.605C359.088 207.903 358.59 208.597 359.187 209.688L359.286 209.886C359.286 209.986 359.386 209.986 359.386 210.085C359.386 210.184 359.386 210.184 359.386 210.283C359.286 210.283 359.088 210.283 358.789 210.283C358.491 210.184 358.093 210.184 357.696 210.283C357.696 208.597 357.696 206.812 357.696 205.125C357.696 205.026 357.696 204.927 357.696 204.729C357.795 203.042 357.199 202.15 355.807 201.951C354.812 201.852 353.719 201.654 352.725 201.555C349.941 201.158 347.157 200.662 344.174 201.158C342.186 201.455 340.993 202.05 340.993 204.629C340.993 207.407 341.092 210.283 341.092 213.061C340.993 212.565 340.794 212.168 340.396 211.87C339.601 211.176 338.507 211.473 338.11 211.573C337.911 211.573 337.414 211.573 337.016 211.473C336.917 210.878 336.718 210.382 336.42 209.986C335.724 209.291 334.729 209.291 334.133 209.391C334.133 209.291 334.232 209.093 334.232 208.994C334.431 208.101 334.63 207.01 334.033 206.117C333.636 205.621 333.039 205.225 332.244 205.125C331.448 205.026 330.753 205.125 330.255 205.522C329.957 205.82 329.758 206.117 329.559 206.514C329.162 206.216 328.466 206.018 327.571 206.117C326.676 206.216 325.682 206.415 325.284 207.208C324.986 207.803 325.086 208.399 325.284 208.895C324.588 209.093 323.992 208.994 323.495 208.696C322.898 208.299 322.6 207.506 322.6 206.613C322.6 204.828 322.6 203.142 322.6 201.356C322.6 200.067 322.6 198.777 322.6 197.488C322.6 196 322.6 194.71 321.407 194.611C320.313 194.512 320.015 194.016 319.418 192.727C319.12 192.131 318.822 191.536 318.424 191.04C317.231 189.553 315.74 189.652 314.646 189.652C314.05 189.652 313.553 189.652 313.155 189.453C313.155 189.453 313.155 189.453 313.056 189.453C313.056 189.453 312.956 189.453 312.956 189.354H312.857C312.857 189.354 312.857 189.354 312.757 189.354C312.658 189.354 312.658 189.354 312.558 189.255C312.161 189.156 311.365 188.957 310.769 189.453C310.471 189.652 310.172 190.148 310.172 190.941C310.172 191.933 309.973 192.429 308.383 192.429C307.786 192.429 307.389 192.925 307.389 193.52C307.389 193.719 307.488 194.016 307.587 194.115C306.991 195.008 306.891 196.099 306.991 197.19C307.289 202.249 306.991 207.308 306.792 212.366C306.593 216.929 306.394 221.69 306.494 226.451C306.494 227.344 305.997 227.84 304.605 228.336C304.207 228.435 303.412 228.137 302.815 227.542C302.915 227.542 302.915 227.443 303.014 227.344C303.312 227.046 303.511 226.65 303.412 226.154C303.312 225.558 302.815 225.062 302.02 224.864C300.827 224.467 299.236 224.467 297.943 224.765C296.353 225.162 296.651 226.749 296.75 227.245C296.75 227.344 296.75 227.443 296.75 227.443C296.353 227.443 295.856 227.542 295.557 227.84C294.861 228.534 295.06 229.427 295.16 230.022C295.16 230.121 295.259 230.32 295.259 230.419C295.16 230.816 295.16 231.212 295.16 231.51C294.961 231.51 294.861 231.51 294.762 231.51C294.762 231.411 294.663 231.212 294.663 230.915C294.563 229.328 293.47 227.84 291.879 227.145C290.686 226.55 289.393 226.65 288.498 227.344C288.3 227.542 288.101 227.641 287.902 227.741C287.902 227.542 287.803 227.344 287.803 227.046C287.703 226.154 287.703 225.162 287.703 224.269C287.703 223.674 287.703 222.98 287.703 222.384C287.703 222.285 287.703 222.285 287.703 222.186C287.703 221.69 287.803 220.996 287.206 220.401C286.908 220.202 286.51 219.905 285.715 220.004C285.516 220.004 285.416 220.004 285.416 220.004C285.416 219.905 285.317 219.607 285.317 219.409C285.317 219.111 285.218 218.814 285.118 218.516C285.118 218.417 285.118 218.318 285.118 218.218C285.118 217.623 285.218 216.235 283.229 215.639H283.13C283.428 213.358 283.627 210.482 280.843 208.299C278.656 206.514 276.966 206.117 275.773 207.01C275.375 207.308 275.275 207.803 275.176 208.101C274.082 208.101 273.088 208.498 272.193 208.795C271.199 209.192 270.304 209.49 269.41 209.291C269.111 208.994 268.614 208.399 267.819 208.795C267.322 209.093 267.123 209.49 267.023 209.787C266.924 210.382 267.222 210.779 267.421 211.077C267.421 211.176 267.521 211.275 267.521 211.374C267.521 211.474 267.62 211.473 267.62 211.573C267.222 214.747 267.222 217.921 267.62 221.095C267.719 221.888 267.819 222.781 267.819 223.575C266.526 223.178 266.526 222.583 266.725 220.996C266.725 220.599 266.825 220.202 266.825 219.805C266.825 217.921 266.626 215.54 264.24 214.052L264.041 213.953C261.555 212.366 260.362 211.473 260.859 208.994C261.058 208.2 260.76 207.506 260.462 206.812C260.263 206.316 260.064 205.919 260.163 205.621V205.522C260.263 205.026 260.462 204.233 259.865 203.638C259.666 203.34 259.169 203.042 258.374 202.943C258.175 202.943 258.076 202.943 257.877 202.844C257.181 202.745 255.988 202.546 255.192 203.538C254.496 204.332 254.596 205.82 255.689 206.911C255.988 207.109 256.087 207.407 256.087 207.704C256.087 207.903 255.988 208.002 255.689 208.101C254.894 208.498 254.198 208.597 253.9 208.299C253.502 208.002 253.303 207.208 253.303 206.117C253.303 205.125 253.403 204.332 253.602 203.638C253.701 203.142 253.602 202.447 253.204 201.951C252.806 201.455 252.21 201.158 251.613 201.158C251.116 201.158 250.619 201.356 250.321 201.753C250.022 202.15 249.824 202.646 249.923 203.142C250.122 203.935 249.923 204.828 249.824 205.72C249.724 206.415 249.625 207.208 249.625 208.101C249.426 208.101 249.327 208.101 249.128 208.2C248.929 208.2 248.73 208.299 248.531 208.299C247.636 205.225 245.151 205.82 244.057 206.018C243.858 206.018 243.659 206.117 243.461 206.117C241.472 206.316 240.08 207.704 239.583 209.886C238.887 213.16 238.987 216.433 238.987 219.508C238.987 220.599 238.987 221.789 238.987 222.88C238.887 225.757 238.688 226.848 236.402 226.947C235.706 226.947 235.209 227.443 234.712 227.741C234.513 227.84 234.314 228.038 234.214 228.137L234.016 228.237C233.618 228.336 232.922 228.633 232.723 228.534C232.723 228.534 232.524 228.336 232.524 227.641C232.425 226.253 232.325 224.864 232.325 223.376C232.226 221.095 232.226 218.615 231.729 216.235C230.536 210.283 231.132 203.935 231.828 197.686L231.928 197.19C232.027 196 232.226 194.512 231.132 193.123C227.951 188.957 223.676 186.279 218.506 185.188C218.406 185.188 218.307 185.089 218.108 185.089C217.512 184.891 216.02 184.494 215.126 185.982C214.728 186.676 214.032 187.271 213.336 187.767C212.938 188.065 212.64 188.362 212.242 188.66L212.043 188.858C209.26 191.338 206.178 194.214 207.47 199.273C208.564 203.538 208.265 207.803 207.967 212.366C207.868 214.35 207.669 216.334 207.669 218.417C207.669 222.384 207.172 222.781 202.897 222.781C201.604 222.781 200.411 222.781 199.119 222.781H196.733C196.633 222.781 196.534 222.781 196.335 222.781C195.639 222.781 194.645 222.682 193.849 223.475C192.756 224.666 191.364 224.864 189.177 224.17C188.878 224.071 188.481 224.17 188.182 224.368C187.884 224.567 187.685 224.864 187.685 225.261C187.685 225.558 184.901 252.836 169.292 257.002C113.219 272.277 69.2745 180.427 52.9694 140.255C51.677 137.18 51.677 137.081 50.7822 137.28C50.2851 137.379 49.8874 137.875 49.8874 138.371C49.8874 138.569 49.9868 138.867 50.0862 139.065C50.1857 139.363 50.5833 140.255 50.981 141.148C66.2919 178.84 105.563 261.267 157.163 261.267C161.339 261.267 165.713 260.672 170.088 259.581C185.2 255.514 189.276 232.998 189.972 227.145C191.762 227.542 193.75 227.443 195.639 225.558C195.738 225.459 196.136 225.459 196.434 225.459C196.633 225.459 196.733 225.459 196.931 225.459H199.516C200.809 225.459 202.101 225.459 203.294 225.459C208.464 225.459 210.254 224.467 210.353 218.913C210.353 216.929 210.552 214.945 210.652 213.061C210.95 208.597 211.348 203.935 210.055 199.273C209.061 195.504 211.348 193.421 213.933 191.04L214.131 190.842C214.43 190.544 214.728 190.346 215.026 190.049C215.822 189.453 216.716 188.759 217.412 187.569C217.512 187.569 217.711 187.668 217.81 187.668C218.009 187.668 218.108 187.767 218.307 187.767C223.079 188.759 226.758 191.14 229.74 194.909C230.238 195.603 230.238 196.297 230.039 197.389L229.939 197.885C229.343 204.233 228.647 210.779 229.939 217.028C230.436 219.309 230.436 221.591 230.536 223.872C230.536 225.261 230.635 226.749 230.735 228.237C230.834 229.427 231.232 230.22 231.928 230.716C232.922 231.411 234.115 231.014 235.109 230.716L235.308 230.617C235.805 230.419 236.302 230.121 236.601 229.824C236.7 229.724 236.998 229.526 236.998 229.526C241.572 229.228 241.671 225.856 241.77 223.277C241.77 222.087 241.77 220.996 241.77 219.805C241.77 216.631 241.77 213.656 242.367 210.581C242.566 209.391 243.262 208.696 244.256 208.597C244.554 208.597 244.853 208.498 245.151 208.399C246.443 208.101 246.642 208.101 247.04 209.192C247.537 210.978 249.326 210.779 250.022 210.68C250.42 210.581 250.818 210.581 251.017 210.68C251.414 210.878 251.812 210.779 252.21 210.581C252.409 210.382 252.607 210.085 252.607 209.886C252.806 210.184 253.104 210.382 253.403 210.581C254.099 211.077 255.391 211.374 257.38 210.482C258.274 210.085 258.871 209.291 258.97 208.399C258.97 208.2 258.97 208.101 258.97 207.903V208.002C259.07 208.299 259.269 208.597 259.269 208.795C258.274 212.961 261.158 214.747 263.444 216.135L263.643 216.235C264.836 216.929 265.234 218.02 265.234 220.103C265.234 220.401 265.234 220.698 265.134 221.095C264.936 222.484 264.737 224.864 267.421 225.955C267.421 226.253 267.421 226.749 267.421 227.145C267.421 227.641 267.421 228.137 267.421 228.534C267.521 229.129 267.521 229.724 267.62 230.22L267.719 231.014C267.819 231.609 268.316 232.105 268.912 232.006L269.509 231.907C270.106 231.807 270.503 231.411 270.503 230.816C270.503 229.824 270.503 228.931 270.603 227.939C270.702 225.757 270.702 223.475 270.503 221.194C270.106 218.119 270.106 215.144 270.603 212.168V212.069C271.696 212.069 272.79 211.672 273.685 211.374C274.579 211.077 275.474 210.779 276.27 210.779C276.966 210.878 277.363 210.581 277.562 210.382C277.96 209.986 278.059 209.49 278.059 209.192C278.357 209.291 279.053 209.49 280.048 210.382C281.837 211.87 281.738 213.457 281.44 216.036C281.241 217.524 281.141 219.012 281.539 220.5C281.539 220.599 281.539 220.599 281.539 220.698C281.539 221.095 281.638 222.087 282.831 222.484C283.229 222.583 284.025 222.682 284.621 222.285C284.919 222.484 285.317 222.583 285.814 222.583C285.814 222.682 285.814 222.781 285.814 222.88C285.814 223.475 285.814 224.071 285.814 224.666C285.814 225.658 285.814 226.65 285.914 227.741C286.013 228.832 286.212 230.022 287.206 230.419C288.2 230.816 289.194 230.22 290.089 229.625C290.288 229.427 290.785 229.526 291.183 229.724C291.879 230.022 292.575 230.816 292.674 231.708C292.774 233.097 293.171 234.386 295.458 234.386C296.154 234.386 296.75 234.188 297.148 233.791C297.645 233.196 297.645 232.502 297.645 232.105C297.645 232.006 297.645 231.907 297.645 231.907C297.844 231.411 297.745 230.915 297.645 230.419C297.645 230.419 297.645 230.419 297.745 230.419C298.043 230.518 298.341 230.419 298.639 230.32C298.938 230.121 299.137 229.923 299.137 229.526V229.228C299.137 229.129 299.137 229.03 299.236 228.832C299.435 228.336 299.335 227.84 299.236 227.443C299.634 227.344 299.932 227.344 300.33 227.344C300.33 227.641 300.429 228.038 300.528 228.336C301.523 230.32 303.809 231.51 305.499 230.915C307.786 230.121 308.979 228.733 308.88 226.848C308.681 222.186 308.88 217.524 309.178 212.961C309.377 207.903 309.675 202.745 309.377 197.587C309.278 196.198 309.476 195.901 309.576 195.901C309.576 195.901 309.874 195.702 310.868 195.901C311.365 196 311.862 196 312.36 196C312.558 196 312.757 196 312.956 196C313.354 196 313.652 195.802 313.851 195.504C314.05 195.206 314.149 194.81 314.05 194.512C313.751 193.619 313.652 192.925 313.752 192.231C314.149 192.231 314.547 192.231 314.945 192.231C315.939 192.231 316.436 192.231 317.032 192.826C317.331 193.123 317.53 193.619 317.728 194.016C318.225 195.107 318.921 196.496 320.612 196.992C320.612 197.289 320.612 197.587 320.612 197.785C320.612 199.075 320.612 200.364 320.612 201.654C320.612 203.439 320.612 205.125 320.612 206.911C320.612 208.597 321.308 209.986 322.501 210.779C323.594 211.573 325.085 211.771 326.577 211.176C327.173 210.978 327.67 210.283 327.869 209.886C327.969 209.589 327.969 209.192 327.869 208.895C327.869 208.795 327.77 208.696 327.77 208.696C327.869 208.696 327.969 208.696 328.168 208.696C328.267 208.696 328.366 208.696 328.466 208.696C328.665 208.696 328.764 208.696 328.764 208.696C328.864 208.795 328.863 209.192 328.863 209.49V209.688C328.963 210.283 329.361 210.68 329.659 210.878C329.758 210.878 329.758 210.978 329.858 211.077C330.057 211.275 330.454 211.275 330.753 211.275C331.051 211.275 331.349 211.077 331.548 210.779C331.647 210.68 331.846 210.382 331.946 210.085C332.045 209.688 332.045 209.192 332.045 208.696C332.045 208.399 332.045 207.903 332.144 207.605C332.144 207.605 332.244 207.605 332.343 207.605C332.542 207.605 332.642 207.704 332.642 207.704C332.741 207.903 332.642 208.498 332.542 208.895C332.443 209.49 332.244 210.184 332.343 210.878C332.343 211.176 332.542 211.474 332.84 211.672C333.437 212.069 334.033 211.969 334.63 211.969C334.829 211.969 335.127 211.969 335.326 211.969C335.326 212.069 335.326 212.267 335.326 212.565C335.326 212.961 335.425 213.259 335.724 213.556C336.221 213.953 338.11 214.449 339.104 214.251C339.303 214.251 339.402 214.152 339.502 214.152C339.502 214.35 339.502 214.648 339.502 214.846C339.402 218.02 339.402 220.599 339.502 222.88C339.502 222.98 339.502 223.079 339.502 223.178C339.402 223.674 339.303 224.467 339.8 225.162C340.198 225.658 340.794 225.856 341.49 225.856C342.385 225.856 342.981 225.658 343.379 225.162C343.976 224.467 343.876 223.575 343.777 223.079C343.777 222.98 343.777 222.781 343.777 222.682C343.876 217.028 343.876 210.978 343.777 205.026C343.777 204.034 343.777 204.034 344.97 203.836C347.654 203.439 350.14 203.836 352.923 204.233C354.017 204.431 355.011 204.53 356.105 204.629C356.105 204.729 356.105 204.828 356.105 204.927C356.105 205.125 356.105 205.324 356.105 205.522C356.105 208.498 356.105 211.474 356.105 214.35C356.105 217.127 356.105 219.805 356.105 222.583C356.105 222.682 356.105 222.682 356.105 222.781C356.006 223.178 355.906 224.368 357.199 225.063C357.497 225.261 357.895 225.261 358.193 225.063C358.491 224.963 358.789 224.666 358.789 224.269C358.889 223.674 358.988 223.079 359.088 222.484C359.088 222.285 359.088 222.087 358.988 221.888C359.088 221.591 359.088 221.293 359.088 221.095C359.088 220.996 359.088 220.897 359.088 220.897L359.187 220.797C359.286 220.599 359.286 220.5 359.286 220.301C359.286 219.111 359.286 217.822 359.286 216.631C359.286 215.54 359.286 214.449 359.286 213.358C359.286 213.259 359.286 213.16 359.286 213.061C360.48 213.259 361.275 213.061 361.871 212.565C362.07 212.366 362.269 212.069 362.269 211.771C362.269 211.474 362.269 211.176 362.368 210.978C362.468 210.382 362.269 209.886 362.07 209.589C362.567 208.895 362.468 208.101 362.468 207.803C362.369 207.308 362.468 206.712 362.468 206.117V205.621C362.567 204.629 362.567 203.737 362.368 202.943C362.368 202.844 362.369 202.546 362.468 202.348V202.15C362.567 201.753 362.567 201.356 362.468 200.959C362.468 200.761 362.468 200.563 362.468 200.463C362.567 199.967 362.269 199.472 362.17 199.372C362.567 198.876 362.567 198.38 362.567 198.182C362.468 197.587 362.17 197.091 361.772 196.793C361.275 196.397 360.977 195.901 360.977 195.405C360.977 195.008 360.877 194.611 360.678 194.115V192.33C360.977 192.528 361.275 192.528 361.374 192.627C362.368 192.925 363.263 192.429 363.76 191.536L363.86 191.338C364.059 190.941 364.257 190.544 364.357 189.949C364.456 189.751 364.655 189.453 364.655 189.057C364.655 188.858 364.755 188.759 364.755 188.561C364.854 188.164 364.953 187.767 364.953 187.172C364.953 186.874 364.854 186.478 364.556 186.081L364.456 185.982C365.152 185.684 365.55 185.287 365.55 184.295C365.55 183.899 365.55 183.601 365.55 183.304C365.749 183.304 365.848 183.304 366.047 183.304C366.345 183.304 366.644 183.204 366.842 183.006L367.041 182.808C367.638 182.411 368.433 181.816 368.731 180.824C368.731 180.725 368.831 180.725 368.831 180.625C368.93 180.526 368.93 180.427 369.03 180.229C369.328 179.634 369.427 179.038 369.527 178.542L369.626 178.344C369.825 177.551 369.527 176.856 369.328 176.261V176.162C369.726 175.468 369.726 174.773 369.726 174.377C369.726 173.682 369.726 172.988 369.626 172.393V171.897C369.626 171.698 369.527 171.401 369.527 171.202C369.427 171.103 369.427 170.905 369.626 170.508C369.726 170.211 369.726 169.913 369.825 169.715C369.825 169.615 369.825 169.516 369.825 169.516C369.924 168.921 370.024 168.326 370.024 167.731C370.024 167.532 370.024 167.334 370.024 167.136V166.937C370.024 166.64 370.123 166.243 370.024 165.747C370.223 165.251 370.322 164.755 370.322 164.358C370.322 164.259 370.422 164.16 370.422 164.061C370.521 163.862 370.521 163.664 370.62 163.466C370.72 163.168 370.819 162.672 370.521 162.077V161.978C370.521 161.879 370.521 161.779 370.521 161.581C370.521 161.283 370.521 160.788 370.123 160.292C370.123 160.093 370.123 159.994 370.123 159.796V159.498C370.123 159.101 370.223 158.705 369.925 158.209C369.925 158.109 369.825 157.911 369.825 157.713V157.514C369.825 157.316 369.726 156.919 369.527 156.522C369.527 155.729 369.328 155.034 369.03 154.439C369.328 153.943 369.626 153.249 369.925 152.555C370.024 152.356 370.123 152.059 370.123 151.761V151.563C370.123 151.464 370.123 151.464 370.123 151.464C370.521 151.067 370.72 150.571 370.62 149.976C370.521 149.381 370.024 148.786 369.427 148.488C369.229 148.389 368.93 148.29 368.731 148.29C368.632 147.992 368.632 147.694 368.632 147.298V147C368.632 146.504 368.731 146.008 368.831 145.711C368.93 145.215 369.129 144.719 369.427 144.322C369.726 143.925 369.825 143.528 370.024 143.231C370.123 142.933 370.223 142.735 370.322 142.537C370.72 142.041 370.62 141.346 370.223 140.95C370.223 140.95 370.223 140.95 370.223 140.751C370.223 140.454 370.123 139.958 369.726 139.462C369.427 139.164 369.328 138.867 369.129 138.668C369.03 138.47 368.831 138.271 368.731 138.172C369.328 137.577 369.427 136.684 368.93 135.99C369.03 135.792 369.03 135.693 369.129 135.494C369.229 135.197 369.527 134.403 368.632 133.709C368.533 133.609 368.433 133.61 368.433 133.51C368.433 133.51 368.433 133.51 368.334 133.51C368.334 133.411 368.234 133.312 368.036 133.114C368.433 132.518 368.234 132.022 368.135 131.725C368.035 131.427 367.737 130.931 366.942 130.832C366.743 130.832 366.743 130.832 366.544 130.435C366.246 129.84 366.246 129.146 366.544 128.551C366.942 127.46 367.439 126.468 368.036 125.674C368.533 124.98 368.632 124.286 368.533 123.79C368.433 122.699 368.135 121.608 367.837 120.814C367.638 120.12 367.538 119.227 367.538 118.235C367.538 117.838 367.538 117.342 367.538 116.946C367.538 116.35 367.538 115.855 367.538 115.259C367.538 114.664 367.439 113.97 367.041 113.474C367.24 112.78 367.141 112.085 366.743 111.49C366.644 111.391 366.644 111.193 366.544 111.093V110.994C366.644 110.3 366.445 109.705 366.345 109.308V109.209C366.544 108.812 366.644 108.217 366.047 107.423C366.047 107.423 366.047 107.324 365.948 107.126C365.848 106.531 365.55 106.233 365.252 106.035C365.351 106.035 365.451 106.035 365.55 106.035C365.848 105.936 366.147 105.737 366.246 105.539C366.544 105.44 366.842 105.142 366.942 104.844C366.942 104.844 366.942 104.844 366.942 104.745C366.942 104.944 366.942 105.142 367.141 105.34C367.141 105.44 367.538 106.035 368.334 106.035C367.737 106.233 367.538 106.729 367.538 106.927C367.538 107.027 367.538 107.027 367.538 107.126V107.225C367.34 107.423 367.24 107.622 367.24 107.82C367.24 108.019 367.24 108.217 367.24 108.415C367.24 108.514 367.24 108.614 367.24 108.812C367.34 109.407 367.638 109.705 367.936 109.903V110.002C368.036 110.3 368.135 110.597 368.234 110.796C368.234 110.994 368.234 111.193 368.334 111.391C368.234 111.589 368.234 111.788 368.334 111.986C368.135 112.482 368.135 112.879 368.234 113.176C368.234 113.276 368.234 113.375 368.234 113.474C368.234 113.772 368.234 114.069 368.234 114.367C368.135 114.664 368.234 114.962 368.334 115.259C368.334 115.458 368.234 115.855 368.433 116.251V116.35C368.433 116.45 368.433 116.549 368.533 116.747C368.533 116.946 368.533 117.045 368.632 117.243C368.632 117.541 368.731 117.739 368.831 117.938C368.831 118.136 368.93 118.433 369.03 118.632C369.03 118.83 369.03 119.029 369.129 119.227C369.129 119.425 369.129 119.624 369.229 119.723C369.229 119.921 369.229 120.02 369.328 120.219C369.328 120.417 369.328 120.715 369.427 120.913V121.211C369.328 121.508 369.427 121.707 369.427 121.905C369.427 122.302 369.427 122.599 369.527 122.798C369.527 122.897 369.527 123.095 369.527 123.195C369.626 123.393 369.726 123.988 370.223 124.286C370.322 124.286 370.322 124.385 370.422 124.484C370.521 124.583 370.62 124.682 370.819 124.782C370.819 125.079 370.919 125.377 371.018 125.575C371.018 125.674 371.118 125.873 371.316 126.071C371.316 126.071 371.316 126.17 371.316 126.269C371.316 126.468 371.316 126.567 371.316 126.865C371.316 127.856 372.012 128.452 372.311 128.65C372.609 128.848 372.907 128.948 373.205 128.948C373.504 128.948 373.802 128.848 374.1 128.551C374.498 128.154 375.094 127.658 375.094 126.765C375.094 126.666 375.094 126.567 375.094 126.468C375.094 126.269 375.194 126.071 375.194 125.873C375.194 125.674 375.293 125.377 375.094 125.079L374.995 124.881C374.896 124.682 374.796 124.484 374.697 124.186C374.796 123.988 374.896 123.691 374.896 123.393V123.294C375.094 123.195 375.393 122.996 375.492 122.897C375.592 122.798 375.89 122.599 376.089 122.302C376.188 122.302 376.287 122.302 376.387 122.203H376.586C376.785 122.203 376.983 122.203 377.182 122.103C377.481 122.103 377.779 122.103 378.077 122.004C378.176 122.103 378.276 122.103 378.475 122.103C378.872 122.203 379.27 122.302 379.668 122.302C379.767 122.302 379.867 122.401 379.966 122.302C380.165 122.599 380.364 122.798 380.563 122.996C380.563 122.996 380.662 123.095 380.761 123.195C380.761 123.294 380.761 123.492 380.861 123.691C380.861 123.79 380.96 123.988 381.06 124.186V124.286L380.96 124.484C380.861 124.881 380.563 125.575 380.761 126.269C380.662 126.567 380.563 126.865 380.662 127.261C380.761 127.757 380.861 128.352 381.06 129.047C380.861 129.344 380.662 129.741 380.761 130.435C380.463 130.535 380.165 130.733 379.966 131.031C379.767 131.527 379.767 131.923 379.767 132.122C379.767 132.618 379.966 132.915 380.065 133.114C380.264 133.312 380.662 133.51 380.96 133.51C381.259 133.51 381.557 133.411 381.756 133.213C381.756 133.312 381.855 133.312 381.855 133.411C381.955 133.51 382.054 133.609 382.054 133.709C382.153 134.205 382.65 134.601 383.048 134.701C383.247 134.8 383.545 134.899 383.744 135.097C383.843 135.097 383.843 135.197 383.943 135.197C384.042 135.494 384.241 135.692 384.44 135.792C384.738 136.188 384.937 136.684 385.037 137.28L385.136 137.478C385.136 137.676 385.235 137.775 385.235 137.974C385.335 138.271 385.434 138.668 385.534 139.065C385.832 139.858 386.428 140.454 387.224 141.049C387.323 141.148 387.423 141.148 387.522 141.148C387.621 141.148 387.621 141.247 387.721 141.247C388.019 141.644 388.417 141.941 388.914 141.941C389.411 142.041 389.908 141.842 390.306 141.446C390.505 141.247 390.902 140.85 391.201 140.454C391.399 140.454 391.698 140.354 391.897 140.057C392.095 140.156 392.394 140.255 392.593 140.454C392.99 140.652 393.388 140.85 393.786 141.049C393.885 141.148 394.084 141.148 394.183 141.247C394.382 141.346 394.68 141.545 394.979 141.644C394.879 141.842 394.879 142.14 394.879 142.338C394.879 142.437 394.78 142.437 394.78 142.537C394.78 142.636 394.68 142.735 394.68 142.735C394.382 143.033 394.183 143.429 394.183 143.826C394.183 144.223 394.382 144.719 394.68 144.917C394.68 144.917 394.68 144.917 394.68 145.116C394.283 146.008 393.587 146.901 392.692 147.496C392.692 147.496 392.593 147.496 392.394 147.496C391.698 147.496 390.902 147.794 390.803 149.083V149.48C390.803 150.174 390.704 150.769 390.505 151.364C390.306 151.761 390.206 152.158 390.107 152.555C390.107 152.654 390.008 152.852 389.908 153.051C389.809 153.15 389.809 153.348 389.709 153.447C389.709 153.447 389.61 153.447 389.51 153.447H389.312C388.715 153.447 388.218 153.745 387.92 154.043C387.622 154.439 387.522 154.935 387.622 155.431L387.721 155.729C387.82 156.126 387.82 156.423 387.92 156.82C387.92 157.316 388.019 157.911 388.019 158.407C388.019 159.002 388.119 159.498 388.119 160.093C388.119 160.688 388.218 161.184 388.417 161.68C388.516 161.978 388.516 162.176 388.417 162.474C388.119 163.466 388.417 164.458 388.616 165.251C388.516 165.35 388.417 165.449 388.317 165.549C388.019 165.846 387.82 166.243 387.82 166.64C387.82 167.036 387.92 167.334 388.119 167.632C388.119 167.632 388.119 167.632 388.119 167.731C387.721 168.128 387.522 168.624 387.522 169.219C387.124 170.211 387.224 171.302 387.622 172.393C387.622 172.393 387.622 172.591 387.622 172.69C387.622 172.889 387.621 173.087 387.721 173.285V173.385C387.721 173.484 387.721 173.583 387.721 173.682C386.826 174.377 386.627 175.17 386.926 176.063C386.926 176.261 386.826 176.36 386.926 176.559V177.154C386.926 177.65 387.025 178.245 387.124 178.741C387.124 178.84 387.124 178.939 387.124 179.038C387.124 179.336 387.124 179.733 387.323 180.13L387.522 182.113C387.621 182.808 388.019 183.204 388.317 183.403L388.417 183.502C388.616 183.7 388.616 183.899 388.715 184.295C388.715 184.395 388.715 184.494 388.715 184.692V184.891C388.715 185.188 388.815 185.486 388.914 185.883C389.113 186.378 389.61 186.577 389.908 186.676C389.908 187.172 389.908 187.668 389.908 188.164V188.362C389.908 188.66 389.908 189.057 390.107 189.453C390.008 189.949 390.107 190.445 390.206 190.941C390.206 191.239 390.405 192.33 391.499 192.826C391.897 193.024 392.294 193.024 392.593 192.727C392.692 192.727 392.791 192.627 392.891 192.528C392.99 192.826 392.99 193.123 392.99 193.52V193.917C392.99 194.314 392.99 194.611 393.09 195.008C393.189 195.901 393.189 196.793 393.189 197.587C392.99 197.884 392.791 198.281 392.791 198.678C392.493 198.876 392.195 199.174 391.996 199.472C391.698 199.967 391.698 200.463 391.897 200.959V201.158C391.897 201.257 391.897 201.356 391.996 201.455C391.797 201.753 391.698 202.05 391.698 202.447V202.943C391.698 203.34 391.797 203.638 392.195 203.935C392.493 204.133 392.891 204.233 393.189 204.133C393.786 203.935 394.382 204.034 394.879 204.431C395.675 205.026 396.47 204.927 396.967 204.828C397.564 204.729 397.564 204.729 397.862 205.125C398.16 205.522 398.458 205.919 398.757 206.216C399.353 206.911 399.651 207.208 399.651 207.803C399.651 208.101 399.453 209.192 400.149 209.886C400.745 210.581 401.64 210.581 402.236 210.581L403.33 210.482C404.424 210.382 405.418 210.382 406.512 210.382C407.506 210.382 407.605 210.581 407.605 210.581C407.605 210.581 407.705 210.779 407.605 211.672C407.506 212.267 407.307 213.656 408.599 214.251C409.892 214.747 409.892 215.441 409.693 217.127C409.594 217.722 409.594 218.417 409.693 219.111C409.792 219.607 409.892 220.202 409.991 220.698C410.29 221.988 410.488 223.079 410.091 224.567C409.991 224.963 410.091 225.459 410.488 225.757C410.886 226.054 411.284 226.054 411.681 225.856C413.471 224.864 413.471 223.674 413.372 222.98C413.372 222.88 413.372 222.781 413.372 222.781C414.763 218.814 414.863 214.648 415.062 210.68L415.161 208.895C415.261 207.01 415.957 205.621 417.05 205.026C418.044 204.53 419.337 204.629 420.729 205.324C420.629 206.911 421.624 208.002 422.419 208.895C423.115 209.688 423.612 210.184 423.513 210.878C423.314 214.251 423.413 217.623 423.91 221.392C424.01 221.988 424.507 222.384 425.103 222.384C425.7 222.384 426.098 221.888 426.197 221.293C426.197 219.905 426.893 218.714 427.489 217.425C428.185 216.135 428.881 214.747 428.981 213.16C429.08 213.656 429.378 214.052 429.577 214.35C429.677 214.548 429.776 214.747 429.876 214.846C429.975 215.342 430.373 215.639 430.87 215.639C431.367 215.639 431.765 215.441 431.963 214.945C432.063 214.648 432.162 214.449 432.262 214.152C432.46 213.755 432.659 213.061 432.858 212.961C432.858 212.961 433.057 212.862 433.753 213.16C434.25 213.358 434.747 213.358 435.145 213.061C435.741 212.664 436.04 211.87 436.04 210.978C436.04 208.498 436.139 206.018 436.139 203.638C436.139 201.753 436.238 199.769 436.238 197.885C436.238 192.727 436.238 187.569 436.238 182.411V176.559C436.238 175.071 436.338 174.773 437.133 174.575C437.73 174.476 438.724 173.98 438.426 172.393C438.426 172.294 438.426 172.294 438.426 172.294C438.426 170.211 438.525 168.326 438.426 166.342C438.426 165.449 438.426 165.35 439.519 165.251C444.59 164.953 449.76 165.251 454.83 165.449C458.708 165.648 462.685 165.846 466.661 165.846C467.258 165.846 467.357 165.846 467.457 167.334V167.532C467.556 169.02 467.457 170.607 467.457 172.095C467.457 172.988 467.357 173.781 467.357 174.773C467.357 175.864 467.357 177.055 468.252 177.749C468.849 178.245 469.843 178.443 471.036 178.146C471.732 178.047 472.627 178.146 473.521 178.344C474.217 178.443 474.913 178.542 475.709 178.542C475.808 178.542 475.908 178.542 476.007 178.642C476.504 178.741 477.598 178.939 478.393 178.047C478.592 178.245 478.89 178.443 479.288 178.542C479.586 178.542 479.884 178.542 480.183 178.642C481.475 178.741 482.867 178.939 484.259 178.344C484.657 178.146 485.054 178.146 485.651 178.146C486.546 178.146 488.136 178.047 488.435 178.344C488.733 178.642 488.733 180.229 488.733 180.923C488.733 181.221 488.733 181.518 488.733 181.816C488.733 182.411 488.733 182.907 488.733 183.502C488.534 184.692 488.534 186.478 489.628 187.569C490.423 188.362 491.616 188.66 493.207 188.461C493.803 188.362 494.201 187.966 494.201 187.37V178.939C494.201 172.889 494.201 166.739 494.201 160.688C494.201 154.638 494.4 148.389 494.499 142.437C494.698 134.105 494.897 125.476 494.698 117.045V116.846C494.698 116.648 494.698 116.251 494.698 116.251C494.698 116.251 494.798 116.251 495.096 116.152C496.587 116.053 497.283 114.565 497.383 113.375C497.681 111.49 498.775 111.292 500.962 110.994H501.359C502.055 110.895 502.95 110.796 503.447 110.102C503.447 110.002 503.547 110.002 503.547 109.903C504.243 111.093 505.535 111.193 506.132 111.193C506.331 111.193 506.728 111.193 506.828 111.292C507.225 111.49 507.623 111.589 508.021 111.689C508.418 111.788 508.717 111.788 508.915 111.986C509.114 112.185 509.214 112.383 509.214 112.68C509.015 112.581 508.717 112.482 508.319 112.482C507.722 112.482 507.225 112.284 506.529 112.085C505.336 111.689 503.845 111.193 501.956 111.788C501.459 111.887 501.161 112.383 501.161 112.879C501.161 113.375 501.558 113.772 502.055 113.871C503.149 114.069 504.143 114.367 505.038 114.664C507.026 115.259 508.816 115.755 510.904 115.458C511.202 115.458 511.5 115.458 511.699 115.656C512.097 115.954 512.296 116.549 512.296 117.342V121.409C512.296 137.478 512.296 153.547 512.296 169.715C512.296 170.905 512.395 172.591 512.892 174.079C512.892 174.178 512.892 174.178 512.892 174.277C512.892 174.575 512.892 175.368 513.688 175.666C515.477 176.261 515.477 177.154 515.08 179.237C514.98 179.832 514.881 180.526 514.881 181.121C515.08 187.866 514.98 194.81 514.98 201.455C514.98 203.638 514.98 205.82 514.98 208.002V208.299C514.98 209.391 514.98 210.779 516.372 211.771C516.472 211.87 516.571 211.87 516.571 212.664C516.571 212.862 516.571 213.061 516.571 213.259V215.639C516.571 217.326 516.571 219.012 516.571 220.599C516.571 221.392 516.77 222.186 516.969 222.88C517.366 224.17 517.466 224.765 516.869 225.558C516.372 226.154 516.472 226.848 516.571 227.344C516.571 227.542 516.67 227.641 516.67 227.84C516.67 228.137 516.869 228.534 517.167 228.733C517.466 228.931 517.863 228.931 518.162 228.832C520.448 228.038 520.647 225.856 520.747 224.666C520.747 224.467 520.747 224.368 520.747 224.17C520.945 222.484 520.945 220.698 520.945 218.913C520.945 217.623 520.945 216.334 521.045 215.144C521.343 211.474 521.343 207.803 521.343 204.233C521.343 202.348 521.343 200.364 521.343 198.48V198.38C521.443 198.38 521.542 198.38 521.641 198.38H521.84C522.536 198.38 523.133 198.38 523.829 198.38C525.618 198.38 527.507 198.38 529.396 198.281C529.496 198.281 529.595 198.281 529.595 198.281C529.794 198.281 529.794 198.281 529.893 198.281C529.893 198.38 529.993 198.579 529.893 198.976C529.794 202.546 529.893 206.117 529.893 209.589V212.267C529.893 212.366 529.893 212.565 529.893 212.664C529.893 213.358 529.794 214.251 530.39 214.846C531.683 216.235 531.683 217.722 531.584 219.607C531.584 220.301 531.484 221.095 531.584 221.789C531.584 222.186 531.882 222.583 532.279 222.781C533.373 223.178 534.864 223.575 535.958 222.781C537.052 221.988 537.052 220.5 536.952 219.21C536.952 218.913 536.952 218.516 536.952 218.218C536.952 217.524 536.952 216.83 536.952 216.135C536.952 215.54 536.952 214.846 536.952 214.251C536.952 214.052 536.952 213.755 536.952 213.556C536.853 212.565 536.853 212.565 537.549 212.366C539.338 212.069 539.14 210.184 539.04 209.589C539.04 209.49 539.04 209.291 539.04 209.192C539.04 207.506 538.941 205.72 538.941 204.034C538.841 200.463 538.742 196.694 538.941 193.123C538.941 192.627 538.941 192.132 539.04 191.536C539.14 188.858 539.14 186.081 541.824 184.196C542.719 183.601 543.315 182.609 543.812 181.617C544.21 180.824 544.707 179.931 545.304 179.534C547.292 178.047 549.38 177.551 551.468 178.047C553.556 178.542 555.345 180.13 556.439 182.411C557.035 183.7 557.831 183.899 558.527 183.8H558.626C559.521 183.998 560.018 183.7 560.316 183.403C560.813 183.006 561.012 182.312 560.913 181.518C560.813 180.625 560.813 179.832 560.813 178.84C560.813 177.65 560.813 176.36 560.615 175.17C560.217 172.591 560.217 170.211 560.714 168.028C560.813 167.532 561.012 166.739 560.913 165.945C560.813 165.251 560.714 164.557 560.714 164.16C561.012 164.16 561.708 164.061 562.404 164.061C563.995 164.061 565.685 163.862 567.276 163.763C569.463 163.565 571.65 163.366 573.738 163.565C573.937 163.565 574.136 163.565 574.335 163.565C574.434 163.565 574.534 163.565 574.633 163.565C574.633 163.664 574.534 163.763 574.534 163.962C574.136 165.549 574.335 167.136 574.633 168.624C574.832 169.516 574.931 170.409 574.931 171.302C574.832 182.907 574.832 195.405 574.931 209.49C574.931 209.688 574.832 209.986 574.832 210.283C574.633 211.176 574.434 212.267 575.031 213.061C575.428 213.556 576.025 213.854 576.721 213.953C577.317 213.953 577.914 213.755 578.51 213.16C579.505 212.267 580.399 210.581 580.399 208.795C580.3 206.117 580.3 203.439 580.3 200.761C580.3 198.976 580.3 197.19 580.3 195.405C580.3 195.107 580.3 194.611 580.3 194.314C580.399 194.314 580.499 194.314 580.797 194.314C581.891 194.512 582.587 194.214 582.885 193.818C583.283 193.52 583.581 192.826 583.481 191.735C583.581 191.04 583.481 190.148 583.382 189.453C583.283 188.858 583.283 188.065 583.283 187.668C585.37 186.974 587.955 187.271 590.043 187.569C590.54 187.668 590.938 188.66 590.938 189.751C590.839 193.719 590.839 197.984 590.938 203.142C590.938 203.241 590.938 203.34 590.938 203.439C590.839 203.935 590.739 204.729 591.236 205.324C591.535 205.72 592.032 206.018 592.728 206.117C594.02 206.216 594.716 205.522 595.213 204.927L595.313 204.828C595.511 204.629 595.611 204.53 595.81 204.332C596.406 203.737 597.202 203.042 597.102 201.555C597.301 201.555 597.5 201.654 597.699 201.654C598.196 201.654 598.594 201.356 598.792 200.86L600.98 194.314C601.676 196.099 602.272 197.785 602.272 199.67C602.272 201.753 602.272 203.737 602.272 205.919V209.093C602.272 209.589 602.57 209.986 602.968 210.184C603.366 210.382 603.863 210.184 604.161 209.886C605.652 208.101 605.553 206.415 605.454 205.225V204.729C605.255 199.769 605.951 196 607.641 192.727C608.038 191.933 609.132 190.148 610.723 189.751C611.916 189.453 612.91 189.057 613.606 188.164C614.6 189.255 616.39 189.354 617.583 189.255C619.174 189.156 620.267 190.743 621.162 192.429C623.25 196.099 623.151 200.166 623.151 204.431C623.151 205.82 623.051 207.208 623.151 208.597C623.151 208.696 623.151 208.895 623.051 208.994C622.952 209.589 622.753 210.482 623.349 211.275C623.747 211.771 624.344 212.069 625.238 212.069C627.127 212.168 628.221 210.978 628.42 208.597C628.519 207.308 628.519 206.018 628.519 204.729C628.519 204.034 628.519 203.34 628.519 202.646C628.519 201.951 628.519 201.257 628.619 200.463C628.718 199.174 628.718 197.885 628.718 196.496C628.718 196.198 628.818 195.901 628.917 195.802C629.016 195.702 629.116 195.702 629.016 195.702C629.712 196 630.508 195.901 631.104 195.802C632.198 195.702 632.198 195.702 632.297 196.496C632.794 198.876 632.794 201.257 632.695 203.836C632.695 205.72 632.596 207.704 632.894 209.787C632.894 210.184 633.192 210.581 633.59 210.68C633.987 210.878 634.385 210.779 634.683 210.482C635.678 209.589 635.578 208.498 635.479 208.002V207.903C635.379 207.407 635.479 207.208 635.479 207.208C635.479 207.208 635.678 207.109 636.075 207.208C636.473 207.308 637.567 207.506 638.362 206.812C639.157 206.216 639.257 205.225 639.257 204.332C639.257 203.836 639.257 203.34 639.257 202.844C639.257 201.059 639.157 199.472 639.953 197.785C640.052 197.488 640.45 197.19 640.848 196.992C641.345 196.595 642.14 196.099 642.438 195.206L642.538 195.405C643.333 198.182 644.128 200.86 643.432 203.538C643.234 204.233 643.433 204.729 643.532 205.125C643.631 205.423 643.631 205.423 643.631 205.522C643.432 206.216 643.631 206.712 643.83 206.911C644.427 207.605 645.222 207.506 646.017 207.407C646.515 207.308 646.813 207.208 647.012 207.01C647.211 207.407 647.509 207.803 647.906 208.002C648.304 208.2 648.702 208.299 649.099 208.399C649.795 208.498 649.895 208.597 649.994 209.192C650.094 209.688 650.491 210.085 650.989 210.085C651.486 210.184 651.983 209.886 652.182 209.391C652.579 208.498 652.579 207.704 652.579 206.911C652.579 205.621 652.579 205.324 653.573 205.026C654.866 204.629 655.363 204.828 655.462 204.927C655.661 205.125 655.761 205.621 655.761 205.82C655.86 207.704 656.954 208.994 657.849 210.085C658.445 210.779 659.042 211.374 659.24 212.168C659.34 212.565 659.638 212.862 660.135 213.061C660.831 213.259 661.627 213.061 662.124 212.763C662.621 212.465 662.919 212.267 663.118 212.267C663.217 212.465 663.416 212.862 663.615 213.854C663.714 214.35 664.212 214.747 664.808 214.747C665.405 214.648 665.802 214.251 665.802 213.656C665.902 211.275 667.095 211.077 669.481 210.978H669.879C672.066 210.878 673.358 210.779 674.054 209.886C674.85 208.994 674.651 207.605 674.353 205.82C674.154 204.233 674.452 204.233 675.744 203.935C676.241 203.836 676.838 203.737 677.335 203.439C677.335 203.439 677.435 203.439 677.534 203.439C677.733 203.439 678.528 203.439 678.826 202.646C678.926 202.546 678.926 202.348 678.926 202.249C679.721 203.241 681.014 203.638 682.008 203.836C682.406 203.935 682.903 204.233 683.4 204.629C684.295 205.225 685.587 206.117 687.277 205.72C687.476 207.407 688.57 208.597 689.663 209.688C690.757 210.878 691.453 211.87 691.155 213.16C690.658 215.342 691.95 217.227 694.535 218.218C694.634 218.218 694.634 218.218 694.734 218.516C694.833 218.814 695.132 219.409 695.728 219.706C696.026 219.905 696.424 219.905 696.722 219.706C697.021 219.607 697.219 219.309 697.319 219.012V218.913C697.418 218.714 697.418 218.516 697.418 218.218C697.518 214.747 697.617 214.747 700.6 214.449C701.395 214.35 701.992 214.052 702.588 213.854C703.085 213.656 703.483 213.457 703.98 213.358C705.77 213.16 706.167 213.16 706.565 214.152C707.261 215.838 708.852 215.342 709.349 215.243C709.448 215.243 709.647 215.144 709.647 215.144C711.039 215.342 712.331 215.044 713.326 214.251C714.419 213.358 715.115 211.87 715.115 210.184C715.115 209.49 715.115 208.895 715.115 208.2C715.115 206.415 715.016 204.828 715.612 203.241C715.712 203.042 715.712 202.745 715.712 202.546C716.109 202.546 716.408 202.546 716.706 202.447C716.805 202.447 717.004 202.447 717.104 202.348C717.104 202.447 717.104 202.546 717.104 202.646C717.104 202.745 717.104 202.943 717.004 203.042C716.905 203.637 716.805 204.53 717.402 205.225C717.8 205.72 718.496 205.919 719.291 205.919C719.689 205.919 720.086 206.018 720.484 206.018C721.876 206.216 723.864 206.613 725.157 204.133C725.157 204.034 725.256 204.034 725.256 204.034C725.753 204.034 726.35 203.935 726.946 203.836C728.139 203.737 729.432 203.538 730.028 203.935C731.719 205.026 733.409 205.225 735 205.324C735.397 205.324 735.894 205.423 736.292 205.423C736.391 205.423 736.491 205.72 736.491 206.117V206.613C736.491 207.308 736.391 208.101 736.391 208.795C736.391 208.895 736.391 208.895 736.391 208.994C736.292 209.391 736.193 210.085 736.69 210.581C736.988 210.978 737.485 211.176 738.181 211.275C738.479 211.275 739.175 211.374 739.573 210.779C739.672 210.581 739.871 210.382 739.871 210.085C740.169 210.184 740.468 210.184 740.766 210.184C741.959 210.085 743.152 209.291 744.146 207.704L744.246 207.605C744.643 208.002 745.041 208.2 745.439 208.2C746.035 208.2 746.333 207.903 746.632 207.605C747.427 208.299 748.62 209.688 748.421 211.275C748.024 213.755 749.117 215.243 751.404 215.639C751.603 215.639 751.702 215.739 751.702 215.739C751.702 215.838 751.702 215.937 751.702 216.135C751.305 219.012 751.404 221.988 751.404 224.765C751.404 226.65 751.503 228.633 751.305 230.518C751.305 231.311 751.305 232.303 752.001 233.097C752.498 233.593 753.293 233.89 754.287 233.89C755.182 233.89 755.779 233.593 756.276 233.097C756.872 232.403 756.773 231.51 756.773 230.915C756.773 230.816 756.773 230.617 756.773 230.518C756.474 224.269 756.673 219.012 757.17 214.251C757.369 212.465 761.346 208.795 763.434 208.498C764.031 208.399 764.528 208.299 765.124 208.2C765.323 208.101 765.621 208.101 765.82 208.002C767.212 207.704 768.007 207.704 768.405 208.002C768.703 208.299 768.902 209.093 768.902 210.283C769.002 216.83 769.101 222.186 769.002 227.046C768.902 230.022 769.2 232.998 769.399 235.874C769.499 237.66 770.692 238.354 771.587 238.949C772.879 239.743 774.47 239.445 775.365 238.255C776.16 239.346 777.452 239.346 778.347 239.346L788.19 239.247V242.421C788.19 243.016 788.687 243.512 789.284 243.512C789.88 243.512 790.377 243.016 790.377 242.421V238.156C790.675 237.064 790.576 236.767 790.377 236.569ZM258.274 205.522C258.175 205.82 258.175 206.117 258.274 206.415C258.076 206.117 257.877 205.82 257.578 205.621C257.479 205.522 257.38 205.423 257.38 205.324C257.578 205.324 257.777 205.324 257.976 205.423C258.076 205.423 258.175 205.423 258.274 205.423V205.522ZM341.291 223.376V223.277C341.291 223.277 341.291 223.277 341.291 223.178C341.391 223.277 341.391 223.376 341.291 223.376C341.391 223.376 341.391 223.376 341.291 223.376ZM368.632 105.043C368.433 105.043 368.234 105.043 368.135 104.944L368.234 104.745C368.334 104.745 368.433 104.844 368.533 104.844C368.632 104.844 368.632 104.944 368.632 105.043C368.632 105.043 368.632 104.944 368.632 105.043ZM366.345 101.77C366.544 101.571 366.644 101.373 366.743 101.174C366.942 101.075 367.141 100.976 367.34 100.778H367.538C367.538 100.877 367.538 100.976 367.538 101.075C367.538 101.274 367.538 101.472 367.538 101.571C367.439 101.67 367.439 101.77 367.439 101.869C366.842 102.266 366.842 102.96 366.743 103.257V103.357C366.743 103.257 366.743 103.059 366.743 103.059C366.644 102.365 366.544 102.067 366.345 101.77ZM366.842 104.051C366.842 103.853 366.842 103.654 366.743 103.456C366.743 103.357 366.743 103.357 366.743 103.257C366.743 103.456 366.743 103.654 366.842 103.753C366.842 103.952 366.842 103.952 366.842 104.051ZM370.422 116.053C370.422 116.152 370.422 116.152 370.422 116.053C370.422 116.152 370.422 116.152 370.422 116.053C370.422 116.152 370.422 116.152 370.422 116.053ZM370.422 116.152C370.422 116.251 370.422 116.35 370.322 116.45C370.422 116.45 370.422 116.35 370.422 116.152ZM380.96 130.832L380.065 131.427C380.065 131.229 380.165 131.031 380.264 130.931C380.463 130.733 380.662 130.634 380.96 130.634V130.733V130.832ZM429.279 211.077C429.279 210.878 429.279 210.68 429.18 210.482C429.18 210.382 429.18 210.283 429.279 210.184C429.378 210.283 429.478 210.382 429.478 210.482C429.378 210.581 429.279 210.878 429.279 211.077Z" fill="black"/>
<rect x="1.37268" y="1.39352" width="836.127" height="326.326" stroke="black"/>
</g>
</svg>
