<?xml version="1.0" standalone="no"?>
<!DOCTYPE svg PUBLIC "-//W3C//DTD SVG 20010904//EN"
 "http://www.w3.org/TR/2001/REC-SVG-20010904/DTD/svg10.dtd">
<svg version="1.0" xmlns="http://www.w3.org/2000/svg"
 width="558.000000pt" height="558.000000pt" viewBox="0 0 558.000000 558.000000"
 preserveAspectRatio="xMidYMid meet">
<metadata>
Created by potrace 1.14, written by Peter Selinger 2001-2017
</metadata>
<g transform="translate(0.000000,558.000000) scale(0.100000,-0.100000)"
fill="#000000" stroke="none">
<path d="M2734 5259 c-5 -8 -3 -10 7 -4 8 5 11 5 7 1 -6 -8 -114 -18 -171 -16
-16 0 -26 -3 -23 -8 3 -5 -1 -9 -9 -9 -8 0 -12 3 -10 7 2 3 -5 6 -15 6 -10 0
-17 -4 -14 -8 2 -4 -4 -7 -13 -7 -54 -2 -83 -7 -83 -13 0 -3 4 -8 10 -10 5 -1
-16 -4 -48 -5 -31 -2 -58 -7 -60 -13 -2 -5 -18 -10 -36 -10 -18 0 -38 -6 -45
-12 -11 -11 -13 -10 -7 2 6 12 4 11 -6 -1 -7 -9 -23 -14 -37 -12 -17 2 -22 -1
-18 -11 3 -7 0 -13 -6 -13 -45 1 -67 -4 -61 -15 4 -6 3 -9 -2 -5 -15 9 -79 -9
-76 -21 2 -10 -34 -18 -61 -13 -5 1 -6 -3 -2 -9 4 -6 -5 -10 -22 -10 -22 0
-25 -2 -13 -10 12 -7 8 -10 -14 -10 -16 0 -34 -6 -40 -14 -6 -8 -20 -16 -31
-18 -11 -2 -26 -9 -33 -16 -8 -7 -18 -10 -23 -7 -5 4 -9 -2 -9 -11 0 -10 -3
-14 -7 -11 -3 4 -12 2 -20 -4 -7 -6 -13 -8 -13 -3 0 5 -5 2 -10 -6 -5 -8 -15
-15 -22 -15 -7 -1 -12 -7 -10 -14 2 -8 -3 -11 -12 -8 -9 4 -19 1 -23 -6 -5 -7
-24 -20 -43 -30 -19 -9 -31 -17 -26 -17 16 0 -42 -40 -59 -40 -9 0 -14 -3 -12
-7 3 -5 -1 -14 -9 -21 -9 -8 -14 -9 -14 -2 0 6 -5 8 -10 5 -6 -4 -8 -11 -5
-16 4 -5 1 -9 -6 -9 -6 0 -20 -10 -31 -22 -11 -13 -25 -23 -31 -23 -7 -1 -11
-6 -10 -13 2 -7 -3 -12 -10 -12 -6 0 -25 -16 -40 -35 -15 -19 -33 -34 -39 -32
-6 1 -13 -4 -16 -12 -3 -9 0 -11 8 -6 9 5 11 4 6 -4 -4 -6 -12 -9 -17 -5 -12
7 -40 -27 -33 -38 3 -4 -2 -5 -10 -2 -11 4 -14 0 -11 -16 4 -19 2 -20 -13 -9
-9 7 -14 9 -10 5 5 -5 -1 -16 -12 -23 -11 -8 -18 -19 -14 -24 3 -6 -2 -9 -12
-7 -14 2 -18 -2 -16 -16 2 -11 -1 -15 -7 -11 -6 3 -11 2 -11 -4 0 -5 -16 -26
-35 -47 -19 -20 -35 -41 -35 -46 0 -8 -9 -19 -66 -80 -9 -9 -13 -21 -9 -27 3
-6 -1 -11 -9 -11 -9 0 -16 -7 -16 -15 0 -8 -4 -15 -10 -15 -5 0 -10 -9 -10
-21 0 -11 -5 -17 -10 -14 -6 3 -11 1 -11 -4 -1 -6 -2 -16 -3 -21 0 -6 -7 -14
-14 -19 -8 -5 -13 -11 -13 -15 3 -19 0 -26 -11 -24 -8 2 -12 -5 -10 -15 2 -9
-4 -20 -13 -23 -9 -4 -14 -12 -11 -20 3 -7 -2 -18 -10 -24 -8 -7 -14 -21 -14
-32 0 -10 -7 -21 -15 -24 -8 -4 -13 -10 -10 -14 3 -5 -2 -16 -11 -24 -8 -9
-12 -16 -8 -16 4 0 -1 -9 -11 -20 -10 -11 -15 -23 -12 -27 4 -3 7 0 7 7 0 7 3
10 7 7 3 -4 -4 -19 -18 -34 -13 -14 -18 -23 -10 -18 9 5 8 -1 -4 -18 -9 -15
-13 -32 -9 -38 5 -9 2 -10 -9 -6 -11 4 -15 1 -12 -13 2 -11 0 -22 -5 -25 -5
-3 -7 -15 -5 -26 4 -17 2 -19 -11 -8 -12 10 -13 9 -8 -5 3 -9 0 -24 -7 -33
-12 -14 -12 -16 1 -8 13 8 13 7 1 -8 -11 -14 -11 -17 0 -17 10 -1 8 -4 -3 -11
-11 -6 -18 -22 -18 -40 0 -22 -4 -28 -12 -23 -8 5 -7 0 2 -11 9 -11 10 -16 2
-11 -11 7 -17 -16 -13 -51 1 -7 -6 -13 -15 -13 -16 0 -16 -2 2 -15 12 -9 14
-14 5 -13 -9 2 -15 -6 -15 -24 -1 -14 -4 -30 -9 -34 -11 -11 -9 -26 3 -19 6 3
7 -1 4 -9 -3 -9 -11 -13 -18 -9 -6 4 -4 -2 4 -12 8 -10 10 -16 4 -12 -7 4 -11
-11 -13 -45 -1 -28 -6 -57 -12 -65 -9 -10 -8 -17 2 -30 10 -11 10 -14 2 -9
-13 7 -15 -3 -15 -86 -1 -16 -6 -28 -12 -28 -6 0 -4 -5 4 -10 13 -9 13 -11 0
-20 -8 -5 -10 -10 -5 -10 6 0 10 -16 11 -35 0 -19 -3 -35 -8 -35 -5 0 -6 5 -3
10 3 6 3 10 -2 10 -4 0 -8 -22 -8 -50 -1 -27 2 -44 6 -38 4 7 6 15 3 19 -2 4
0 10 5 14 11 6 6 -31 -6 -49 -13 -17 -9 -51 6 -48 7 1 10 -2 6 -8 -3 -6 -10
-8 -15 -5 -4 2 -7 -9 -6 -25 0 -22 5 -29 16 -25 13 4 13 3 -1 -7 -15 -13 -21
-80 -7 -94 4 -3 5 3 3 15 -2 12 -1 20 3 17 10 -6 8 -128 -2 -145 -6 -10 -5
-12 2 -7 7 4 12 3 12 -3 0 -5 -6 -12 -12 -14 -10 -4 -10 -6 0 -6 8 -1 12 -18
12 -50 0 -28 4 -53 10 -56 6 -4 5 -13 -3 -26 -9 -16 -9 -21 1 -27 7 -5 13 -32
13 -65 1 -34 6 -57 13 -57 6 0 4 -5 -4 -10 -13 -9 -13 -10 0 -10 11 0 15 -10
15 -35 -1 -19 3 -35 8 -35 5 0 3 -8 -4 -17 -8 -9 -9 -14 -3 -11 5 4 15 -6 21
-23 6 -16 8 -27 3 -24 -4 3 -6 -4 -3 -15 3 -11 9 -18 13 -15 4 2 6 -7 4 -20
-1 -14 2 -27 6 -30 5 -3 7 -12 4 -19 -3 -7 1 -20 9 -27 8 -8 13 -22 11 -32 -1
-9 4 -24 12 -32 8 -8 15 -30 16 -49 1 -21 6 -32 12 -30 7 3 13 -9 14 -28 2
-18 8 -35 14 -39 6 -4 7 -12 3 -19 -5 -8 -4 -11 3 -6 6 3 15 -9 22 -31 7 -21
20 -47 29 -57 13 -16 13 -18 1 -12 -8 4 -6 0 4 -8 11 -9 16 -16 10 -16 -5 0 0
-7 10 -15 13 -10 15 -15 6 -15 -9 0 -7 -5 6 -15 10 -8 15 -15 10 -15 -6 0 -1
-7 10 -16 10 -8 12 -13 4 -9 -8 4 -5 -3 8 -14 13 -11 23 -22 23 -25 2 -23 13
-45 20 -40 5 3 9 -4 9 -16 0 -12 5 -18 10 -15 6 3 10 -4 10 -16 0 -12 3 -19 6
-16 9 9 43 -55 36 -67 -3 -5 0 -6 6 -2 12 7 31 -22 26 -42 -1 -7 0 -8 3 -2 7
14 23 12 20 -2 -1 -7 4 -12 11 -11 11 3 17 -17 13 -40 -1 -5 3 -6 9 -2 5 3 10
1 10 -6 0 -13 38 -49 52 -49 5 0 6 -4 3 -10 -3 -5 -1 -10 5 -10 6 0 8 -5 5
-10 -6 -9 8 -14 28 -11 5 1 6 -3 2 -9 -3 -5 1 -13 9 -16 9 -3 16 -10 16 -16 0
-13 26 -38 39 -38 6 0 10 -3 8 -7 -1 -5 3 -10 8 -13 18 -8 65 -60 65 -72 0 -6
3 -8 7 -5 3 4 16 -5 29 -18 13 -14 28 -25 34 -25 5 0 10 -4 10 -10 0 -5 6 -10
13 -10 6 0 27 -16 46 -35 19 -19 38 -32 43 -29 4 3 8 0 8 -6 0 -6 4 -9 9 -5 5
3 13 0 17 -6 4 -7 3 -9 -4 -5 -6 3 -14 2 -17 -4 -4 -6 -3 -10 2 -9 22 4 54 -2
49 -9 -2 -4 4 -14 16 -21 15 -9 18 -10 13 0 -5 8 -4 10 3 5 7 -4 12 -14 12
-22 0 -8 4 -13 9 -10 5 3 20 -3 34 -14 14 -11 30 -20 36 -20 6 0 11 -4 11 -10
0 -5 7 -6 17 -3 11 4 14 3 9 -5 -4 -7 -1 -12 8 -12 9 0 16 -4 16 -10 0 -5 5
-10 11 -10 5 0 7 4 4 10 -3 5 -1 10 4 10 6 0 11 -7 11 -16 0 -8 4 -13 9 -9 5
3 16 -2 25 -11 9 -8 20 -13 25 -10 5 3 12 -1 15 -9 3 -8 9 -14 13 -13 15 3 63
-14 58 -21 -2 -4 6 -7 18 -7 14 1 21 -4 19 -13 -3 -12 -1 -12 14 0 12 9 15 9
10 2 -5 -9 1 -13 23 -13 16 0 33 -5 36 -10 3 -6 17 -10 31 -10 14 0 22 -4 19
-10 -5 -9 16 -14 53 -13 6 1 12 -3 12 -9 0 -5 4 -7 9 -3 5 3 13 0 16 -6 4 -5
13 -8 21 -5 8 3 14 1 14 -5 0 -6 9 -8 21 -4 14 5 19 3 15 -4 -5 -7 3 -10 23
-7 17 2 31 0 31 -4 0 -4 17 -6 37 -4 25 2 32 0 23 -7 -8 -5 -10 -9 -5 -10 32
-4 41 -3 47 6 5 6 8 5 8 -3 0 -7 4 -10 10 -7 6 3 10 0 10 -7 0 -9 3 -9 10 2 5
8 10 10 10 3 0 -6 9 -9 20 -6 13 3 20 0 20 -8 0 -11 2 -11 10 1 5 8 10 10 10
4 0 -9 59 -18 117 -17 15 1 20 -4 16 -16 -4 -13 -3 -13 5 -2 11 15 46 26 37
11 -3 -4 6 -10 20 -12 14 -3 25 -1 25 4 0 5 6 6 13 1 18 -11 477 -10 477 2 0
5 5 4 12 -3 9 -9 16 -8 32 6 11 9 16 11 12 5 -4 -7 -2 -13 3 -13 6 0 11 4 11
8 0 5 19 10 43 10 48 2 83 8 97 17 6 3 10 0 10 -7 0 -8 5 -6 11 5 6 9 15 15
20 11 5 -3 16 0 24 6 12 10 15 10 15 0 0 -10 3 -10 14 -1 11 9 15 9 19 -1 4
-8 6 -7 6 4 1 10 4 17 9 17 4 -1 22 -1 40 0 24 1 31 5 26 14 -5 7 0 6 11 -3
15 -12 17 -12 10 -1 -6 11 -4 13 8 8 8 -3 21 1 27 8 7 8 16 12 22 9 5 -3 14
-1 21 4 7 5 20 10 30 11 40 3 46 5 40 14 -3 5 10 7 28 5 25 -2 34 1 34 12 0
10 9 15 28 14 15 -1 27 4 27 11 0 11 5 13 49 17 11 1 18 5 15 9 -4 7 43 28 76
35 8 2 16 8 18 13 2 6 13 11 23 11 11 0 18 4 14 9 -3 5 7 11 22 13 17 2 27 8
25 17 -2 8 3 11 12 8 9 -4 18 -2 21 4 4 5 11 6 17 3 7 -4 8 -2 4 4 -4 7 -1 12
9 12 9 0 13 4 10 10 -3 6 1 7 9 4 9 -3 16 -1 16 5 0 6 7 11 16 11 8 0 12 4 9
10 -3 5 0 10 8 10 20 0 77 30 77 41 0 5 8 9 18 9 14 0 15 2 2 10 -12 8 -11 10
8 10 12 0 22 5 22 10 0 6 6 10 14 10 8 0 16 7 20 15 3 8 12 15 21 15 8 0 15 7
15 16 0 8 5 12 11 9 5 -4 21 5 34 19 13 14 32 26 42 27 16 0 16 1 -2 9 -19 8
-19 9 3 9 14 1 26 10 32 24 5 12 9 18 9 13 1 -6 14 3 31 19 16 15 27 31 25 35
-3 4 1 7 8 6 6 0 14 4 16 9 2 6 17 18 32 27 16 10 29 25 29 33 0 8 6 14 13 12
7 -1 12 7 11 19 -1 13 5 21 14 20 9 0 21 9 27 21 7 13 15 20 18 16 4 -3 7 -1
7 6 0 7 5 9 13 5 8 -5 8 -2 -2 9 -12 15 -11 17 3 17 10 0 14 5 11 10 -3 6 0
10 7 10 8 0 14 9 15 20 1 11 -2 18 -8 15 -5 -4 -9 -1 -9 4 0 6 -7 11 -15 11
-9 0 -12 6 -8 17 5 12 2 15 -10 10 -9 -3 -16 -3 -16 1 4 22 -3 31 -18 25 -9
-4 -14 -2 -10 4 3 5 -2 17 -12 25 -15 12 -22 13 -31 5 -8 -7 -11 -8 -7 -1 3 6
0 11 -8 11 -8 0 -13 -3 -12 -6 3 -10 -50 -61 -63 -61 -7 0 -10 -7 -6 -15 4
-11 0 -15 -12 -13 -9 2 -16 -3 -15 -9 3 -12 -17 -18 -40 -14 -5 1 -6 -3 -2 -9
10 -16 -14 -40 -39 -40 -17 0 -18 -2 -6 -10 10 -6 11 -10 3 -10 -13 0 -47 -26
-86 -65 -11 -11 -16 -14 -12 -7 6 11 3 12 -14 3 -11 -7 -21 -14 -21 -17 0 -3
5 -2 12 2 7 4 8 3 4 -4 -4 -7 -13 -12 -21 -12 -7 0 -15 -7 -19 -15 -3 -8 -12
-15 -21 -15 -8 0 -15 -4 -15 -10 0 -5 -6 -9 -12 -7 -7 1 -12 -4 -10 -11 1 -8
-2 -11 -7 -7 -6 3 -18 -3 -28 -14 -9 -11 -20 -18 -25 -15 -4 3 -8 0 -8 -6 0
-6 -4 -8 -10 -5 -5 3 -10 1 -10 -4 0 -6 -7 -11 -16 -11 -9 0 -12 -5 -8 -12 4
-7 3 -8 -4 -4 -6 4 -20 -2 -32 -14 -22 -22 -35 -27 -24 -9 10 18 -28 -6 -50
-30 -11 -12 -27 -21 -37 -21 -9 0 -20 -6 -22 -12 -4 -10 -6 -10 -6 -1 -1 8 -8
6 -21 -7 -11 -11 -26 -17 -33 -14 -8 3 -17 -2 -20 -10 -4 -9 -15 -13 -26 -11
-11 2 -20 -1 -18 -7 1 -6 -9 -12 -22 -14 -14 -3 -30 -9 -38 -15 -9 -9 -13 -8
-13 0 0 8 -5 7 -15 -3 -9 -8 -23 -12 -32 -9 -11 4 -14 3 -9 -5 4 -7 1 -12 -6
-13 -39 -2 -72 -9 -77 -17 -3 -4 -16 -8 -28 -9 -48 -2 -54 -3 -48 -13 3 -6 1
-10 -4 -10 -6 0 -11 6 -11 13 0 9 -2 9 -8 -1 -5 -7 -25 -13 -45 -14 -20 -1
-37 -6 -37 -11 0 -5 -7 -4 -15 3 -13 11 -14 10 -9 -5 6 -15 4 -16 -14 -6 -12
7 -22 8 -22 4 0 -5 -21 -8 -47 -8 -27 0 -53 -3 -60 -8 -7 -5 -17 -6 -23 -2 -5
3 -10 1 -10 -4 0 -6 -5 -11 -11 -11 -5 0 -8 4 -4 9 3 5 1 13 -5 16 -6 4 -9 1
-8 -6 4 -16 -51 -19 -71 -5 -11 8 -13 8 -8 0 4 -7 -2 -11 -18 -11 -16 0 -22 4
-18 11 5 8 3 8 -8 0 -17 -13 -58 -13 -78 0 -9 6 -12 5 -8 -2 5 -7 -14 -10 -57
-9 -35 1 -62 5 -60 8 2 4 -5 9 -17 12 -18 5 -18 3 -7 -11 12 -15 11 -15 -12
-1 -14 8 -40 14 -58 13 -18 -1 -35 3 -38 8 -4 6 -10 5 -15 -3 -7 -11 -11 -10
-24 6 -9 11 -14 14 -10 8 3 -7 1 -13 -4 -13 -6 0 -11 5 -11 10 0 6 -5 10 -11
10 -5 0 -7 -6 -3 -12 6 -10 4 -10 -7 0 -7 6 -26 12 -41 12 -15 0 -28 5 -28 10
0 6 -5 10 -11 10 -5 0 -7 -5 -4 -10 4 -6 -10 -1 -30 10 -20 11 -34 16 -30 10
3 -5 2 -10 -3 -10 -6 0 -12 6 -15 14 -4 9 -14 12 -28 9 -14 -4 -20 -2 -16 4
10 16 -18 24 -33 10 -10 -9 -11 -9 -6 1 5 8 0 12 -13 12 -12 0 -21 4 -21 10 0
5 -3 9 -7 9 -24 -4 -43 3 -43 14 0 7 -11 14 -23 15 -33 2 -78 27 -69 38 4 4
-1 2 -11 -6 -10 -7 -17 -9 -16 -4 3 20 -2 35 -10 29 -5 -3 -12 -1 -16 5 -4 6
-10 8 -15 5 -5 -3 -14 4 -20 15 -6 11 -15 18 -20 15 -6 -3 -21 5 -34 19 -13
14 -31 26 -40 26 -10 0 -15 4 -12 9 3 4 -6 13 -19 19 -14 7 -25 16 -25 22 0 6
-4 9 -9 6 -5 -3 -12 1 -15 10 -3 8 -10 12 -16 9 -5 -3 -10 -1 -10 5 0 6 -7 18
-15 26 -8 9 -15 12 -15 8 0 -4 -13 8 -30 26 -16 18 -30 37 -30 42 0 4 -3 7 -8
5 -12 -4 -99 88 -94 101 2 6 -8 16 -22 22 -14 5 -26 12 -26 15 0 4 6 3 13 0 6
-3 2 2 -10 11 -13 9 -23 23 -23 30 0 8 -3 14 -7 14 -5 0 -17 12 -27 27 -13 17
-14 24 -5 19 8 -4 1 4 -14 19 -19 16 -27 31 -23 42 6 13 4 14 -9 3 -9 -7 -15
-9 -14 -4 4 23 -2 45 -11 39 -5 -3 -10 3 -10 15 0 12 -4 18 -10 15 -6 -4 -10
-3 -9 2 4 25 -3 43 -17 43 -10 0 -14 7 -12 22 2 16 -2 22 -11 20 -12 -3 -12
-1 0 14 9 12 9 15 2 10 -9 -5 -13 0 -13 13 0 13 -7 21 -17 22 -11 0 -13 3 -6
6 10 3 9 8 -2 19 -8 8 -11 22 -8 31 4 11 3 14 -5 9 -8 -5 -12 3 -12 24 0 18
-4 29 -10 25 -6 -4 -10 5 -10 19 0 14 -4 26 -9 26 -5 0 -12 7 -15 16 -3 8 -2
13 2 10 5 -3 9 1 9 9 0 8 -4 12 -9 9 -8 -5 -12 17 -9 45 2 7 -2 10 -8 6 -10
-6 -16 29 -11 64 1 12 -1 12 -12 4 -11 -9 -14 -8 -14 7 0 10 5 16 11 12 5 -3
4 2 -4 11 -8 10 -11 20 -7 24 3 3 -2 15 -11 26 -10 11 -13 17 -6 14 8 -5 11 0
10 12 0 11 -5 17 -9 15 -4 -3 -8 13 -8 35 0 26 -5 41 -12 41 -9 0 -8 4 2 10
13 8 9 13 -10 12 -3 0 -5 33 -5 75 0 41 -4 77 -9 80 -5 4 -6 0 -1 -8 5 -8 4
-11 0 -6 -11 10 -14 48 -3 41 4 -3 8 0 8 5 0 6 -4 11 -9 11 -5 0 -8 14 -7 30
1 17 -1 36 -5 42 -4 7 -3 18 3 25 6 7 7 13 2 13 -5 0 -9 25 -9 56 0 31 -3 58
-7 60 -5 3 -8 12 -8 20 0 9 5 12 11 8 8 -5 8 -1 0 13 -6 11 -8 23 -5 26 8 8
13 98 5 93 -3 -2 -6 11 -6 29 0 18 2 32 6 30 3 -3 6 15 5 39 -1 24 -4 42 -7
40 -3 -2 -6 3 -6 11 0 8 4 12 9 9 8 -5 13 12 8 31 -1 6 -2 24 -1 40 1 17 2 67
4 112 1 44 5 79 8 77 4 -2 10 3 13 12 4 10 2 13 -6 8 -8 -5 -9 -2 -4 12 5 10
9 33 10 49 1 17 5 36 10 43 4 7 2 12 -5 12 -7 0 -4 7 7 16 10 8 13 13 7 9 -7
-3 -13 -1 -13 4 0 6 6 11 13 11 9 0 8 3 -2 9 -8 5 -9 10 -3 12 6 2 12 21 14
42 1 21 6 41 11 44 5 3 3 9 -4 14 -10 6 -11 9 -1 9 6 0 12 11 12 24 0 14 5 28
10 31 8 5 7 11 -1 21 -9 11 -8 15 4 20 9 3 15 19 15 45 1 22 5 46 11 52 5 7
11 25 13 39 2 15 8 31 13 35 4 4 5 3 1 -4 -3 -6 -2 -14 3 -17 5 -3 7 10 5 29
-1 19 2 35 7 35 6 0 7 5 4 10 -3 6 -1 10 4 10 6 0 10 3 10 8 -4 25 2 42 14 36
7 -5 6 0 -3 11 -9 11 -10 16 -2 11 8 -5 12 -1 12 12 0 11 7 23 16 26 8 3 13
10 10 15 -9 15 5 42 18 34 6 -4 4 2 -4 12 -9 11 -10 16 -2 11 8 -5 12 0 12 14
0 11 7 23 15 26 13 5 13 9 3 23 -7 9 -8 13 -4 9 11 -10 35 21 36 45 0 9 5 17
10 17 6 0 10 9 10 21 0 11 4 17 10 14 5 -3 10 3 10 14 0 11 5 23 12 27 7 5 8
3 3 -6 -6 -9 -4 -11 4 -6 7 5 10 14 7 22 -3 7 3 18 14 24 12 7 17 16 13 27 -4
9 -2 14 3 11 11 -7 35 17 27 26 -4 3 -1 6 6 6 7 0 9 5 6 10 -3 6 1 13 9 16 9
3 14 10 11 14 -3 5 4 11 15 15 11 3 19 9 17 13 -1 4 2 8 8 9 10 2 29 43 26 56
-1 5 3 6 9 2 5 -3 10 -1 10 5 0 6 5 8 10 5 6 -4 10 -3 9 2 -4 21 2 33 17 33 8
0 13 4 9 9 -3 5 4 12 14 16 11 3 23 15 26 26 4 10 11 17 16 14 5 -4 9 -1 9 4
0 6 8 11 18 11 13 0 14 2 4 9 -11 7 -10 10 3 15 9 3 22 3 27 -1 6 -3 8 -1 5 4
-8 12 27 56 37 46 3 -3 6 -1 6 5 0 7 6 12 14 12 8 0 16 7 20 15 3 8 10 14 15
13 5 -2 17 6 26 17 9 11 13 14 9 6 -4 -7 7 -3 25 10 17 12 31 27 31 31 0 5 5
6 10 3 6 -3 13 1 16 9 3 9 15 16 25 16 11 0 22 7 26 16 5 13 7 13 14 2 7 -10
9 -10 9 0 0 6 7 12 16 12 9 0 12 5 8 11 -5 8 4 10 29 7 31 -3 34 -2 24 11 -10
12 -9 14 5 8 10 -3 20 -2 24 4 3 6 13 8 21 4 13 -4 13 -3 4 8 -9 12 -6 14 19
11 16 -2 30 0 30 5 0 5 7 12 16 15 15 6 15 4 3 -11 -13 -17 -13 -17 7 0 11 9
30 17 41 17 12 0 24 6 26 13 4 9 8 8 16 -3 9 -13 11 -13 11 1 0 12 10 15 40
14 21 -1 37 2 35 6 -3 4 2 10 11 13 10 4 13 2 8 -7 -6 -9 -5 -9 7 0 9 7 31 12
51 11 19 -1 41 3 49 8 18 11 40 14 35 5 -3 -4 4 -7 14 -7 10 0 17 3 15 7 -3 3
34 6 80 7 58 0 85 -3 85 -11 0 -8 3 -8 8 -2 4 6 18 10 32 10 14 0 28 4 32 10
5 6 8 6 8 -2 0 -8 11 -11 30 -8 18 2 30 -1 30 -8 0 -7 4 -6 10 3 6 10 10 11
10 3 0 -7 5 -13 11 -13 5 0 7 5 3 11 -3 6 7 4 22 -3 16 -8 37 -13 47 -10 10 2
25 -2 34 -10 12 -9 15 -9 9 0 -4 6 -2 12 3 12 6 0 11 -4 11 -10 0 -5 5 -10 11
-10 5 0 7 4 4 10 -3 6 1 7 9 4 9 -3 16 -9 16 -13 0 -4 16 -7 36 -8 20 0 39 -6
43 -11 4 -6 23 -12 44 -14 20 -1 39 -8 41 -14 3 -7 14 -10 25 -7 14 3 23 0 27
-12 5 -13 9 -14 15 -3 7 10 9 10 9 1 0 -7 9 -13 19 -13 11 0 26 -7 34 -15 8
-8 17 -11 21 -8 3 4 6 0 6 -8 0 -11 2 -11 10 1 8 13 10 12 10 -2 0 -13 8 -18
28 -18 21 0 24 -2 12 -10 -12 -8 -9 -10 13 -10 16 0 26 -4 23 -8 -2 -4 5 -9
16 -9 12 -1 26 -7 32 -14 8 -9 7 -10 -4 -4 -10 6 -12 5 -5 -3 6 -6 17 -12 25
-14 16 -3 31 -14 65 -45 13 -13 29 -23 35 -23 6 0 8 -5 4 -12 -4 -6 -3 -8 4
-4 14 8 44 -23 35 -37 -4 -7 1 -6 10 2 14 11 17 11 17 -1 0 -17 36 -49 46 -40
4 4 4 -1 1 -11 -4 -10 -3 -16 1 -13 10 6 42 -29 42 -45 0 -6 7 -8 17 -5 10 4
14 4 11 0 -4 -3 -2 -11 3 -18 5 -6 17 -20 25 -31 9 -11 12 -13 8 -5 -4 9 -3
12 2 7 5 -5 10 -13 10 -18 1 -5 2 -13 3 -19 0 -5 8 -10 16 -10 9 0 12 -6 9
-15 -4 -8 -1 -15 5 -15 6 0 11 -7 11 -16 0 -8 5 -12 10 -9 6 3 10 -1 10 -10 0
-9 11 -27 25 -41 14 -14 23 -30 20 -35 -4 -5 -2 -9 2 -9 13 0 43 -56 35 -65
-4 -5 -1 -5 6 -1 8 5 12 -1 12 -21 0 -22 2 -25 10 -13 8 12 10 11 10 -7 0 -12
5 -25 10 -28 6 -4 8 -11 5 -16 -4 -5 -1 -9 5 -9 6 0 9 -4 5 -9 -3 -5 2 -16 10
-24 8 -9 15 -20 15 -25 0 -5 7 -15 15 -22 9 -7 15 -20 14 -29 -3 -30 1 -42 11
-36 6 4 10 3 9 -2 -5 -31 2 -65 14 -60 10 4 13 -5 12 -30 -2 -23 2 -33 10 -29
8 3 11 -4 9 -20 -1 -13 4 -31 12 -38 11 -11 11 -16 1 -19 -9 -4 -9 -6 1 -6 6
-1 12 -11 12 -23 0 -13 7 -32 15 -42 8 -10 12 -23 9 -27 -6 -11 -6 -11 89 -13
63 -1 77 1 78 14 4 69 -4 197 -14 209 -9 12 -9 13 1 7 9 -5 12 5 12 39 0 28
-4 44 -10 40 -5 -3 -10 -1 -10 4 0 6 5 11 11 11 6 0 7 5 2 13 -14 22 -12 41 4
60 16 17 16 17 0 11 -20 -7 -22 6 -4 25 10 11 10 14 0 18 -17 6 -17 30 0 36 9
4 9 6 0 6 -7 1 -13 10 -13 22 0 13 4 18 13 13 9 -6 9 -5 0 7 -7 9 -13 59 -14
131 -2 74 -6 115 -12 111 -6 -4 -7 -1 -1 8 13 22 15 50 4 64 -8 9 -8 15 0 20
6 3 8 11 4 16 -3 5 -9 7 -13 4 -5 -2 -6 7 -3 20 2 14 8 28 13 31 12 7 11 24
-2 24 -5 0 -7 -5 -3 -12 5 -7 3 -8 -5 -4 -9 6 -8 13 5 27 9 11 14 22 11 26 -4
3 -7 0 -8 -8 -1 -8 -5 2 -9 21 -5 21 -5 36 1 38 6 3 5 10 -2 18 -7 9 -7 14 -1
14 6 0 7 13 3 33 -3 17 -6 75 -6 127 0 54 -4 98 -10 102 -6 5 -4 8 5 8 13 0
13 1 0 10 -13 9 -13 10 0 10 13 0 13 1 0 10 -13 9 -13 11 0 20 13 9 13 10 0
10 -9 0 -11 3 -5 8 10 6 11 15 6 40 -1 4 -5 0 -10 -7 -6 -10 -8 3 -6 38 2 28
8 58 14 65 20 24 -16 41 -90 41 -38 0 -69 -3 -69 -8 0 -4 -6 -5 -12 -1 -9 5
-8 2 1 -9 12 -15 12 -17 -4 -11 -15 6 -17 3 -13 -19 3 -15 2 -24 -2 -22 -8 5
-24 -24 -22 -37 2 -7 -13 -12 -30 -9 -4 0 -4 -7 -1 -16 4 -9 2 -14 -3 -11 -12
6 -44 -28 -36 -38 4 -5 -2 -2 -12 6 -17 13 -18 13 -11 1 6 -11 4 -13 -9 -8 -9
4 -15 3 -12 -2 6 -10 -39 -26 -82 -30 -7 0 -11 -5 -8 -10 4 -5 -2 -8 -11 -6
-10 2 -18 4 -18 5 0 1 -16 3 -35 5 -22 3 -29 1 -20 -5 8 -5 18 -6 24 -3 5 3 6
1 2 -6 -6 -9 -14 -8 -32 3 -13 9 -37 16 -54 16 -20 0 -29 4 -24 11 4 7 -1 7
-16 -1 -15 -8 -20 -8 -16 -1 7 11 4 12 -36 14 -13 1 -29 7 -37 14 -11 11 -16
11 -29 1 -12 -10 -14 -10 -8 0 5 8 -1 12 -18 12 -14 0 -26 5 -26 11 0 8 -4 8
-14 0 -10 -8 -16 -8 -25 2 -6 8 -23 13 -37 11 -17 -1 -24 2 -21 10 3 7 -5 12
-22 13 -63 2 -72 4 -66 13 3 6 -3 10 -14 10 -10 0 -22 -6 -24 -12 -4 -8 -6 -7
-6 4 -1 11 -7 15 -23 10 -14 -3 -19 -2 -14 6 4 7 2 12 -3 12 -6 0 -11 -6 -11
-12 0 -10 -2 -10 -9 0 -4 7 -22 14 -39 14 -17 1 -29 4 -27 8 2 4 -1 7 -8 7
-35 2 -114 16 -129 24 -22 12 -37 11 -18 -1 9 -6 10 -10 3 -10 -6 0 -14 4 -17
8 -2 4 -24 9 -47 11 -24 1 -50 7 -58 14 -11 9 -13 9 -8 0 5 -8 -2 -11 -26 -10
-26 1 -33 6 -30 17 3 9 -1 8 -11 -4 -15 -19 -16 -19 -16 -2 0 16 -2 17 -17 5
-15 -12 -16 -12 -8 1 8 13 7 13 -8 1 -9 -7 -17 -10 -17 -5 0 11 -385 12 -396
2 -4 -4 -13 -3 -21 3 -10 9 -13 8 -13 -2 0 -11 -2 -11 -10 1 -8 12 -10 12 -10
1 0 -10 -3 -11 -14 -2 -11 9 -16 9 -22 0z m2021 -19 c3 -5 1 -10 -4 -10 -6 0
-11 5 -11 10 0 6 2 10 4 10 3 0 8 -4 11 -10z m-3368 -2345 c0 -8 -4 -12 -9 -9
-5 3 -6 10 -3 15 9 13 12 11 12 -6z m3 -155 c0 -5 -2 -10 -4 -10 -3 0 -8 5
-11 10 -3 6 -1 10 4 10 6 0 11 -4 11 -10z"/>
<path d="M3316 5262 c-3 -5 1 -9 9 -9 8 0 12 4 9 9 -3 4 -7 8 -9 8 -2 0 -6 -4
-9 -8z"/>
<path d="M3061 4064 c-1 -7 -26 -12 -63 -13 -90 -3 -112 -6 -125 -14 -6 -4
-14 -1 -16 5 -3 7 -6 4 -6 -7 -1 -17 -3 -17 -11 -5 -5 8 -10 10 -10 4 0 -7
-13 -10 -31 -9 -22 2 -29 -1 -25 -11 4 -12 1 -12 -14 -4 -16 8 -20 8 -18 -2 2
-7 -4 -12 -14 -10 -10 2 -28 -3 -40 -10 -13 -7 -26 -11 -30 -10 -5 1 -8 -2 -8
-7 0 -5 -14 -12 -31 -16 -17 -4 -33 -13 -35 -20 -3 -8 -14 -12 -24 -10 -14 3
-17 -1 -13 -12 4 -11 2 -14 -5 -9 -7 4 -15 0 -18 -9 -6 -13 -8 -14 -15 -3 -7
10 -9 9 -9 -4 0 -9 -5 -20 -12 -24 -7 -5 -8 -3 -3 7 5 8 -1 6 -13 -5 -12 -10
-19 -23 -16 -27 3 -5 0 -9 -5 -9 -19 0 -102 -91 -94 -103 5 -9 3 -9 -8 0 -12
10 -15 8 -16 -10 -1 -12 -7 -23 -13 -25 -5 -2 -10 -13 -10 -23 0 -11 -4 -17
-10 -14 -5 3 -10 -1 -10 -10 0 -8 -7 -18 -15 -21 -8 -4 -12 -10 -10 -15 3 -5
-1 -22 -10 -39 -8 -16 -15 -33 -14 -36 0 -4 -4 -10 -10 -13 -5 -4 -12 -19 -15
-35 -3 -16 -11 -33 -18 -38 -10 -6 -10 -8 2 -8 12 0 12 -2 2 -9 -7 -4 -14 -24
-15 -45 -1 -20 -7 -34 -13 -32 -6 2 -9 -11 -8 -33 1 -20 -4 -42 -10 -50 -8
-11 -8 -13 1 -8 13 8 12 -18 -2 -30 -4 -4 -5 -2 0 6 5 10 4 12 -3 7 -9 -5 -9
-13 -2 -27 6 -10 7 -19 2 -19 -14 0 -12 -762 2 -779 9 -12 8 -13 -4 -6 -9 5
-7 0 4 -14 20 -22 20 -22 0 -15 -17 7 -18 6 -4 -10 8 -10 15 -35 16 -55 2 -50
3 -53 12 -48 4 3 8 -13 9 -35 1 -21 8 -47 15 -56 7 -9 8 -13 2 -9 -6 3 -11 0
-11 -8 0 -8 5 -13 11 -12 6 1 10 -7 8 -17 -2 -10 2 -22 8 -26 10 -6 17 -24 19
-53 1 -5 5 -6 10 -2 5 3 13 0 17 -6 4 -8 3 -9 -4 -5 -17 10 -15 -6 4 -32 8
-12 13 -26 10 -30 -3 -5 4 -15 15 -22 10 -8 19 -20 19 -27 0 -7 5 -13 10 -13
6 0 10 -7 10 -15 0 -9 6 -18 14 -21 9 -3 12 -12 9 -21 -4 -11 -2 -14 5 -9 7 4
15 1 18 -8 3 -9 13 -16 21 -16 8 0 11 -5 8 -10 -3 -6 1 -13 9 -16 9 -3 16 -13
16 -21 0 -8 5 -11 10 -8 6 3 10 1 10 -5 0 -6 4 -8 10 -5 6 3 10 -1 10 -9 0 -8
5 -18 12 -22 7 -5 8 -3 3 7 -8 12 -6 12 8 0 9 -7 15 -16 13 -20 -3 -4 4 -8 15
-8 10 -1 26 -9 35 -17 9 -9 19 -14 24 -11 4 3 14 -3 21 -13 13 -16 13 -16 -6
-2 -19 14 -19 14 -6 -3 8 -9 16 -15 19 -12 3 3 12 -1 20 -8 13 -10 15 -9 8 3
-6 11 -4 11 6 -1 7 -9 21 -15 30 -13 10 1 21 -3 25 -8 4 -7 1 -8 -8 -3 -8 5
-11 4 -6 -1 5 -5 17 -10 28 -10 45 -3 50 -4 45 -12 -3 -5 1 -9 9 -9 8 0 11 5
8 11 -3 6 0 5 8 -1 7 -7 24 -13 37 -13 13 0 21 -4 18 -8 -3 -5 1 -9 9 -9 8 0
12 4 9 9 -3 4 0 8 5 8 6 0 11 -4 11 -10 0 -6 27 -10 61 -10 43 0 58 -3 53 -12
-5 -7 -3 -8 7 -2 21 13 42 11 64 -6 18 -14 19 -14 6 3 -11 14 -11 17 2 17 9 0
19 -5 22 -10 4 -6 13 -7 23 -1 9 4 51 9 92 10 41 1 81 8 89 14 12 9 13 9 7 0
-4 -7 -3 -13 3 -13 5 0 11 5 13 10 2 6 20 11 40 12 24 1 35 5 31 12 -4 6 2 4
12 -4 11 -9 16 -10 11 -2 -4 7 -2 13 6 13 7 1 24 3 37 4 13 1 27 8 31 15 4 6
10 11 14 11 20 -3 26 0 21 9 -9 14 9 12 24 -3 7 -6 11 -7 9 -2 -2 6 0 10 4 10
4 0 14 9 23 20 9 11 13 14 10 7 -6 -11 -3 -11 14 0 12 7 21 16 21 20 0 5 5 8
11 8 20 0 61 38 47 43 -7 3 0 6 15 6 16 1 26 5 22 11 -3 6 1 10 9 10 15 0 21
12 17 33 -1 5 3 6 9 2 5 -3 10 -1 10 4 0 6 7 11 16 11 8 0 12 5 9 10 -3 5 1
10 10 10 11 0 15 5 11 15 -4 10 1 15 17 16 12 0 16 3 9 6 -9 3 -6 11 11 27 13
12 21 28 19 35 -3 8 0 11 7 7 10 -6 13 0 10 21 0 3 6 10 15 15 9 5 16 20 16
34 0 14 4 22 10 19 6 -4 10 5 10 19 0 14 6 26 13 26 9 0 9 2 -1 9 -11 7 -11 9
2 14 9 4 16 12 16 18 0 8 -6 7 -17 -2 -17 -13 -17 -13 -3 5 18 23 21 95 4 116
-6 8 -14 23 -15 33 -2 10 -17 25 -34 34 -61 32 -67 35 -60 24 3 -6 0 -11 -9
-11 -8 0 -17 6 -19 13 -4 9 -6 9 -6 0 -1 -7 -11 -13 -22 -13 -12 0 -32 -12
-45 -26 -14 -14 -29 -22 -36 -18 -8 5 -9 2 -5 -9 3 -9 1 -20 -6 -24 -15 -10
-42 -58 -28 -48 6 3 11 1 11 -4 0 -6 -7 -11 -15 -11 -8 0 -15 -7 -15 -15 0 -8
-4 -15 -10 -15 -5 0 -10 -9 -10 -20 0 -11 -5 -20 -11 -20 -6 0 -9 -7 -5 -15 3
-8 1 -15 -5 -15 -6 0 -22 -9 -36 -20 -14 -11 -20 -20 -14 -20 8 0 8 -4 -1 -14
-7 -8 -17 -11 -22 -8 -5 3 -7 -2 -3 -11 3 -9 2 -19 -3 -22 -6 -4 -10 -1 -10 5
0 7 -5 6 -14 -2 -8 -7 -13 -17 -13 -23 1 -5 -4 -9 -10 -7 -7 1 -13 -3 -13 -9
0 -5 -4 -8 -9 -4 -6 3 -13 0 -18 -7 -4 -7 -18 -22 -31 -32 -23 -20 -23 -20
-16 0 5 13 -1 10 -20 -11 -15 -16 -25 -25 -22 -19 3 6 -1 11 -9 11 -8 0 -12
-4 -10 -8 7 -11 -16 -17 -50 -13 -22 2 -26 1 -15 -6 8 -5 12 -10 8 -11 -5 -1
-12 -3 -18 -4 -5 -1 -33 -3 -61 -4 -27 0 -48 -5 -45 -9 3 -5 -1 -9 -9 -9 -8 0
-12 4 -9 9 8 13 -10 10 -24 -4 -9 -9 -17 -10 -30 -2 -10 6 -44 12 -77 14 -91
3 -94 4 -89 11 2 4 -3 10 -12 13 -10 4 -13 2 -8 -7 4 -6 -2 -4 -13 6 -11 9
-23 14 -26 11 -4 -4 -13 -1 -22 6 -8 7 -15 9 -15 4 0 -4 -7 1 -16 12 -8 10
-13 12 -9 4 4 -10 1 -9 -8 3 -9 10 -21 15 -31 11 -12 -5 -15 -2 -9 12 4 11 3
15 -5 10 -6 -3 -15 2 -21 11 -8 14 -11 15 -11 3 -1 -9 -5 -6 -10 8 -5 12 -16
22 -25 22 -8 0 -15 7 -15 15 0 8 -7 15 -16 15 -14 0 -14 3 -4 16 8 8 9 14 4
13 -5 -1 -18 -1 -29 1 l-20 1 20 9 c14 6 16 9 5 10 -8 2 -18 2 -23 1 -4 0 -6
2 -5 6 2 12 -13 46 -30 66 -8 9 -12 20 -9 24 4 3 2 12 -4 19 -21 26 -47 84
-37 84 6 0 5 7 -2 15 -7 9 -10 18 -6 22 3 3 0 16 -7 27 -8 12 -13 33 -12 48 1
15 -2 25 -7 22 -11 -7 -10 3 4 29 10 20 10 21 -6 8 -15 -12 -17 -12 -14 0 2 8
8 17 13 21 6 5 6 8 -2 8 -15 0 -16 615 -1 644 7 13 7 16 -1 12 -6 -4 -11 -3
-11 3 0 5 5 13 10 16 8 5 7 12 -2 23 -10 12 -10 14 0 8 7 -4 12 -1 12 9 0 10
-5 14 -12 10 -7 -4 -6 -1 2 7 8 7 15 29 15 50 0 30 2 35 14 25 12 -10 12 -9 2
11 -9 17 -9 22 0 22 7 0 9 3 6 7 -4 3 0 17 9 31 9 13 11 21 5 18 -6 -4 -11 0
-11 8 0 9 6 13 14 10 10 -4 12 2 9 20 -4 20 -1 26 13 26 9 0 14 3 11 7 -4 3 0
17 9 31 11 17 12 22 3 17 -8 -4 -4 2 9 14 12 12 22 28 22 36 0 8 6 18 13 22 8
4 16 16 20 26 3 9 13 17 21 17 8 0 18 9 21 20 4 11 11 18 16 15 5 -4 9 -1 9 5
0 6 4 9 9 6 5 -3 12 1 15 10 3 9 11 12 18 8 7 -5 9 -2 6 7 -4 10 1 15 15 17
12 0 27 8 33 17 7 9 16 15 20 14 21 -4 35 2 29 11 -5 9 33 14 82 13 7 -1 10 3
7 8 -3 5 13 9 35 9 22 0 42 5 44 13 4 10 6 10 6 0 1 -7 8 -13 17 -13 9 0 12 5
8 12 -5 7 -3 8 7 2 24 -15 59 -12 60 5 0 13 2 12 8 -2 4 -10 11 -18 16 -18 5
0 12 8 16 18 7 16 8 16 8 1 1 -13 12 -18 49 -20 33 -2 46 -7 44 -16 -1 -8 2
-11 8 -7 6 3 7 11 4 17 -4 5 4 4 17 -3 13 -7 30 -12 38 -10 8 1 10 -2 5 -10
-5 -9 -2 -10 9 -6 10 4 17 2 17 -4 0 -6 7 -9 15 -6 8 4 17 1 21 -5 5 -7 2 -8
-6 -3 -9 5 -11 4 -6 -3 4 -7 16 -12 27 -12 11 0 17 -4 14 -10 -3 -5 3 -10 15
-10 12 0 24 -9 29 -22 5 -13 10 -22 12 -20 10 8 40 -12 35 -24 -4 -9 2 -14 15
-14 11 0 17 -4 14 -10 -3 -5 0 -10 8 -10 8 0 22 -15 30 -32 9 -18 25 -43 36
-54 11 -12 17 -25 14 -28 -4 -3 -1 -6 6 -6 7 0 9 -4 6 -10 -3 -5 1 -10 9 -10
10 0 16 -9 16 -26 0 -16 4 -23 12 -18 8 5 9 0 6 -14 -4 -14 -2 -22 7 -22 7 0
15 -9 18 -20 3 -11 13 -20 22 -20 9 0 13 -4 10 -10 -3 -5 1 -10 10 -10 10 0
13 -5 9 -12 -4 -7 -3 -8 4 -4 7 4 17 4 24 0 19 -12 68 -12 61 -1 -4 6 1 8 10
4 10 -4 17 -1 18 6 0 7 4 3 9 -8 8 -18 9 -18 9 -2 1 10 5 16 10 12 6 -3 14 3
20 12 6 10 11 14 11 8 0 -5 7 4 16 20 19 35 26 115 11 133 -6 8 -6 12 2 12 7
0 9 5 6 10 -4 6 -12 7 -18 3 -7 -4 -5 2 3 12 9 11 10 16 3 11 -9 -5 -13 2 -13
23 0 17 -4 31 -10 31 -5 0 -10 7 -10 16 0 9 -8 23 -17 31 -11 8 -12 11 -3 7
12 -7 13 -5 3 8 -7 8 -9 19 -5 23 4 5 2 5 -4 2 -11 -6 -29 19 -26 36 1 4 -5 7
-13 7 -8 0 -15 7 -15 15 0 20 -45 66 -55 57 -4 -4 -6 -2 -5 3 5 24 -1 37 -15
31 -8 -3 -14 -2 -14 2 4 22 -3 32 -22 32 -11 0 -18 3 -16 8 6 9 -19 33 -27 25
-3 -4 -6 -1 -6 6 0 7 -13 17 -29 22 -21 8 -28 15 -24 26 4 11 2 14 -5 9 -6 -4
-37 7 -68 23 -32 17 -61 28 -66 25 -4 -3 -8 2 -8 10 0 12 -10 16 -39 16 -22 0
-44 6 -51 15 -7 8 -24 13 -41 11 -21 -2 -29 1 -30 13 0 10 -2 11 -6 4 -2 -7
-9 -13 -14 -13 -6 0 -7 6 -3 13 6 9 4 9 -8 -1 -11 -9 -18 -10 -23 -2 -3 6 -44
10 -95 10 -61 0 -90 4 -93 13 -3 7 -6 8 -6 1z m13 -282 c3 -5 -1 -9 -9 -9 -8
0 -12 4 -9 9 3 4 7 8 9 8 2 0 6 -4 9 -8z"/>
<path d="M4506 4027 c3 -10 9 -15 12 -12 3 3 0 11 -7 18 -10 9 -11 8 -5 -6z"/>
<path d="M1510 3700 c0 -5 5 -10 11 -10 5 0 7 5 4 10 -3 6 -8 10 -11 10 -2 0
-4 -4 -4 -10z"/>
<path d="M544 2595 c0 -13 3 -22 7 -19 8 4 6 30 -2 38 -3 3 -5 -5 -5 -19z"/>
<path d="M1916 1217 c3 -10 9 -15 12 -12 3 3 0 11 -7 18 -10 9 -11 8 -5 -6z"/>
</g>
</svg>
